<?xml version="1.0" encoding="UTF-8"?>
<svg xmlns="http://www.w3.org/2000/svg" version="1.1" width="100" height="100" viewBox="0 0 100 100"><rect x="0" y="0" width="100" height="100" fill="#ffffff"/><g transform="scale(2.703)"><g transform="translate(0,0)"><path fill-rule="evenodd" d="M9 0L9 1L8 1L8 2L9 2L9 3L8 3L8 4L11 4L11 5L10 5L10 7L9 7L9 5L8 5L8 7L9 7L9 8L6 8L6 9L9 9L9 10L8 10L8 11L7 11L7 10L5 10L5 12L4 12L4 11L3 11L3 10L2 10L2 9L5 9L5 8L0 8L0 10L1 10L1 11L2 11L2 12L1 12L1 16L0 16L0 17L1 17L1 19L0 19L0 21L2 21L2 20L3 20L3 21L5 21L5 22L3 22L3 23L4 23L4 24L3 24L3 25L4 25L4 24L5 24L5 25L7 25L7 26L4 26L4 27L2 27L2 29L3 29L3 28L4 28L4 29L7 29L7 28L9 28L9 27L7 27L7 26L9 26L9 25L7 25L7 24L8 24L8 23L7 23L7 22L6 22L6 21L7 21L7 20L6 20L6 21L5 21L5 19L3 19L3 15L4 15L4 16L6 16L6 17L4 17L4 18L6 18L6 19L7 19L7 18L8 18L8 21L10 21L10 22L9 22L9 24L10 24L10 27L11 27L11 25L12 25L12 24L13 24L13 25L14 25L14 26L12 26L12 28L13 28L13 27L14 27L14 29L15 29L15 31L14 31L14 30L13 30L13 29L11 29L11 28L10 28L10 29L8 29L8 31L9 31L9 30L13 30L13 31L14 31L14 33L15 33L15 35L14 35L14 34L13 34L13 35L12 35L12 36L11 36L11 37L12 37L12 36L13 36L13 37L19 37L19 36L20 36L20 37L23 37L23 34L24 34L24 33L26 33L26 35L27 35L27 36L25 36L25 35L24 35L24 37L27 37L27 36L30 36L30 37L32 37L32 34L33 34L33 33L34 33L34 34L35 34L35 35L36 35L36 36L33 36L33 37L37 37L37 34L35 34L35 32L33 32L33 31L34 31L34 30L35 30L35 31L37 31L37 30L35 30L35 28L33 28L33 26L34 26L34 25L35 25L35 27L36 27L36 28L37 28L37 26L36 26L36 25L37 25L37 22L36 22L36 21L37 21L37 18L36 18L36 17L37 17L37 14L36 14L36 13L35 13L35 12L34 12L34 11L35 11L35 9L36 9L36 8L35 8L35 9L34 9L34 8L33 8L33 9L34 9L34 11L33 11L33 10L32 10L32 8L31 8L31 10L30 10L30 8L25 8L25 6L26 6L26 7L27 7L27 6L28 6L28 7L29 7L29 6L28 6L28 5L29 5L29 4L28 4L28 3L29 3L29 2L28 2L28 1L29 1L29 0L28 0L28 1L26 1L26 3L24 3L24 4L21 4L21 3L23 3L23 2L22 2L22 1L24 1L24 2L25 2L25 0L19 0L19 1L18 1L18 0L16 0L16 1L14 1L14 3L12 3L12 2L13 2L13 1L12 1L12 2L10 2L10 0ZM17 1L17 2L16 2L16 3L14 3L14 5L15 5L15 4L16 4L16 3L19 3L19 2L20 2L20 3L21 3L21 1L19 1L19 2L18 2L18 1ZM12 4L12 5L11 5L11 7L12 7L12 8L10 8L10 10L9 10L9 11L11 11L11 13L12 13L12 14L11 14L11 15L12 15L12 16L11 16L11 17L13 17L13 18L14 18L14 19L12 19L12 18L11 18L11 20L13 20L13 21L12 21L12 22L10 22L10 23L12 23L12 22L14 22L14 23L13 23L13 24L14 24L14 25L15 25L15 26L16 26L16 27L15 27L15 29L17 29L17 30L18 30L18 29L19 29L19 28L20 28L20 29L22 29L22 30L21 30L21 31L24 31L24 30L25 30L25 29L24 29L24 30L23 30L23 29L22 29L22 28L20 28L20 27L21 27L21 24L20 24L20 26L18 26L18 27L17 27L17 26L16 26L16 25L15 25L15 24L19 24L19 23L20 23L20 21L21 21L21 20L20 20L20 17L19 17L19 16L21 16L21 15L22 15L22 14L21 14L21 15L20 15L20 13L22 13L22 12L23 12L23 13L25 13L25 12L26 12L26 11L27 11L27 13L26 13L26 14L28 14L28 13L29 13L29 14L31 14L31 16L35 16L35 17L36 17L36 14L35 14L35 15L34 15L34 13L32 13L32 12L31 12L31 13L29 13L29 12L30 12L30 11L29 11L29 12L28 12L28 11L27 11L27 10L28 10L28 9L26 9L26 10L25 10L25 8L24 8L24 6L25 6L25 5L26 5L26 6L27 6L27 5L28 5L28 4L27 4L27 5L26 5L26 4L25 4L25 5L22 5L22 6L21 6L21 5L18 5L18 6L17 6L17 8L16 8L16 6L15 6L15 8L16 8L16 9L14 9L14 11L13 11L13 12L12 12L12 10L13 10L13 9L12 9L12 8L14 8L14 6L13 6L13 7L12 7L12 5L13 5L13 4ZM18 6L18 8L19 8L19 6ZM20 6L20 8L22 8L22 7L23 7L23 6L22 6L22 7L21 7L21 6ZM23 8L23 10L22 10L22 9L20 9L20 10L21 10L21 12L22 12L22 11L23 11L23 12L25 12L25 10L24 10L24 8ZM11 9L11 10L12 10L12 9ZM16 9L16 10L15 10L15 11L18 11L18 12L17 12L17 13L16 13L16 12L14 12L14 14L15 14L15 15L14 15L14 16L13 16L13 17L15 17L15 15L16 15L16 14L17 14L17 15L18 15L18 14L19 14L19 13L18 13L18 12L20 12L20 11L19 11L19 9L18 9L18 10L17 10L17 9ZM23 10L23 11L24 11L24 10ZM31 10L31 11L32 11L32 10ZM36 10L36 11L37 11L37 10ZM6 11L6 12L7 12L7 11ZM2 12L2 13L3 13L3 12ZM8 12L8 13L6 13L6 14L7 14L7 15L6 15L6 16L7 16L7 17L6 17L6 18L7 18L7 17L8 17L8 18L10 18L10 17L9 17L9 16L8 16L8 15L10 15L10 14L9 14L9 13L10 13L10 12ZM17 13L17 14L18 14L18 13ZM12 14L12 15L13 15L13 14ZM23 14L23 17L21 17L21 19L22 19L22 18L23 18L23 20L24 20L24 21L25 21L25 20L26 20L26 22L28 22L28 23L29 23L29 24L26 24L26 23L25 23L25 22L23 22L23 21L22 21L22 22L21 22L21 23L23 23L23 25L24 25L24 26L23 26L23 28L26 28L26 29L27 29L27 28L29 28L29 26L30 26L30 28L31 28L31 27L32 27L32 26L33 26L33 25L32 25L32 26L31 26L31 25L30 25L30 23L29 23L29 22L28 22L28 21L29 21L29 20L28 20L28 21L27 21L27 20L26 20L26 19L25 19L25 18L29 18L29 19L30 19L30 20L31 20L31 21L30 21L30 22L31 22L31 23L32 23L32 24L36 24L36 23L35 23L35 21L32 21L32 20L31 20L31 19L30 19L30 18L31 18L31 17L30 17L30 18L29 18L29 16L27 16L27 15L24 15L24 14ZM32 14L32 15L33 15L33 14ZM17 16L17 17L16 17L16 18L15 18L15 19L14 19L14 22L15 22L15 23L14 23L14 24L15 24L15 23L17 23L17 22L18 22L18 23L19 23L19 22L18 22L18 21L16 21L16 20L17 20L17 19L18 19L18 20L19 20L19 21L20 21L20 20L19 20L19 19L18 19L18 18L19 18L19 17L18 17L18 16ZM24 16L24 17L23 17L23 18L25 18L25 17L27 17L27 16ZM17 17L17 18L16 18L16 19L17 19L17 18L18 18L18 17ZM32 17L32 18L33 18L33 20L36 20L36 19L35 19L35 18L34 18L34 17ZM9 19L9 20L10 20L10 19ZM15 21L15 22L16 22L16 21ZM31 21L31 22L32 22L32 21ZM1 22L1 23L2 23L2 22ZM6 23L6 24L7 24L7 23ZM24 24L24 25L26 25L26 26L24 26L24 27L26 27L26 28L27 28L27 27L28 27L28 26L29 26L29 25L28 25L28 26L27 26L27 25L26 25L26 24ZM0 25L0 29L1 29L1 26L2 26L2 25ZM26 26L26 27L27 27L27 26ZM5 27L5 28L7 28L7 27ZM18 27L18 28L17 28L17 29L18 29L18 28L19 28L19 27ZM29 29L29 32L32 32L32 29ZM33 29L33 30L34 30L34 29ZM19 30L19 32L18 32L18 31L16 31L16 32L15 32L15 33L17 33L17 34L16 34L16 35L17 35L17 36L19 36L19 35L20 35L20 36L21 36L21 35L22 35L22 34L23 34L23 33L24 33L24 32L23 32L23 33L21 33L21 32L20 32L20 30ZM27 30L27 32L28 32L28 30ZM30 30L30 31L31 31L31 30ZM11 31L11 32L8 32L8 37L9 37L9 34L10 34L10 35L11 35L11 34L12 34L12 33L13 33L13 32L12 32L12 31ZM25 31L25 32L26 32L26 31ZM10 33L10 34L11 34L11 33ZM20 33L20 35L21 35L21 33ZM27 33L27 34L28 34L28 35L29 35L29 33ZM31 33L31 34L30 34L30 35L31 35L31 34L32 34L32 33ZM17 34L17 35L18 35L18 34ZM13 35L13 36L14 36L14 35ZM0 0L0 7L7 7L7 0ZM1 1L1 6L6 6L6 1ZM2 2L2 5L5 5L5 2ZM30 0L30 7L37 7L37 0ZM31 1L31 6L36 6L36 1ZM32 2L32 5L35 5L35 2ZM0 30L0 37L7 37L7 30ZM1 31L1 36L6 36L6 31ZM2 32L2 35L5 35L5 32Z" fill="#000000"/></g></g></svg>
