<?xml version="1.0" encoding="UTF-8"?>
<svg xmlns="http://www.w3.org/2000/svg" version="1.1" width="100" height="100" viewBox="0 0 100 100"><rect x="0" y="0" width="100" height="100" fill="#ffffff"/><g transform="scale(2.703)"><g transform="translate(0,0)"><path fill-rule="evenodd" d="M9 0L9 1L8 1L8 2L9 2L9 3L8 3L8 4L10 4L10 7L11 7L11 4L12 4L12 5L13 5L13 6L12 6L12 8L13 8L13 11L10 11L10 12L13 12L13 15L11 15L11 13L9 13L9 12L6 12L6 13L7 13L7 14L5 14L5 13L3 13L3 10L4 10L4 11L5 11L5 10L4 10L4 9L5 9L5 8L0 8L0 11L1 11L1 14L3 14L3 16L2 16L2 15L0 15L0 17L1 17L1 16L2 16L2 17L3 17L3 18L1 18L1 19L0 19L0 20L1 20L1 19L3 19L3 18L4 18L4 17L5 17L5 16L6 16L6 17L8 17L8 18L5 18L5 19L4 19L4 20L5 20L5 21L4 21L4 22L3 22L3 24L4 24L4 26L5 26L5 28L4 28L4 27L3 27L3 25L0 25L0 29L1 29L1 26L2 26L2 28L4 28L4 29L8 29L8 31L10 31L10 33L9 33L9 32L8 32L8 37L9 37L9 36L10 36L10 37L11 37L11 36L12 36L12 35L13 35L13 34L15 34L15 36L13 36L13 37L16 37L16 35L18 35L18 36L17 36L17 37L18 37L18 36L20 36L20 37L21 37L21 36L22 36L22 37L23 37L23 35L21 35L21 36L20 36L20 35L19 35L19 34L21 34L21 32L22 32L22 33L23 33L23 34L26 34L26 35L27 35L27 36L24 36L24 37L27 37L27 36L29 36L29 35L30 35L30 37L32 37L32 34L33 34L33 33L34 33L34 34L35 34L35 35L36 35L36 36L33 36L33 37L37 37L37 34L35 34L35 33L37 33L37 32L36 32L36 31L37 31L37 30L35 30L35 28L33 28L33 26L34 26L34 25L35 25L35 27L36 27L36 28L37 28L37 26L36 26L36 25L37 25L37 22L36 22L36 21L37 21L37 18L36 18L36 17L37 17L37 14L36 14L36 13L35 13L35 12L34 12L34 11L35 11L35 9L36 9L36 8L35 8L35 9L34 9L34 8L33 8L33 9L34 9L34 11L33 11L33 10L32 10L32 8L31 8L31 10L30 10L30 8L29 8L29 9L28 9L28 7L29 7L29 4L28 4L28 5L27 5L27 3L28 3L28 2L29 2L29 0L28 0L28 1L26 1L26 0L25 0L25 1L24 1L24 0L22 0L22 1L21 1L21 0L15 0L15 1L14 1L14 5L13 5L13 3L12 3L12 2L13 2L13 1L11 1L11 2L10 2L10 0ZM19 1L19 2L20 2L20 1ZM22 1L22 3L20 3L20 4L22 4L22 3L23 3L23 4L24 4L24 3L27 3L27 2L26 2L26 1L25 1L25 2L24 2L24 1ZM15 2L15 4L17 4L17 5L16 5L16 6L15 6L15 9L14 9L14 11L13 11L13 12L14 12L14 11L15 11L15 12L16 12L16 13L15 13L15 14L14 14L14 15L13 15L13 16L14 16L14 18L16 18L16 19L13 19L13 20L12 20L12 22L11 22L11 21L10 21L10 20L11 20L11 19L12 19L12 18L13 18L13 17L11 17L11 15L10 15L10 14L9 14L9 15L8 15L8 17L9 17L9 15L10 15L10 18L9 18L9 19L8 19L8 20L9 20L9 22L7 22L7 21L5 21L5 22L4 22L4 24L5 24L5 23L6 23L6 24L8 24L8 25L6 25L6 26L8 26L8 25L9 25L9 27L6 27L6 28L8 28L8 29L9 29L9 27L10 27L10 28L11 28L11 29L10 29L10 31L11 31L11 32L14 32L14 30L16 30L16 31L17 31L17 32L18 32L18 33L20 33L20 32L19 32L19 31L20 31L20 29L21 29L21 30L22 30L22 31L23 31L23 32L24 32L24 33L25 33L25 32L28 32L28 29L25 29L25 30L23 30L23 29L24 29L24 28L26 28L26 27L27 27L27 28L29 28L29 27L27 27L27 26L30 26L30 28L31 28L31 27L32 27L32 26L33 26L33 25L32 25L32 26L31 26L31 25L30 25L30 23L29 23L29 24L27 24L27 23L26 23L26 21L25 21L25 20L26 20L26 19L25 19L25 18L20 18L20 17L21 17L21 16L19 16L19 15L20 15L20 13L21 13L21 12L20 12L20 13L19 13L19 12L18 12L18 11L20 11L20 10L19 10L19 9L22 9L22 11L23 11L23 13L22 13L22 15L23 15L23 17L24 17L24 16L26 16L26 17L27 17L27 18L28 18L28 19L30 19L30 20L31 20L31 21L30 21L30 22L31 22L31 23L32 23L32 24L36 24L36 23L35 23L35 21L32 21L32 20L31 20L31 19L30 19L30 18L31 18L31 17L30 17L30 18L28 18L28 17L29 17L29 16L28 16L28 17L27 17L27 16L26 16L26 15L27 15L27 14L28 14L28 13L27 13L27 12L26 12L26 11L25 11L25 10L23 10L23 9L25 9L25 8L26 8L26 10L28 10L28 11L29 11L29 12L30 12L30 11L29 11L29 10L28 10L28 9L27 9L27 8L26 8L26 6L27 6L27 7L28 7L28 6L27 6L27 5L26 5L26 4L25 4L25 5L26 5L26 6L25 6L25 8L24 8L24 5L23 5L23 7L22 7L22 5L21 5L21 7L20 7L20 5L18 5L18 4L19 4L19 3L18 3L18 2ZM10 3L10 4L11 4L11 3ZM17 3L17 4L18 4L18 3ZM8 5L8 7L9 7L9 5ZM17 5L17 6L16 6L16 7L17 7L17 6L18 6L18 8L17 8L17 9L16 9L16 10L15 10L15 11L16 11L16 12L17 12L17 13L16 13L16 14L15 14L15 16L17 16L17 17L16 17L16 18L18 18L18 19L19 19L19 20L20 20L20 23L21 23L21 24L20 24L20 25L19 25L19 26L18 26L18 25L14 25L14 24L13 24L13 23L15 23L15 24L16 24L16 23L17 23L17 22L18 22L18 24L19 24L19 21L16 21L16 22L12 22L12 24L11 24L11 23L10 23L10 22L9 22L9 23L8 23L8 24L9 24L9 25L11 25L11 26L12 26L12 27L15 27L15 28L13 28L13 30L12 30L12 31L13 31L13 30L14 30L14 29L16 29L16 30L17 30L17 29L19 29L19 28L16 28L16 26L18 26L18 27L19 27L19 26L20 26L20 28L22 28L22 29L23 29L23 27L22 27L22 26L21 26L21 25L23 25L23 26L24 26L24 27L25 27L25 25L27 25L27 24L25 24L25 22L24 22L24 20L25 20L25 19L24 19L24 20L23 20L23 21L21 21L21 20L22 20L22 19L19 19L19 18L18 18L18 17L19 17L19 16L17 16L17 15L16 15L16 14L17 14L17 13L18 13L18 12L17 12L17 11L16 11L16 10L17 10L17 9L18 9L18 8L19 8L19 6L18 6L18 5ZM13 6L13 8L14 8L14 6ZM21 7L21 8L22 8L22 9L23 9L23 8L22 8L22 7ZM6 8L6 9L8 9L8 10L6 10L6 11L9 11L9 10L10 10L10 9L11 9L11 10L12 10L12 9L11 9L11 8ZM1 10L1 11L2 11L2 10ZM31 10L31 11L32 11L32 10ZM36 10L36 11L37 11L37 10ZM24 11L24 12L25 12L25 13L23 13L23 14L24 14L24 15L26 15L26 14L27 14L27 13L26 13L26 12L25 12L25 11ZM31 12L31 13L29 13L29 14L31 14L31 16L35 16L35 17L36 17L36 14L35 14L35 15L34 15L34 13L32 13L32 12ZM25 13L25 14L26 14L26 13ZM32 14L32 15L33 15L33 14ZM6 15L6 16L7 16L7 15ZM32 17L32 18L33 18L33 20L36 20L36 19L35 19L35 18L34 18L34 17ZM10 18L10 19L9 19L9 20L10 20L10 19L11 19L11 18ZM6 19L6 20L7 20L7 19ZM2 20L2 21L0 21L0 22L2 22L2 21L3 21L3 20ZM14 20L14 21L15 21L15 20ZM28 20L28 21L27 21L27 22L28 22L28 21L29 21L29 20ZM31 21L31 22L32 22L32 21ZM6 22L6 23L7 23L7 22ZM21 22L21 23L22 23L22 24L23 24L23 25L25 25L25 24L23 24L23 23L24 23L24 22ZM0 23L0 24L1 24L1 23ZM12 24L12 26L14 26L14 25L13 25L13 24ZM29 29L29 32L32 32L32 29ZM33 29L33 30L34 30L34 31L33 31L33 32L35 32L35 30L34 30L34 29ZM18 30L18 31L19 31L19 30ZM25 30L25 31L26 31L26 30ZM30 30L30 31L31 31L31 30ZM12 33L12 34L11 34L11 35L10 35L10 36L11 36L11 35L12 35L12 34L13 34L13 33ZM15 33L15 34L17 34L17 33ZM26 33L26 34L27 34L27 35L28 35L28 33ZM31 33L31 34L30 34L30 35L31 35L31 34L32 34L32 33ZM0 0L0 7L7 7L7 0ZM1 1L1 6L6 6L6 1ZM2 2L2 5L5 5L5 2ZM30 0L30 7L37 7L37 0ZM31 1L31 6L36 6L36 1ZM32 2L32 5L35 5L35 2ZM0 30L0 37L7 37L7 30ZM1 31L1 36L6 36L6 31ZM2 32L2 35L5 35L5 32Z" fill="#000000"/></g></g></svg>
