<?xml version="1.0" encoding="UTF-8"?>
<svg xmlns="http://www.w3.org/2000/svg" version="1.1" width="100" height="100" viewBox="0 0 100 100"><rect x="0" y="0" width="100" height="100" fill="#ffffff"/><g transform="scale(2.703)"><g transform="translate(0,0)"><path fill-rule="evenodd" d="M11 0L11 1L12 1L12 2L13 2L13 1L12 1L12 0ZM14 0L14 2L15 2L15 3L14 3L14 5L12 5L12 8L11 8L11 5L10 5L10 4L11 4L11 3L10 3L10 2L9 2L9 1L8 1L8 2L9 2L9 3L8 3L8 4L9 4L9 5L8 5L8 7L9 7L9 8L6 8L6 9L5 9L5 8L0 8L0 9L2 9L2 10L0 10L0 12L1 12L1 13L0 13L0 14L1 14L1 16L2 16L2 17L1 17L1 18L0 18L0 20L1 20L1 21L0 21L0 22L1 22L1 23L0 23L0 24L1 24L1 25L0 25L0 29L1 29L1 26L2 26L2 29L3 29L3 28L4 28L4 24L3 24L3 22L4 22L4 23L5 23L5 22L6 22L6 23L7 23L7 24L6 24L6 25L7 25L7 24L8 24L8 25L9 25L9 26L12 26L12 28L10 28L10 27L9 27L9 28L8 28L8 26L5 26L5 27L7 27L7 28L5 28L5 29L8 29L8 31L10 31L10 30L9 30L9 28L10 28L10 29L13 29L13 30L12 30L12 32L13 32L13 34L12 34L12 33L10 33L10 34L9 34L9 32L8 32L8 37L9 37L9 36L10 36L10 37L16 37L16 36L15 36L15 35L18 35L18 34L15 34L15 33L18 33L18 32L17 32L17 29L19 29L19 28L20 28L20 31L19 31L19 34L21 34L21 35L19 35L19 36L20 36L20 37L23 37L23 36L22 36L22 35L23 35L23 34L24 34L24 33L26 33L26 35L27 35L27 36L25 36L25 35L24 35L24 37L27 37L27 36L30 36L30 37L32 37L32 34L33 34L33 33L34 33L34 34L35 34L35 35L36 35L36 36L33 36L33 37L37 37L37 34L35 34L35 32L33 32L33 31L34 31L34 30L35 30L35 31L37 31L37 30L35 30L35 28L33 28L33 26L34 26L34 25L35 25L35 27L36 27L36 28L37 28L37 26L36 26L36 25L37 25L37 22L36 22L36 21L37 21L37 18L36 18L36 17L37 17L37 14L36 14L36 13L35 13L35 12L34 12L34 11L35 11L35 9L36 9L36 8L35 8L35 9L34 9L34 8L33 8L33 9L34 9L34 11L33 11L33 10L32 10L32 8L31 8L31 10L30 10L30 8L25 8L25 6L26 6L26 7L27 7L27 6L28 6L28 7L29 7L29 6L28 6L28 5L29 5L29 4L28 4L28 3L29 3L29 2L28 2L28 1L29 1L29 0L28 0L28 1L26 1L26 3L24 3L24 4L21 4L21 3L23 3L23 2L22 2L22 1L24 1L24 2L25 2L25 0L17 0L17 2L18 2L18 3L16 3L16 1L15 1L15 0ZM19 1L19 3L18 3L18 4L17 4L17 5L18 5L18 6L17 6L17 8L16 8L16 6L15 6L15 7L14 7L14 6L13 6L13 8L15 8L15 9L12 9L12 10L11 10L11 8L10 8L10 9L9 9L9 10L8 10L8 9L6 9L6 10L5 10L5 9L4 9L4 10L5 10L5 13L4 13L4 11L3 11L3 13L2 13L2 15L5 15L5 16L8 16L8 17L4 17L4 20L2 20L2 22L3 22L3 21L6 21L6 22L7 22L7 21L6 21L6 20L7 20L7 19L6 19L6 18L9 18L9 19L8 19L8 21L10 21L10 18L11 18L11 20L12 20L12 21L11 21L11 22L10 22L10 23L9 23L9 24L12 24L12 25L13 25L13 26L15 26L15 25L14 25L14 23L15 23L15 22L14 22L14 21L13 21L13 20L15 20L15 21L16 21L16 20L18 20L18 21L17 21L17 22L16 22L16 24L17 24L17 25L19 25L19 24L21 24L21 23L22 23L22 24L23 24L23 25L20 25L20 26L18 26L18 27L17 27L17 26L16 26L16 27L17 27L17 28L19 28L19 27L20 27L20 28L21 28L21 30L22 30L22 32L21 32L21 31L20 31L20 33L24 33L24 32L23 32L23 31L24 31L24 30L25 30L25 29L24 29L24 30L22 30L22 28L21 28L21 27L20 27L20 26L22 26L22 27L23 27L23 28L26 28L26 29L27 29L27 28L29 28L29 26L30 26L30 28L31 28L31 27L32 27L32 26L33 26L33 25L32 25L32 26L31 26L31 25L30 25L30 23L29 23L29 22L28 22L28 21L29 21L29 20L28 20L28 21L27 21L27 20L26 20L26 19L25 19L25 18L29 18L29 19L30 19L30 20L31 20L31 21L30 21L30 22L31 22L31 23L32 23L32 24L36 24L36 23L35 23L35 21L32 21L32 20L31 20L31 19L30 19L30 18L31 18L31 17L30 17L30 18L29 18L29 16L27 16L27 15L24 15L24 14L22 14L22 16L23 16L23 17L21 17L21 18L18 18L18 17L20 17L20 16L21 16L21 14L19 14L19 15L20 15L20 16L18 16L18 14L17 14L17 15L15 15L15 18L14 18L14 15L13 15L13 16L12 16L12 17L10 17L10 16L11 16L11 15L12 15L12 14L11 14L11 13L10 13L10 12L9 12L9 11L10 11L10 10L11 10L11 12L12 12L12 13L13 13L13 12L14 12L14 14L15 14L15 12L18 12L18 13L25 13L25 12L26 12L26 11L27 11L27 13L26 13L26 14L28 14L28 13L29 13L29 14L31 14L31 16L35 16L35 17L36 17L36 14L35 14L35 15L34 15L34 13L32 13L32 12L31 12L31 13L29 13L29 12L30 12L30 11L29 11L29 12L28 12L28 11L27 11L27 10L28 10L28 9L26 9L26 10L25 10L25 8L24 8L24 6L25 6L25 5L26 5L26 6L27 6L27 5L28 5L28 4L27 4L27 5L26 5L26 4L25 4L25 5L22 5L22 6L21 6L21 5L20 5L20 4L19 4L19 3L21 3L21 1ZM9 3L9 4L10 4L10 3ZM9 6L9 7L10 7L10 6ZM18 6L18 7L19 7L19 6ZM20 6L20 7L21 7L21 8L19 8L19 9L18 9L18 8L17 8L17 10L15 10L15 11L14 11L14 10L12 10L12 12L13 12L13 11L14 11L14 12L15 12L15 11L17 11L17 10L18 10L18 12L22 12L22 11L23 11L23 12L25 12L25 10L24 10L24 8L23 8L23 10L22 10L22 9L21 9L21 8L22 8L22 7L23 7L23 6L22 6L22 7L21 7L21 6ZM19 9L19 11L21 11L21 10L20 10L20 9ZM6 10L6 11L7 11L7 12L6 12L6 13L7 13L7 14L5 14L5 15L7 15L7 14L8 14L8 11L7 11L7 10ZM23 10L23 11L24 11L24 10ZM31 10L31 11L32 11L32 10ZM36 10L36 11L37 11L37 10ZM3 13L3 14L4 14L4 13ZM32 14L32 15L33 15L33 14ZM9 15L9 16L10 16L10 15ZM24 16L24 17L23 17L23 18L25 18L25 17L27 17L27 16ZM16 17L16 18L15 18L15 19L16 19L16 18L17 18L17 17ZM32 17L32 18L33 18L33 20L36 20L36 19L35 19L35 18L34 18L34 17ZM1 18L1 19L3 19L3 18ZM13 18L13 19L12 19L12 20L13 20L13 19L14 19L14 18ZM18 19L18 20L20 20L20 22L21 22L21 21L22 21L22 22L25 22L25 23L26 23L26 24L24 24L24 25L23 25L23 26L24 26L24 27L26 27L26 28L27 28L27 27L28 27L28 26L29 26L29 25L28 25L28 26L27 26L27 25L26 25L26 24L29 24L29 23L28 23L28 22L26 22L26 20L25 20L25 21L24 21L24 20L23 20L23 19ZM31 21L31 22L32 22L32 21ZM13 22L13 23L12 23L12 24L13 24L13 23L14 23L14 22ZM18 22L18 23L19 23L19 22ZM1 23L1 24L2 24L2 23ZM2 25L2 26L3 26L3 25ZM24 25L24 26L26 26L26 27L27 27L27 26L26 26L26 25ZM13 27L13 28L14 28L14 30L16 30L16 29L15 29L15 27ZM29 29L29 32L32 32L32 29ZM33 29L33 30L34 30L34 29ZM27 30L27 32L28 32L28 30ZM30 30L30 31L31 31L31 30ZM13 31L13 32L14 32L14 33L15 33L15 31ZM25 31L25 32L26 32L26 31ZM27 33L27 34L28 34L28 35L29 35L29 33ZM31 33L31 34L30 34L30 35L31 35L31 34L32 34L32 33ZM10 34L10 36L14 36L14 35L15 35L15 34L13 34L13 35L12 35L12 34ZM17 36L17 37L18 37L18 36ZM0 0L0 7L7 7L7 0ZM1 1L1 6L6 6L6 1ZM2 2L2 5L5 5L5 2ZM30 0L30 7L37 7L37 0ZM31 1L31 6L36 6L36 1ZM32 2L32 5L35 5L35 2ZM0 30L0 37L7 37L7 30ZM1 31L1 36L6 36L6 31ZM2 32L2 35L5 35L5 32Z" fill="#000000"/></g></g></svg>
