<?xml version="1.0" encoding="UTF-8"?>
<svg xmlns="http://www.w3.org/2000/svg" version="1.1" width="100" height="100" viewBox="0 0 100 100"><rect x="0" y="0" width="100" height="100" fill="#ffffff"/><g transform="scale(3.03)"><g transform="translate(0,0)"><path fill-rule="evenodd" d="M8 0L8 4L10 4L10 3L11 3L11 5L13 5L13 6L12 6L12 7L11 7L11 6L10 6L10 7L9 7L9 5L8 5L8 7L9 7L9 8L10 8L10 7L11 7L11 9L9 9L9 10L11 10L11 11L10 11L10 13L9 13L9 14L6 14L6 15L5 15L5 18L3 18L3 17L4 17L4 16L3 16L3 17L2 17L2 20L1 20L1 19L0 19L0 22L1 22L1 21L2 21L2 23L4 23L4 25L5 25L5 23L4 23L4 22L6 22L6 23L7 23L7 24L6 24L6 25L8 25L8 26L9 26L9 25L10 25L10 24L11 24L11 27L12 27L12 25L13 25L13 27L16 27L16 28L17 28L17 29L15 29L15 30L14 30L14 29L13 29L13 28L12 28L12 29L11 29L11 28L10 28L10 29L11 29L11 31L10 31L10 30L9 30L9 31L8 31L8 33L10 33L10 32L12 32L12 33L13 33L13 32L12 32L12 31L13 31L13 30L14 30L14 31L15 31L15 32L17 32L17 33L18 33L18 31L19 31L19 30L17 30L17 29L18 29L18 27L19 27L19 29L20 29L20 27L21 27L21 29L22 29L22 31L21 31L21 30L20 30L20 32L19 32L19 33L25 33L25 32L26 32L26 33L29 33L29 26L31 26L31 29L30 29L30 30L31 30L31 31L32 31L32 30L33 30L33 29L32 29L32 28L33 28L33 27L32 27L32 24L31 24L31 25L29 25L29 24L25 24L25 23L26 23L26 22L25 22L25 19L26 19L26 21L27 21L27 22L28 22L28 23L29 23L29 22L30 22L30 21L29 21L29 18L30 18L30 19L32 19L32 18L30 18L30 17L29 17L29 16L30 16L30 15L32 15L32 14L30 14L30 13L29 13L29 12L30 12L30 11L31 11L31 10L28 10L28 8L27 8L27 10L26 10L26 9L25 9L25 10L24 10L24 9L23 9L23 8L25 8L25 5L24 5L24 3L25 3L25 2L23 2L23 1L24 1L24 0L23 0L23 1L19 1L19 3L18 3L18 2L17 2L17 0L15 0L15 1L14 1L14 0L12 0L12 1L14 1L14 2L15 2L15 5L17 5L17 6L16 6L16 7L15 7L15 6L14 6L14 5L13 5L13 4L14 4L14 3L12 3L12 2L11 2L11 1L10 1L10 0ZM15 1L15 2L16 2L16 3L17 3L17 2L16 2L16 1ZM9 2L9 3L10 3L10 2ZM22 2L22 3L20 3L20 4L18 4L18 6L17 6L17 7L16 7L16 8L14 8L14 6L13 6L13 8L12 8L12 9L14 9L14 10L12 10L12 11L13 11L13 13L12 13L12 12L11 12L11 13L10 13L10 14L9 14L9 15L8 15L8 17L6 17L6 18L5 18L5 20L7 20L7 21L6 21L6 22L8 22L8 24L9 24L9 23L10 23L10 21L12 21L12 23L13 23L13 25L14 25L14 22L13 22L13 21L17 21L17 23L16 23L16 25L17 25L17 27L18 27L18 25L17 25L17 23L19 23L19 24L20 24L20 25L19 25L19 27L20 27L20 26L21 26L21 27L22 27L22 28L23 28L23 29L24 29L24 31L23 31L23 32L24 32L24 31L26 31L26 32L27 32L27 31L28 31L28 29L27 29L27 31L26 31L26 29L24 29L24 26L21 26L21 24L20 24L20 23L22 23L22 25L24 25L24 24L23 24L23 23L22 23L22 21L17 21L17 18L16 18L16 17L17 17L17 14L18 14L18 13L19 13L19 15L18 15L18 16L20 16L20 17L18 17L18 18L19 18L19 20L21 20L21 19L20 19L20 18L22 18L22 20L24 20L24 19L23 19L23 17L24 17L24 18L25 18L25 17L24 17L24 16L26 16L26 15L27 15L27 17L26 17L26 18L27 18L27 21L28 21L28 22L29 22L29 21L28 21L28 18L29 18L29 17L28 17L28 16L29 16L29 15L30 15L30 14L29 14L29 13L28 13L28 15L27 15L27 13L26 13L26 12L25 12L25 11L24 11L24 12L23 12L23 13L22 13L22 14L23 14L23 13L24 13L24 14L25 14L25 15L22 15L22 16L23 16L23 17L21 17L21 16L20 16L20 14L21 14L21 11L22 11L22 9L19 9L19 8L21 8L21 7L22 7L22 8L23 8L23 7L24 7L24 5L23 5L23 2ZM21 4L21 6L20 6L20 5L19 5L19 6L18 6L18 7L17 7L17 9L15 9L15 10L14 10L14 11L16 11L16 13L15 13L15 15L16 15L16 14L17 14L17 13L18 13L18 12L19 12L19 13L20 13L20 11L18 11L18 10L19 10L19 9L18 9L18 8L19 8L19 6L20 6L20 7L21 7L21 6L22 6L22 7L23 7L23 5L22 5L22 4ZM0 8L0 9L2 9L2 8ZM4 8L4 9L3 9L3 11L2 11L2 10L1 10L1 11L2 11L2 12L3 12L3 14L2 14L2 13L0 13L0 15L1 15L1 16L0 16L0 18L1 18L1 16L2 16L2 15L4 15L4 9L7 9L7 8ZM29 8L29 9L33 9L33 8ZM5 10L5 12L6 12L6 13L7 13L7 12L9 12L9 11L8 11L8 10ZM6 11L6 12L7 12L7 11ZM27 11L27 12L28 12L28 11ZM24 12L24 13L25 13L25 12ZM31 12L31 13L33 13L33 12ZM11 13L11 14L10 14L10 15L9 15L9 17L8 17L8 18L9 18L9 20L8 20L8 21L9 21L9 20L12 20L12 21L13 21L13 18L14 18L14 20L16 20L16 18L14 18L14 17L13 17L13 16L12 16L12 15L14 15L14 13L13 13L13 14L12 14L12 13ZM1 14L1 15L2 15L2 14ZM6 15L6 16L7 16L7 15ZM10 16L10 17L9 17L9 18L10 18L10 19L11 19L11 18L13 18L13 17L11 17L11 16ZM15 16L15 17L16 17L16 16ZM32 16L32 17L33 17L33 16ZM27 17L27 18L28 18L28 17ZM6 18L6 19L7 19L7 18ZM3 19L3 20L2 20L2 21L3 21L3 20L4 20L4 19ZM32 20L32 21L33 21L33 20ZM24 22L24 23L25 23L25 22ZM31 22L31 23L32 23L32 22ZM0 24L0 25L2 25L2 24ZM25 25L25 28L28 28L28 25ZM26 26L26 27L27 27L27 26ZM8 27L8 29L9 29L9 27ZM12 29L12 30L13 30L13 29ZM16 30L16 31L17 31L17 30ZM32 32L32 33L33 33L33 32ZM0 0L0 7L7 7L7 0ZM1 1L1 6L6 6L6 1ZM2 2L2 5L5 5L5 2ZM26 0L26 7L33 7L33 0ZM27 1L27 6L32 6L32 1ZM28 2L28 5L31 5L31 2ZM0 26L0 33L7 33L7 26ZM1 27L1 32L6 32L6 27ZM2 28L2 31L5 31L5 28Z" fill="#000000"/></g></g></svg>
