<?xml version="1.0" encoding="UTF-8"?>
<svg xmlns="http://www.w3.org/2000/svg" version="1.1" width="100" height="100" viewBox="0 0 100 100"><rect x="0" y="0" width="100" height="100" fill="#ffffff"/><g transform="scale(2.703)"><g transform="translate(0,0)"><path fill-rule="evenodd" d="M10 0L10 1L8 1L8 2L9 2L9 3L8 3L8 4L9 4L9 5L8 5L8 7L9 7L9 8L6 8L6 9L5 9L5 8L0 8L0 10L2 10L2 11L1 11L1 12L2 12L2 13L1 13L1 14L0 14L0 16L1 16L1 15L3 15L3 14L2 14L2 13L3 13L3 12L2 12L2 11L4 11L4 12L5 12L5 13L8 13L8 11L11 11L11 10L14 10L14 9L15 9L15 11L14 11L14 12L13 12L13 11L12 11L12 13L16 13L16 14L13 14L13 15L12 15L12 16L11 16L11 17L13 17L13 19L14 19L14 20L11 20L11 18L10 18L10 17L9 17L9 18L8 18L8 17L7 17L7 16L6 16L6 15L8 15L8 14L6 14L6 15L5 15L5 14L4 14L4 15L5 15L5 16L4 16L4 19L5 19L5 16L6 16L6 17L7 17L7 18L6 18L6 19L7 19L7 18L8 18L8 19L10 19L10 20L4 20L4 23L3 23L3 18L2 18L2 17L3 17L3 16L2 16L2 17L1 17L1 19L0 19L0 20L1 20L1 21L0 21L0 23L3 23L3 24L4 24L4 25L2 25L2 26L4 26L4 27L3 27L3 28L2 28L2 29L5 29L5 28L6 28L6 29L7 29L7 28L8 28L8 31L9 31L9 32L8 32L8 37L10 37L10 36L9 36L9 34L10 34L10 35L11 35L11 37L13 37L13 35L11 35L11 34L13 34L13 33L14 33L14 34L15 34L15 35L19 35L19 34L21 34L21 33L23 33L23 34L24 34L24 33L26 33L26 35L27 35L27 36L25 36L25 35L24 35L24 37L27 37L27 36L30 36L30 37L32 37L32 34L33 34L33 33L34 33L34 34L35 34L35 35L36 35L36 36L33 36L33 37L37 37L37 34L35 34L35 32L33 32L33 31L34 31L34 30L35 30L35 31L37 31L37 30L35 30L35 28L33 28L33 26L34 26L34 25L35 25L35 27L36 27L36 28L37 28L37 26L36 26L36 25L37 25L37 22L36 22L36 21L37 21L37 18L36 18L36 17L37 17L37 14L36 14L36 13L35 13L35 12L34 12L34 11L35 11L35 9L36 9L36 8L35 8L35 9L34 9L34 8L33 8L33 9L34 9L34 11L33 11L33 10L32 10L32 8L31 8L31 10L30 10L30 8L25 8L25 6L26 6L26 7L27 7L27 6L28 6L28 7L29 7L29 6L28 6L28 5L29 5L29 4L28 4L28 3L29 3L29 2L28 2L28 1L29 1L29 0L28 0L28 1L26 1L26 3L24 3L24 4L21 4L21 3L23 3L23 2L22 2L22 1L24 1L24 2L25 2L25 0L16 0L16 1L15 1L15 0L13 0L13 1L15 1L15 2L16 2L16 1L20 1L20 7L19 7L19 5L18 5L18 4L16 4L16 3L14 3L14 4L13 4L13 2L10 2L10 1L11 1L11 0ZM9 3L9 4L11 4L11 7L10 7L10 5L9 5L9 7L10 7L10 9L9 9L9 10L11 10L11 9L14 9L14 6L13 6L13 8L11 8L11 7L12 7L12 5L13 5L13 4L12 4L12 3ZM14 4L14 5L15 5L15 4ZM25 4L25 5L22 5L22 6L21 6L21 7L20 7L20 8L19 8L19 9L17 9L17 10L16 10L16 11L15 11L15 12L21 12L21 9L22 9L22 10L23 10L23 11L22 11L22 12L23 12L23 13L21 13L21 14L20 14L20 13L17 13L17 14L19 14L19 15L17 15L17 16L15 16L15 15L13 15L13 16L14 16L14 18L15 18L15 17L19 17L19 19L18 19L18 18L17 18L17 20L18 20L18 21L15 21L15 20L14 20L14 21L12 21L12 22L11 22L11 20L10 20L10 21L5 21L5 24L8 24L8 23L9 23L9 24L10 24L10 25L12 25L12 26L11 26L11 27L10 27L10 28L9 28L9 25L6 25L6 26L8 26L8 28L9 28L9 30L11 30L11 31L10 31L10 32L11 32L11 33L10 33L10 34L11 34L11 33L13 33L13 32L14 32L14 33L16 33L16 32L17 32L17 34L18 34L18 33L19 33L19 31L20 31L20 33L21 33L21 31L20 31L20 30L21 30L21 29L22 29L22 30L23 30L23 31L24 31L24 30L25 30L25 29L24 29L24 30L23 30L23 29L22 29L22 28L21 28L21 29L20 29L20 27L21 27L21 26L20 26L20 25L24 25L24 26L22 26L22 27L23 27L23 28L26 28L26 29L27 29L27 28L29 28L29 26L30 26L30 28L31 28L31 27L32 27L32 26L33 26L33 25L32 25L32 26L31 26L31 25L30 25L30 23L29 23L29 22L28 22L28 21L29 21L29 20L28 20L28 21L27 21L27 20L26 20L26 19L25 19L25 18L29 18L29 19L30 19L30 20L31 20L31 21L30 21L30 22L31 22L31 23L32 23L32 24L36 24L36 23L35 23L35 21L32 21L32 20L31 20L31 19L30 19L30 18L31 18L31 17L30 17L30 18L29 18L29 16L27 16L27 15L24 15L24 14L23 14L23 13L25 13L25 12L26 12L26 11L27 11L27 13L26 13L26 14L28 14L28 13L29 13L29 14L31 14L31 16L35 16L35 17L36 17L36 14L35 14L35 15L34 15L34 13L32 13L32 12L31 12L31 13L29 13L29 12L30 12L30 11L29 11L29 12L28 12L28 11L27 11L27 10L28 10L28 9L26 9L26 10L25 10L25 8L24 8L24 6L25 6L25 5L26 5L26 6L27 6L27 5L28 5L28 4L27 4L27 5L26 5L26 4ZM16 5L16 6L15 6L15 7L16 7L16 8L18 8L18 5ZM16 6L16 7L17 7L17 6ZM22 6L22 7L21 7L21 8L20 8L20 9L19 9L19 10L20 10L20 9L21 9L21 8L22 8L22 7L23 7L23 6ZM23 8L23 10L24 10L24 11L23 11L23 12L25 12L25 10L24 10L24 8ZM2 9L2 10L3 10L3 9ZM4 9L4 11L5 11L5 12L7 12L7 11L8 11L8 10L7 10L7 9L6 9L6 10L7 10L7 11L5 11L5 9ZM31 10L31 11L32 11L32 10ZM36 10L36 11L37 11L37 10ZM10 12L10 13L9 13L9 14L11 14L11 12ZM22 14L22 15L21 15L21 17L20 17L20 15L19 15L19 17L20 17L20 18L25 18L25 17L27 17L27 16L24 16L24 17L23 17L23 14ZM32 14L32 15L33 15L33 14ZM32 17L32 18L33 18L33 20L36 20L36 19L35 19L35 18L34 18L34 17ZM1 19L1 20L2 20L2 19ZM19 19L19 21L18 21L18 22L17 22L17 23L18 23L18 22L20 22L20 20L21 20L21 21L23 21L23 22L22 22L22 23L20 23L20 24L23 24L23 22L25 22L25 23L26 23L26 24L24 24L24 25L26 25L26 26L24 26L24 27L26 27L26 28L27 28L27 27L28 27L28 26L29 26L29 25L28 25L28 26L27 26L27 25L26 25L26 24L29 24L29 23L28 23L28 22L26 22L26 20L25 20L25 21L24 21L24 20L23 20L23 19ZM14 21L14 22L13 22L13 23L12 23L12 25L13 25L13 23L15 23L15 24L14 24L14 26L15 26L15 27L18 27L18 26L19 26L19 25L17 25L17 24L16 24L16 22L15 22L15 21ZM31 21L31 22L32 22L32 21ZM6 22L6 23L8 23L8 22ZM10 22L10 23L11 23L11 22ZM0 24L0 29L1 29L1 24ZM4 25L4 26L5 26L5 25ZM15 25L15 26L17 26L17 25ZM26 26L26 27L27 27L27 26ZM4 27L4 28L5 28L5 27ZM6 27L6 28L7 28L7 27ZM12 27L12 29L14 29L14 31L15 31L15 32L16 32L16 30L17 30L17 31L18 31L18 30L20 30L20 29L18 29L18 30L17 30L17 29L14 29L14 28L13 28L13 27ZM29 29L29 32L32 32L32 29ZM33 29L33 30L34 30L34 29ZM27 30L27 32L28 32L28 30ZM30 30L30 31L31 31L31 30ZM12 31L12 32L13 32L13 31ZM25 31L25 32L26 32L26 31ZM23 32L23 33L24 33L24 32ZM27 33L27 34L28 34L28 35L29 35L29 33ZM31 33L31 34L30 34L30 35L31 35L31 34L32 34L32 33ZM21 35L21 37L23 37L23 36L22 36L22 35ZM14 36L14 37L15 37L15 36ZM19 36L19 37L20 37L20 36ZM0 0L0 7L7 7L7 0ZM1 1L1 6L6 6L6 1ZM2 2L2 5L5 5L5 2ZM30 0L30 7L37 7L37 0ZM31 1L31 6L36 6L36 1ZM32 2L32 5L35 5L35 2ZM0 30L0 37L7 37L7 30ZM1 31L1 36L6 36L6 31ZM2 32L2 35L5 35L5 32Z" fill="#000000"/></g></g></svg>
