<?xml version="1.0" encoding="UTF-8"?>
<svg xmlns="http://www.w3.org/2000/svg" version="1.1" width="100" height="100" viewBox="0 0 100 100"><rect x="0" y="0" width="100" height="100" fill="#ffffff"/><g transform="scale(3.03)"><g transform="translate(0,0)"><path fill-rule="evenodd" d="M9 0L9 1L8 1L8 2L9 2L9 3L8 3L8 4L10 4L10 7L11 7L11 4L12 4L12 5L14 5L14 8L13 8L13 6L12 6L12 9L14 9L14 10L15 10L15 11L14 11L14 12L17 12L17 13L16 13L16 14L14 14L14 13L12 13L12 11L13 11L13 10L11 10L11 11L10 11L10 9L11 9L11 8L6 8L6 9L8 9L8 10L5 10L5 8L0 8L0 9L1 9L1 11L0 11L0 13L1 13L1 15L3 15L3 16L1 16L1 17L0 17L0 18L1 18L1 19L2 19L2 20L0 20L0 25L1 25L1 22L3 22L3 23L2 23L2 25L3 25L3 24L5 24L5 23L7 23L7 22L9 22L9 23L10 23L10 24L9 24L9 25L8 25L8 24L6 24L6 25L8 25L8 27L9 27L9 28L8 28L8 33L9 33L9 31L10 31L10 32L11 32L11 31L10 31L10 30L11 30L11 29L12 29L12 30L13 30L13 31L12 31L12 33L13 33L13 32L14 32L14 33L16 33L16 32L17 32L17 33L18 33L18 32L17 32L17 30L15 30L15 29L12 29L12 27L13 27L13 26L10 26L10 24L11 24L11 23L10 23L10 19L11 19L11 21L12 21L12 22L13 22L13 23L12 23L12 25L13 25L13 24L14 24L14 25L16 25L16 26L15 26L15 27L14 27L14 28L15 28L15 27L16 27L16 28L17 28L17 29L18 29L18 28L19 28L19 30L20 30L20 31L19 31L19 32L20 32L20 33L21 33L21 32L23 32L23 33L26 33L26 31L27 31L27 32L28 32L28 33L29 33L29 32L31 32L31 33L32 33L32 32L31 32L31 30L33 30L33 27L32 27L32 26L33 26L33 24L32 24L32 26L31 26L31 25L29 25L29 24L31 24L31 23L32 23L32 22L33 22L33 21L32 21L32 20L31 20L31 19L32 19L32 18L33 18L33 17L32 17L32 16L31 16L31 15L32 15L32 14L33 14L33 13L31 13L31 15L30 15L30 13L29 13L29 12L28 12L28 13L29 13L29 14L27 14L27 13L26 13L26 12L27 12L27 11L28 11L28 10L27 10L27 9L28 9L28 8L27 8L27 9L26 9L26 8L25 8L25 6L24 6L24 7L23 7L23 5L24 5L24 4L23 4L23 2L22 2L22 0L19 0L19 1L17 1L17 0L16 0L16 1L14 1L14 2L15 2L15 3L16 3L16 2L18 2L18 3L17 3L17 4L14 4L14 3L13 3L13 4L12 4L12 2L13 2L13 1L11 1L11 2L10 2L10 0ZM23 0L23 1L24 1L24 2L25 2L25 1L24 1L24 0ZM19 1L19 2L20 2L20 1ZM10 3L10 4L11 4L11 3ZM18 3L18 4L17 4L17 8L16 8L16 9L15 9L15 8L14 8L14 9L15 9L15 10L16 10L16 11L17 11L17 12L18 12L18 13L17 13L17 14L16 14L16 15L14 15L14 16L13 16L13 17L12 17L12 15L13 15L13 14L12 14L12 13L11 13L11 12L10 12L10 13L8 13L8 12L7 12L7 11L5 11L5 10L4 10L4 9L2 9L2 10L4 10L4 11L3 11L3 12L4 12L4 11L5 11L5 14L4 14L4 13L3 13L3 14L4 14L4 16L3 16L3 17L2 17L2 19L3 19L3 17L4 17L4 18L7 18L7 17L5 17L5 15L6 15L6 16L7 16L7 15L8 15L8 14L9 14L9 16L8 16L8 18L10 18L10 17L11 17L11 18L13 18L13 19L12 19L12 21L15 21L15 22L16 22L16 23L17 23L17 24L18 24L18 25L17 25L17 26L19 26L19 27L20 27L20 26L19 26L19 25L20 25L20 23L21 23L21 22L19 22L19 21L22 21L22 20L23 20L23 19L24 19L24 20L26 20L26 21L27 21L27 22L26 22L26 23L24 23L24 22L23 22L23 23L22 23L22 24L21 24L21 25L22 25L22 24L23 24L23 25L24 25L24 24L28 24L28 23L29 23L29 21L30 21L30 22L31 22L31 20L29 20L29 17L30 17L30 19L31 19L31 16L30 16L30 15L29 15L29 17L27 17L27 16L28 16L28 15L27 15L27 14L25 14L25 13L24 13L24 12L25 12L25 10L26 10L26 9L25 9L25 8L23 8L23 9L24 9L24 10L18 10L18 9L22 9L22 8L20 8L20 4L22 4L22 3L20 3L20 4L19 4L19 3ZM18 4L18 5L19 5L19 4ZM8 5L8 7L9 7L9 5ZM15 6L15 7L16 7L16 6ZM18 6L18 8L17 8L17 9L16 9L16 10L17 10L17 9L18 9L18 8L19 8L19 6ZM21 6L21 7L22 7L22 6ZM29 8L29 9L30 9L30 8ZM31 8L31 10L33 10L33 9L32 9L32 8ZM8 10L8 11L9 11L9 10ZM1 11L1 12L2 12L2 11ZM20 11L20 12L19 12L19 14L17 14L17 15L18 15L18 16L17 16L17 17L16 17L16 16L14 16L14 17L16 17L16 18L15 18L15 19L14 19L14 20L15 20L15 21L16 21L16 22L17 22L17 21L18 21L18 20L17 20L17 21L16 21L16 19L17 19L17 18L18 18L18 17L19 17L19 18L20 18L20 19L21 19L21 20L22 20L22 19L23 19L23 18L24 18L24 17L23 17L23 16L25 16L25 14L24 14L24 13L23 13L23 12L22 12L22 11ZM30 11L30 12L31 12L31 11ZM6 12L6 13L7 13L7 14L6 14L6 15L7 15L7 14L8 14L8 13L7 13L7 12ZM20 12L20 13L22 13L22 15L24 15L24 14L23 14L23 13L22 13L22 12ZM10 13L10 14L11 14L11 13ZM19 14L19 15L20 15L20 16L19 16L19 17L21 17L21 19L22 19L22 18L23 18L23 17L22 17L22 16L21 16L21 14ZM10 15L10 16L11 16L11 15ZM26 15L26 16L27 16L27 15ZM26 17L26 18L25 18L25 19L26 19L26 20L27 20L27 21L29 21L29 20L27 20L27 17ZM6 19L6 20L4 20L4 21L3 21L3 20L2 20L2 21L3 21L3 22L4 22L4 21L5 21L5 22L7 22L7 21L8 21L8 20L7 20L7 19ZM6 20L6 21L7 21L7 20ZM14 23L14 24L15 24L15 23ZM18 23L18 24L19 24L19 23ZM25 25L25 28L28 28L28 25ZM9 26L9 27L10 27L10 28L11 28L11 27L10 27L10 26ZM21 26L21 27L23 27L23 26ZM26 26L26 27L27 27L27 26ZM17 27L17 28L18 28L18 27ZM31 27L31 28L29 28L29 30L27 30L27 29L26 29L26 30L25 30L25 29L24 29L24 28L20 28L20 30L21 30L21 31L20 31L20 32L21 32L21 31L22 31L22 30L23 30L23 31L24 31L24 32L25 32L25 31L26 31L26 30L27 30L27 31L28 31L28 32L29 32L29 30L30 30L30 29L31 29L31 28L32 28L32 27ZM23 29L23 30L24 30L24 31L25 31L25 30L24 30L24 29ZM14 31L14 32L15 32L15 31ZM0 0L0 7L7 7L7 0ZM1 1L1 6L6 6L6 1ZM2 2L2 5L5 5L5 2ZM26 0L26 7L33 7L33 0ZM27 1L27 6L32 6L32 1ZM28 2L28 5L31 5L31 2ZM0 26L0 33L7 33L7 26ZM1 27L1 32L6 32L6 27ZM2 28L2 31L5 31L5 28Z" fill="#000000"/></g></g></svg>
