<?xml version="1.0" encoding="UTF-8"?>
<svg xmlns="http://www.w3.org/2000/svg" version="1.1" width="100" height="100" viewBox="0 0 100 100"><rect x="0" y="0" width="100" height="100" fill="#ffffff"/><g transform="scale(2.703)"><g transform="translate(0,0)"><path fill-rule="evenodd" d="M8 0L8 1L11 1L11 3L10 3L10 2L9 2L9 3L10 3L10 5L9 5L9 6L8 6L8 8L9 8L9 9L10 9L10 10L8 10L8 9L7 9L7 8L6 8L6 9L7 9L7 10L5 10L5 8L3 8L3 9L4 9L4 10L2 10L2 11L1 11L1 10L0 10L0 12L1 12L1 13L2 13L2 15L3 15L3 14L4 14L4 13L7 13L7 12L4 12L4 10L5 10L5 11L10 11L10 12L9 12L9 13L11 13L11 14L10 14L10 16L6 16L6 17L7 17L7 18L6 18L6 19L7 19L7 18L8 18L8 19L9 19L9 21L8 21L8 23L7 23L7 22L6 22L6 21L7 21L7 20L6 20L6 21L3 21L3 22L2 22L2 20L5 20L5 19L2 19L2 18L4 18L4 17L2 17L2 16L1 16L1 17L2 17L2 18L1 18L1 22L0 22L0 29L1 29L1 27L3 27L3 26L1 26L1 25L3 25L3 24L4 24L4 26L5 26L5 27L4 27L4 29L5 29L5 28L6 28L6 29L7 29L7 28L6 28L6 27L8 27L8 28L9 28L9 25L8 25L8 23L9 23L9 22L10 22L10 19L11 19L11 20L12 20L12 21L11 21L11 23L10 23L10 26L12 26L12 27L10 27L10 29L11 29L11 28L12 28L12 29L14 29L14 30L11 30L11 32L10 32L10 31L9 31L9 32L8 32L8 34L9 34L9 35L8 35L8 37L11 37L11 36L9 36L9 35L13 35L13 34L12 34L12 33L15 33L15 35L14 35L14 36L12 36L12 37L14 37L14 36L15 36L15 37L16 37L16 36L15 36L15 35L17 35L17 37L18 37L18 36L19 36L19 37L20 37L20 36L19 36L19 34L18 34L18 35L17 35L17 33L16 33L16 29L15 29L15 27L16 27L16 26L18 26L18 29L17 29L17 30L18 30L18 31L20 31L20 29L19 29L19 28L21 28L21 29L24 29L24 30L22 30L22 32L23 32L23 37L25 37L25 36L24 36L24 34L28 34L28 35L29 35L29 36L28 36L28 37L31 37L31 36L32 36L32 37L34 37L34 36L36 36L36 37L37 37L37 34L36 34L36 35L33 35L33 34L34 34L34 31L35 31L35 33L37 33L37 32L36 32L36 31L37 31L37 30L36 30L36 28L37 28L37 26L36 26L36 25L37 25L37 22L36 22L36 21L37 21L37 18L36 18L36 20L35 20L35 21L34 21L34 19L35 19L35 18L34 18L34 17L37 17L37 14L36 14L36 11L37 11L37 10L34 10L34 9L31 9L31 8L30 8L30 9L29 9L29 8L27 8L27 9L23 9L23 10L20 10L20 12L19 12L19 18L18 18L18 16L17 16L17 12L18 12L18 11L19 11L19 10L17 10L17 12L16 12L16 9L20 9L20 8L21 8L21 9L22 9L22 8L23 8L23 6L24 6L24 8L26 8L26 7L27 7L27 6L26 6L26 5L25 5L25 4L26 4L26 1L27 1L27 0L26 0L26 1L25 1L25 0L24 0L24 2L25 2L25 3L24 3L24 5L22 5L22 4L21 4L21 5L20 5L20 7L19 7L19 6L18 6L18 7L19 7L19 8L16 8L16 7L17 7L17 5L19 5L19 4L18 4L18 3L19 3L19 2L20 2L20 3L22 3L22 2L23 2L23 0L22 0L22 1L21 1L21 2L20 2L20 0L17 0L17 1L16 1L16 3L15 3L15 4L16 4L16 7L15 7L15 6L14 6L14 2L15 2L15 1L14 1L14 2L13 2L13 1L12 1L12 0ZM28 1L28 2L27 2L27 4L28 4L28 5L29 5L29 1ZM12 2L12 3L13 3L13 2ZM17 2L17 3L18 3L18 2ZM10 5L10 6L9 6L9 7L10 7L10 9L12 9L12 10L13 10L13 11L12 11L12 12L13 12L13 13L12 13L12 14L11 14L11 16L10 16L10 17L8 17L8 18L9 18L9 19L10 19L10 18L12 18L12 19L13 19L13 18L12 18L12 17L13 17L13 16L14 16L14 18L16 18L16 19L15 19L15 20L16 20L16 24L17 24L17 25L18 25L18 26L22 26L22 27L21 27L21 28L26 28L26 29L25 29L25 30L24 30L24 31L23 31L23 32L24 32L24 33L26 33L26 32L25 32L25 31L26 31L26 30L27 30L27 31L28 31L28 30L27 30L27 26L26 26L26 27L24 27L24 26L22 26L22 25L23 25L23 24L24 24L24 25L28 25L28 27L29 27L29 26L30 26L30 28L31 28L31 26L32 26L32 25L33 25L33 27L32 27L32 28L33 28L33 27L34 27L34 26L35 26L35 25L36 25L36 24L34 24L34 25L33 25L33 23L36 23L36 22L33 22L33 23L32 23L32 22L31 22L31 21L30 21L30 22L29 22L29 21L28 21L28 22L29 22L29 23L27 23L27 21L26 21L26 20L28 20L28 19L27 19L27 18L24 18L24 17L23 17L23 18L24 18L24 19L23 19L23 20L24 20L24 22L25 22L25 24L24 24L24 23L23 23L23 24L22 24L22 22L23 22L23 21L22 21L22 18L21 18L21 17L20 17L20 18L21 18L21 19L20 19L20 22L19 22L19 19L18 19L18 18L17 18L17 17L15 17L15 15L13 15L13 13L14 13L14 14L15 14L15 8L12 8L12 6L13 6L13 7L14 7L14 6L13 6L13 5L12 5L12 6L11 6L11 5ZM21 5L21 8L22 8L22 5ZM10 6L10 7L11 7L11 6ZM25 6L25 7L26 7L26 6ZM28 6L28 7L29 7L29 6ZM0 8L0 9L2 9L2 8ZM36 8L36 9L37 9L37 8ZM28 9L28 11L27 11L27 10L26 10L26 11L25 11L25 10L24 10L24 11L25 11L25 12L24 12L24 13L26 13L26 14L25 14L25 15L24 15L24 14L23 14L23 12L22 12L22 11L21 11L21 13L20 13L20 16L22 16L22 15L23 15L23 16L28 16L28 18L31 18L31 19L30 19L30 20L33 20L33 19L34 19L34 18L33 18L33 16L32 16L32 15L31 15L31 16L32 16L32 18L31 18L31 17L30 17L30 16L29 16L29 14L31 14L31 13L30 13L30 12L29 12L29 11L30 11L30 10L31 10L31 11L33 11L33 12L32 12L32 13L33 13L33 12L34 12L34 13L35 13L35 12L34 12L34 10L31 10L31 9L30 9L30 10L29 10L29 9ZM10 10L10 11L11 11L11 10ZM26 11L26 13L27 13L27 15L28 15L28 14L29 14L29 13L28 13L28 12L27 12L27 11ZM2 12L2 13L3 13L3 12ZM21 13L21 15L22 15L22 13ZM0 14L0 15L1 15L1 14ZM6 14L6 15L7 15L7 14ZM33 14L33 15L35 15L35 16L36 16L36 14ZM4 15L4 16L5 16L5 15ZM12 15L12 16L11 16L11 17L12 17L12 16L13 16L13 15ZM16 19L16 20L17 20L17 21L18 21L18 20L17 20L17 19ZM24 19L24 20L26 20L26 19ZM12 21L12 22L13 22L13 24L12 24L12 26L14 26L14 27L12 27L12 28L14 28L14 27L15 27L15 26L16 26L16 25L15 25L15 23L14 23L14 22L15 22L15 21L14 21L14 22L13 22L13 21ZM1 22L1 24L2 24L2 22ZM3 22L3 23L5 23L5 24L7 24L7 23L6 23L6 22ZM17 22L17 24L19 24L19 22ZM20 22L20 23L21 23L21 22ZM30 22L30 23L29 23L29 24L28 24L28 25L31 25L31 24L32 24L32 23L31 23L31 22ZM20 24L20 25L22 25L22 24ZM5 25L5 26L7 26L7 25ZM14 25L14 26L15 26L15 25ZM35 27L35 28L36 28L36 27ZM2 28L2 29L3 29L3 28ZM8 29L8 30L9 30L9 29ZM18 29L18 30L19 30L19 29ZM29 29L29 32L32 32L32 29ZM34 29L34 30L35 30L35 31L36 31L36 30L35 30L35 29ZM14 30L14 31L15 31L15 30ZM30 30L30 31L31 31L31 30ZM11 32L11 33L9 33L9 34L11 34L11 33L12 33L12 32ZM19 32L19 33L20 33L20 32ZM21 33L21 35L22 35L22 33ZM28 33L28 34L29 34L29 35L31 35L31 34L33 34L33 33L31 33L31 34L29 34L29 33ZM32 35L32 36L33 36L33 35ZM0 0L0 7L7 7L7 0ZM1 1L1 6L6 6L6 1ZM2 2L2 5L5 5L5 2ZM30 0L30 7L37 7L37 0ZM31 1L31 6L36 6L36 1ZM32 2L32 5L35 5L35 2ZM0 30L0 37L7 37L7 30ZM1 31L1 36L6 36L6 31ZM2 32L2 35L5 35L5 32Z" fill="#000000"/></g></g></svg>
