<?xml version="1.0" encoding="UTF-8"?>
<svg xmlns="http://www.w3.org/2000/svg" version="1.1" width="100" height="100" viewBox="0 0 100 100"><rect x="0" y="0" width="100" height="100" fill="#ffffff"/><g transform="scale(2.703)"><g transform="translate(0,0)"><path fill-rule="evenodd" d="M9 0L9 1L8 1L8 2L9 2L9 3L8 3L8 4L9 4L9 3L10 3L10 5L8 5L8 7L9 7L9 8L6 8L6 9L7 9L7 10L5 10L5 8L0 8L0 9L2 9L2 10L3 10L3 11L4 11L4 12L5 12L5 11L7 11L7 12L6 12L6 13L4 13L4 14L6 14L6 15L5 15L5 17L7 17L7 18L4 18L4 19L2 19L2 20L3 20L3 21L2 21L2 22L1 22L1 20L0 20L0 22L1 22L1 23L0 23L0 24L2 24L2 22L4 22L4 23L5 23L5 22L4 22L4 21L5 21L5 20L4 20L4 19L8 19L8 23L7 23L7 22L6 22L6 23L7 23L7 24L6 24L6 25L5 25L5 26L4 26L4 27L3 27L3 26L2 26L2 28L3 28L3 29L4 29L4 28L5 28L5 29L8 29L8 31L9 31L9 32L8 32L8 37L9 37L9 34L10 34L10 36L11 36L11 37L13 37L13 35L14 35L14 37L15 37L15 36L16 36L16 35L17 35L17 34L12 34L12 36L11 36L11 34L10 34L10 33L11 33L11 32L10 32L10 31L9 31L9 29L8 29L8 28L9 28L9 27L10 27L10 26L9 26L9 27L8 27L8 25L9 25L9 24L10 24L10 23L9 23L9 22L10 22L10 21L9 21L9 19L8 19L8 18L9 18L9 16L10 16L10 17L11 17L11 18L10 18L10 19L11 19L11 20L12 20L12 19L13 19L13 18L14 18L14 21L15 21L15 22L14 22L14 23L15 23L15 24L13 24L13 25L11 25L11 26L13 26L13 27L12 27L12 28L13 28L13 27L14 27L14 30L15 30L15 31L14 31L14 33L19 33L19 34L24 34L24 33L26 33L26 35L27 35L27 36L25 36L25 35L24 35L24 37L27 37L27 36L30 36L30 37L32 37L32 34L33 34L33 33L34 33L34 34L35 34L35 35L36 35L36 36L33 36L33 37L37 37L37 34L35 34L35 32L33 32L33 31L34 31L34 30L35 30L35 31L37 31L37 30L35 30L35 28L33 28L33 26L34 26L34 25L35 25L35 27L36 27L36 28L37 28L37 26L36 26L36 25L37 25L37 22L36 22L36 21L37 21L37 18L36 18L36 17L37 17L37 14L36 14L36 13L35 13L35 12L34 12L34 11L35 11L35 9L36 9L36 8L35 8L35 9L34 9L34 8L33 8L33 9L34 9L34 11L33 11L33 10L32 10L32 8L31 8L31 10L30 10L30 8L25 8L25 6L26 6L26 7L27 7L27 6L28 6L28 7L29 7L29 6L28 6L28 5L29 5L29 4L28 4L28 3L29 3L29 2L28 2L28 1L29 1L29 0L28 0L28 1L26 1L26 3L24 3L24 4L20 4L20 7L19 7L19 6L18 6L18 8L20 8L20 10L21 10L21 12L22 12L22 13L20 13L20 12L19 12L19 11L18 11L18 10L19 10L19 9L18 9L18 10L17 10L17 9L16 9L16 8L12 8L12 7L13 7L13 6L12 6L12 7L11 7L11 6L10 6L10 5L12 5L12 4L11 4L11 3L13 3L13 2L11 2L11 1L12 1L12 0L11 0L11 1L10 1L10 0ZM13 0L13 1L14 1L14 0ZM15 0L15 2L14 2L14 4L15 4L15 3L17 3L17 1L19 1L19 0ZM20 0L20 1L21 1L21 3L23 3L23 2L22 2L22 1L24 1L24 2L25 2L25 0ZM10 2L10 3L11 3L11 2ZM19 2L19 3L20 3L20 2ZM16 4L16 5L14 5L14 7L15 7L15 6L16 6L16 7L17 7L17 6L16 6L16 5L19 5L19 4ZM25 4L25 5L22 5L22 6L21 6L21 7L22 7L22 8L21 8L21 9L22 9L22 10L23 10L23 11L22 11L22 12L23 12L23 13L25 13L25 12L26 12L26 11L27 11L27 13L26 13L26 14L28 14L28 13L29 13L29 14L31 14L31 16L35 16L35 17L36 17L36 14L35 14L35 15L34 15L34 13L32 13L32 12L31 12L31 13L29 13L29 12L30 12L30 11L29 11L29 12L28 12L28 11L27 11L27 10L28 10L28 9L26 9L26 10L25 10L25 8L24 8L24 6L25 6L25 5L26 5L26 6L27 6L27 5L28 5L28 4L27 4L27 5L26 5L26 4ZM9 6L9 7L10 7L10 6ZM22 6L22 7L23 7L23 6ZM10 8L10 9L8 9L8 10L7 10L7 11L9 11L9 12L11 12L11 11L12 11L12 12L14 12L14 13L11 13L11 15L10 15L10 16L11 16L11 17L14 17L14 18L15 18L15 17L17 17L17 16L18 16L18 17L19 17L19 18L16 18L16 19L15 19L15 21L17 21L17 20L18 20L18 19L20 19L20 17L21 17L21 19L22 19L22 20L20 20L20 21L21 21L21 23L23 23L23 25L22 25L22 26L23 26L23 27L22 27L22 28L21 28L21 26L19 26L19 25L20 25L20 22L19 22L19 21L18 21L18 22L17 22L17 24L15 24L15 25L13 25L13 26L15 26L15 25L17 25L17 27L16 27L16 28L17 28L17 30L16 30L16 31L15 31L15 32L16 32L16 31L17 31L17 32L19 32L19 31L21 31L21 30L22 30L22 31L24 31L24 30L25 30L25 29L24 29L24 30L22 30L22 28L26 28L26 29L27 29L27 28L29 28L29 26L30 26L30 28L31 28L31 27L32 27L32 26L33 26L33 25L32 25L32 26L31 26L31 25L30 25L30 23L29 23L29 22L28 22L28 21L29 21L29 20L28 20L28 21L27 21L27 20L26 20L26 19L25 19L25 18L29 18L29 19L30 19L30 20L31 20L31 21L30 21L30 22L31 22L31 23L32 23L32 24L36 24L36 23L35 23L35 21L32 21L32 20L31 20L31 19L30 19L30 18L31 18L31 17L30 17L30 18L29 18L29 16L27 16L27 15L24 15L24 14L21 14L21 15L23 15L23 17L24 17L24 16L27 16L27 17L25 17L25 18L22 18L22 17L21 17L21 16L19 16L19 15L20 15L20 13L15 13L15 12L16 12L16 11L15 11L15 10L16 10L16 9L15 9L15 10L14 10L14 9L12 9L12 8ZM23 8L23 10L24 10L24 11L23 11L23 12L25 12L25 10L24 10L24 8ZM9 10L9 11L10 11L10 10ZM13 10L13 11L14 11L14 10ZM31 10L31 11L32 11L32 10ZM36 10L36 11L37 11L37 10ZM1 11L1 12L0 12L0 15L1 15L1 16L2 16L2 18L3 18L3 16L2 16L2 15L1 15L1 12L2 12L2 13L3 13L3 12L2 12L2 11ZM17 11L17 12L18 12L18 11ZM7 12L7 13L6 13L6 14L7 14L7 15L6 15L6 16L7 16L7 15L8 15L8 16L9 16L9 13L8 13L8 12ZM14 13L14 14L15 14L15 16L14 16L14 17L15 17L15 16L17 16L17 15L19 15L19 14L17 14L17 15L16 15L16 14L15 14L15 13ZM32 14L32 15L33 15L33 14ZM12 15L12 16L13 16L13 15ZM32 17L32 18L33 18L33 20L36 20L36 19L35 19L35 18L34 18L34 17ZM11 18L11 19L12 19L12 18ZM16 19L16 20L17 20L17 19ZM6 20L6 21L7 21L7 20ZM22 20L22 21L23 21L23 22L25 22L25 23L26 23L26 24L24 24L24 25L23 25L23 26L24 26L24 27L26 27L26 28L27 28L27 27L28 27L28 26L29 26L29 25L28 25L28 26L27 26L27 25L26 25L26 24L29 24L29 23L28 23L28 22L26 22L26 20L25 20L25 21L24 21L24 20ZM11 21L11 22L12 22L12 21ZM31 21L31 22L32 22L32 21ZM18 22L18 24L17 24L17 25L18 25L18 24L19 24L19 22ZM8 23L8 24L7 24L7 25L6 25L6 26L7 26L7 25L8 25L8 24L9 24L9 23ZM3 24L3 25L4 25L4 24ZM0 25L0 29L1 29L1 25ZM24 25L24 26L26 26L26 27L27 27L27 26L26 26L26 25ZM6 27L6 28L7 28L7 27ZM19 27L19 30L21 30L21 28L20 28L20 27ZM10 28L10 29L11 29L11 30L13 30L13 29L11 29L11 28ZM29 29L29 32L32 32L32 29ZM33 29L33 30L34 30L34 29ZM27 30L27 32L28 32L28 30ZM30 30L30 31L31 31L31 30ZM25 31L25 32L26 32L26 31ZM20 32L20 33L21 33L21 32ZM23 32L23 33L24 33L24 32ZM27 33L27 34L28 34L28 35L29 35L29 33ZM31 33L31 34L30 34L30 35L31 35L31 34L32 34L32 33ZM19 35L19 37L20 37L20 36L23 36L23 35ZM17 36L17 37L18 37L18 36ZM0 0L0 7L7 7L7 0ZM1 1L1 6L6 6L6 1ZM2 2L2 5L5 5L5 2ZM30 0L30 7L37 7L37 0ZM31 1L31 6L36 6L36 1ZM32 2L32 5L35 5L35 2ZM0 30L0 37L7 37L7 30ZM1 31L1 36L6 36L6 31ZM2 32L2 35L5 35L5 32Z" fill="#000000"/></g></g></svg>
