<?xml version="1.0" encoding="UTF-8"?>
<svg xmlns="http://www.w3.org/2000/svg" version="1.1" width="100" height="100" viewBox="0 0 100 100"><rect x="0" y="0" width="100" height="100" fill="#ffffff"/><g transform="scale(2.703)"><g transform="translate(0,0)"><path fill-rule="evenodd" d="M9 0L9 1L8 1L8 2L9 2L9 3L8 3L8 4L10 4L10 7L11 7L11 4L12 4L12 5L13 5L13 6L12 6L12 8L6 8L6 9L8 9L8 10L5 10L5 11L3 11L3 10L2 10L2 9L5 9L5 8L0 8L0 11L1 11L1 12L0 12L0 13L1 13L1 14L3 14L3 12L4 12L4 13L5 13L5 11L7 11L7 12L6 12L6 13L7 13L7 14L4 14L4 15L5 15L5 16L4 16L4 17L3 17L3 15L1 15L1 16L0 16L0 17L2 17L2 18L4 18L4 19L5 19L5 21L4 21L4 20L3 20L3 19L1 19L1 20L0 20L0 22L1 22L1 23L0 23L0 24L2 24L2 23L3 23L3 25L4 25L4 23L5 23L5 24L6 24L6 25L5 25L5 29L7 29L7 28L6 28L6 27L8 27L8 28L9 28L9 29L8 29L8 31L9 31L9 32L8 32L8 37L11 37L11 36L9 36L9 34L10 34L10 32L12 32L12 31L13 31L13 30L12 30L12 29L11 29L11 30L12 30L12 31L10 31L10 26L12 26L12 28L13 28L13 29L14 29L14 30L15 30L15 32L16 32L16 34L15 34L15 33L14 33L14 32L13 32L13 33L14 33L14 34L13 34L13 35L12 35L12 37L19 37L19 36L20 36L20 37L21 37L21 36L22 36L22 34L21 34L21 36L20 36L20 35L18 35L18 34L20 34L20 33L23 33L23 34L26 34L26 35L27 35L27 36L24 36L24 37L27 37L27 36L29 36L29 35L30 35L30 37L32 37L32 34L33 34L33 33L34 33L34 34L35 34L35 35L36 35L36 36L33 36L33 37L37 37L37 34L35 34L35 33L37 33L37 32L36 32L36 31L37 31L37 30L35 30L35 28L33 28L33 26L34 26L34 25L35 25L35 27L36 27L36 28L37 28L37 26L36 26L36 25L37 25L37 22L36 22L36 21L37 21L37 18L36 18L36 17L37 17L37 14L36 14L36 13L35 13L35 12L34 12L34 11L35 11L35 9L36 9L36 8L35 8L35 9L34 9L34 8L33 8L33 9L34 9L34 11L33 11L33 10L32 10L32 8L31 8L31 10L30 10L30 8L29 8L29 9L28 9L28 7L29 7L29 4L28 4L28 5L27 5L27 3L28 3L28 2L29 2L29 0L28 0L28 1L26 1L26 0L25 0L25 1L24 1L24 0L23 0L23 1L22 1L22 2L21 2L21 3L19 3L19 5L18 5L18 7L19 7L19 5L20 5L20 9L18 9L18 8L17 8L17 9L16 9L16 7L17 7L17 5L14 5L14 4L17 4L17 3L15 3L15 2L18 2L18 1L19 1L19 0L16 0L16 1L14 1L14 0L13 0L13 1L11 1L11 2L10 2L10 0ZM20 0L20 1L21 1L21 0ZM23 1L23 2L22 2L22 3L23 3L23 4L24 4L24 3L27 3L27 2L26 2L26 1L25 1L25 2L24 2L24 1ZM12 2L12 3L13 3L13 4L14 4L14 2ZM10 3L10 4L11 4L11 3ZM20 4L20 5L22 5L22 6L21 6L21 7L22 7L22 6L23 6L23 9L25 9L25 8L26 8L26 10L28 10L28 11L29 11L29 12L30 12L30 11L29 11L29 10L28 10L28 9L27 9L27 8L26 8L26 6L27 6L27 7L28 7L28 6L27 6L27 5L26 5L26 4L25 4L25 5L26 5L26 6L25 6L25 8L24 8L24 5L22 5L22 4ZM8 5L8 7L9 7L9 5ZM13 6L13 8L12 8L12 10L11 10L11 9L10 9L10 11L9 11L9 10L8 10L8 11L9 11L9 12L8 12L8 14L9 14L9 15L6 15L6 16L7 16L7 17L6 17L6 18L5 18L5 19L6 19L6 20L7 20L7 21L6 21L6 22L5 22L5 23L6 23L6 24L7 24L7 25L6 25L6 26L7 26L7 25L8 25L8 24L9 24L9 26L8 26L8 27L9 27L9 26L10 26L10 25L12 25L12 26L13 26L13 28L14 28L14 29L15 29L15 28L16 28L16 27L17 27L17 28L19 28L19 29L18 29L18 30L17 30L17 31L16 31L16 32L19 32L19 33L20 33L20 32L21 32L21 31L22 31L22 32L24 32L24 33L25 33L25 32L28 32L28 29L25 29L25 30L23 30L23 29L24 29L24 28L26 28L26 27L27 27L27 28L29 28L29 27L27 27L27 26L30 26L30 28L31 28L31 27L32 27L32 26L33 26L33 25L32 25L32 26L31 26L31 25L30 25L30 23L29 23L29 24L27 24L27 23L26 23L26 21L25 21L25 20L26 20L26 19L25 19L25 18L22 18L22 16L21 16L21 18L19 18L19 19L18 19L18 17L20 17L20 16L19 16L19 15L20 15L20 13L21 13L21 12L20 12L20 10L21 10L21 11L22 11L22 12L23 12L23 13L22 13L22 14L23 14L23 17L24 17L24 16L26 16L26 17L27 17L27 18L28 18L28 19L30 19L30 20L31 20L31 21L30 21L30 22L31 22L31 23L32 23L32 24L36 24L36 23L35 23L35 21L32 21L32 20L31 20L31 19L30 19L30 18L31 18L31 17L30 17L30 18L28 18L28 17L29 17L29 16L28 16L28 17L27 17L27 16L26 16L26 15L27 15L27 14L28 14L28 13L27 13L27 12L26 12L26 11L25 11L25 10L21 10L21 9L20 9L20 10L19 10L19 11L18 11L18 9L17 9L17 12L16 12L16 11L15 11L15 10L16 10L16 9L15 9L15 7L16 7L16 6L15 6L15 7L14 7L14 6ZM13 8L13 9L14 9L14 10L12 10L12 12L13 12L13 13L14 13L14 16L12 16L12 17L11 17L11 15L9 15L9 16L8 16L8 17L7 17L7 18L6 18L6 19L7 19L7 20L9 20L9 21L7 21L7 22L6 22L6 23L7 23L7 24L8 24L8 23L9 23L9 24L11 24L11 22L12 22L12 23L13 23L13 22L14 22L14 24L12 24L12 25L14 25L14 26L15 26L15 27L16 27L16 26L17 26L17 27L18 27L18 26L19 26L19 25L16 25L16 24L15 24L15 23L16 23L16 22L17 22L17 23L18 23L18 22L19 22L19 21L16 21L16 22L14 22L14 21L15 21L15 19L16 19L16 20L17 20L17 17L18 17L18 16L17 16L17 17L15 17L15 16L16 16L16 14L17 14L17 13L18 13L18 12L17 12L17 13L15 13L15 12L13 12L13 11L14 11L14 10L15 10L15 9L14 9L14 8ZM1 10L1 11L2 11L2 12L3 12L3 11L2 11L2 10ZM31 10L31 11L32 11L32 10ZM36 10L36 11L37 11L37 10ZM24 11L24 12L25 12L25 13L23 13L23 14L24 14L24 15L26 15L26 14L27 14L27 13L26 13L26 12L25 12L25 11ZM31 12L31 13L29 13L29 14L31 14L31 16L35 16L35 17L36 17L36 14L35 14L35 15L34 15L34 13L32 13L32 12ZM25 13L25 14L26 14L26 13ZM32 14L32 15L33 15L33 14ZM9 17L9 18L7 18L7 19L9 19L9 20L10 20L10 19L11 19L11 20L12 20L12 21L13 21L13 20L14 20L14 19L15 19L15 18L14 18L14 17L12 17L12 18L11 18L11 17ZM32 17L32 18L33 18L33 20L36 20L36 19L35 19L35 18L34 18L34 17ZM12 18L12 20L13 20L13 19L14 19L14 18ZM21 18L21 19L19 19L19 20L21 20L21 21L20 21L20 23L21 23L21 25L20 25L20 27L19 27L19 28L20 28L20 31L19 31L19 30L18 30L18 31L19 31L19 32L20 32L20 31L21 31L21 28L22 28L22 27L23 27L23 26L24 26L24 27L25 27L25 25L27 25L27 24L25 24L25 22L24 22L24 20L25 20L25 19L24 19L24 20L22 20L22 18ZM1 20L1 22L3 22L3 23L4 23L4 22L3 22L3 20ZM28 20L28 21L27 21L27 22L28 22L28 21L29 21L29 20ZM10 21L10 22L11 22L11 21ZM21 21L21 22L22 22L22 24L23 24L23 25L22 25L22 26L21 26L21 27L22 27L22 26L23 26L23 25L25 25L25 24L23 24L23 23L24 23L24 22L23 22L23 21ZM31 21L31 22L32 22L32 21ZM7 22L7 23L8 23L8 22ZM0 25L0 29L1 29L1 26L2 26L2 25ZM3 27L3 28L2 28L2 29L4 29L4 27ZM29 29L29 32L32 32L32 29ZM33 29L33 30L34 30L34 31L33 31L33 32L35 32L35 30L34 30L34 29ZM22 30L22 31L23 31L23 30ZM25 30L25 31L26 31L26 30ZM30 30L30 31L31 31L31 30ZM26 33L26 34L27 34L27 35L28 35L28 33ZM31 33L31 34L30 34L30 35L31 35L31 34L32 34L32 33ZM14 34L14 35L13 35L13 36L15 36L15 34ZM16 35L16 36L18 36L18 35ZM0 0L0 7L7 7L7 0ZM1 1L1 6L6 6L6 1ZM2 2L2 5L5 5L5 2ZM30 0L30 7L37 7L37 0ZM31 1L31 6L36 6L36 1ZM32 2L32 5L35 5L35 2ZM0 30L0 37L7 37L7 30ZM1 31L1 36L6 36L6 31ZM2 32L2 35L5 35L5 32Z" fill="#000000"/></g></g></svg>
