<?xml version="1.0" encoding="UTF-8"?>
<svg xmlns="http://www.w3.org/2000/svg" version="1.1" width="100" height="100" viewBox="0 0 100 100"><rect x="0" y="0" width="100" height="100" fill="#ffffff"/><g transform="scale(3.03)"><g transform="translate(0,0)"><path fill-rule="evenodd" d="M8 0L8 1L9 1L9 2L8 2L8 5L9 5L9 4L11 4L11 3L12 3L12 2L13 2L13 5L12 5L12 7L11 7L11 5L10 5L10 10L9 10L9 12L8 12L8 11L7 11L7 10L6 10L6 11L7 11L7 12L5 12L5 11L4 11L4 8L0 8L0 12L1 12L1 10L3 10L3 11L2 11L2 13L1 13L1 14L0 14L0 15L2 15L2 16L1 16L1 17L0 17L0 20L5 20L5 21L2 21L2 22L5 22L5 21L7 21L7 22L6 22L6 23L7 23L7 22L8 22L8 24L5 24L5 23L1 23L1 24L0 24L0 25L1 25L1 24L2 24L2 25L3 25L3 24L5 24L5 25L8 25L8 26L9 26L9 23L10 23L10 21L11 21L11 23L12 23L12 24L11 24L11 25L12 25L12 26L13 26L13 25L14 25L14 27L15 27L15 26L16 26L16 27L18 27L18 30L19 30L19 28L20 28L20 27L21 27L21 29L20 29L20 31L21 31L21 29L23 29L23 30L24 30L24 32L23 32L23 33L24 33L24 32L27 32L27 33L28 33L28 32L27 32L27 30L26 30L26 31L25 31L25 29L31 29L31 30L29 30L29 31L32 31L32 32L33 32L33 31L32 31L32 29L31 29L31 28L33 28L33 27L30 27L30 26L29 26L29 24L30 24L30 23L29 23L29 24L28 24L28 22L27 22L27 21L24 21L24 20L25 20L25 19L27 19L27 20L28 20L28 19L27 19L27 18L29 18L29 19L30 19L30 18L31 18L31 19L32 19L32 20L33 20L33 19L32 19L32 18L33 18L33 16L31 16L31 14L32 14L32 13L30 13L30 14L29 14L29 15L28 15L28 17L27 17L27 15L26 15L26 12L28 12L28 13L27 13L27 14L28 14L28 13L29 13L29 11L31 11L31 12L32 12L32 11L33 11L33 8L32 8L32 9L31 9L31 8L28 8L28 9L31 9L31 10L29 10L29 11L26 11L26 10L27 10L27 9L26 9L26 8L25 8L25 6L24 6L24 7L23 7L23 6L22 6L22 4L23 4L23 3L22 3L22 4L21 4L21 5L20 5L20 3L21 3L21 2L24 2L24 5L25 5L25 1L24 1L24 0L23 0L23 1L22 1L22 0L19 0L19 1L17 1L17 0L16 0L16 2L19 2L19 1L20 1L20 3L19 3L19 4L18 4L18 5L17 5L17 4L16 4L16 3L15 3L15 5L14 5L14 2L15 2L15 0L14 0L14 1L13 1L13 0L12 0L12 1L9 1L9 0ZM15 5L15 7L14 7L14 6L13 6L13 10L12 10L12 11L11 11L11 13L9 13L9 14L8 14L8 17L6 17L6 16L7 16L7 15L4 15L4 13L5 13L5 12L4 12L4 13L3 13L3 15L4 15L4 16L2 16L2 17L5 17L5 19L6 19L6 20L7 20L7 21L8 21L8 22L9 22L9 19L10 19L10 18L11 18L11 19L13 19L13 20L11 20L11 21L12 21L12 23L15 23L15 24L14 24L14 25L17 25L17 24L18 24L18 23L20 23L20 22L19 22L19 20L20 20L20 21L21 21L21 20L22 20L22 21L23 21L23 20L24 20L24 19L25 19L25 18L23 18L23 20L22 20L22 19L21 19L21 20L20 20L20 17L21 17L21 18L22 18L22 17L21 17L21 16L20 16L20 15L19 15L19 16L18 16L18 14L19 14L19 13L20 13L20 14L21 14L21 15L22 15L22 14L23 14L23 15L24 15L24 12L26 12L26 11L23 11L23 10L22 10L22 11L20 11L20 10L18 10L18 11L17 11L17 10L16 10L16 5ZM8 6L8 7L9 7L9 6ZM17 6L17 7L18 7L18 6ZM19 6L19 8L20 8L20 9L21 9L21 8L22 8L22 9L24 9L24 10L26 10L26 9L24 9L24 8L22 8L22 6L21 6L21 8L20 8L20 6ZM6 8L6 9L7 9L7 8ZM8 8L8 9L9 9L9 8ZM14 8L14 10L15 10L15 8ZM31 10L31 11L32 11L32 10ZM12 11L12 16L13 16L13 17L12 17L12 18L14 18L14 19L16 19L16 22L17 22L17 21L18 21L18 20L19 20L19 19L17 19L17 18L19 18L19 17L17 17L17 18L15 18L15 17L16 17L16 16L17 16L17 15L16 15L16 16L15 16L15 17L14 17L14 16L13 16L13 13L15 13L15 14L18 14L18 12L19 12L19 11L18 11L18 12L17 12L17 11L15 11L15 12L14 12L14 11ZM22 11L22 13L21 13L21 12L20 12L20 13L21 13L21 14L22 14L22 13L23 13L23 11ZM7 12L7 13L6 13L6 14L7 14L7 13L8 13L8 12ZM9 14L9 15L10 15L10 17L11 17L11 15L10 15L10 14ZM25 15L25 16L24 16L24 17L26 17L26 15ZM29 15L29 16L30 16L30 15ZM8 17L8 19L7 19L7 18L6 18L6 19L7 19L7 20L8 20L8 19L9 19L9 17ZM31 17L31 18L32 18L32 17ZM1 18L1 19L3 19L3 18ZM14 20L14 21L15 21L15 20ZM30 20L30 21L29 21L29 22L30 22L30 21L31 21L31 24L32 24L32 25L33 25L33 24L32 24L32 23L33 23L33 21L31 21L31 20ZM0 21L0 22L1 22L1 21ZM22 22L22 23L21 23L21 25L20 25L20 24L19 24L19 25L18 25L18 26L19 26L19 25L20 25L20 26L21 26L21 25L23 25L23 26L22 26L22 27L23 27L23 26L24 26L24 23L25 23L25 22L24 22L24 23L23 23L23 22ZM26 23L26 24L27 24L27 23ZM25 25L25 28L28 28L28 25ZM10 26L10 27L9 27L9 29L8 29L8 33L11 33L11 32L12 32L12 31L11 31L11 30L14 30L14 33L15 33L15 31L17 31L17 32L16 32L16 33L20 33L20 32L18 32L18 31L17 31L17 30L16 30L16 29L14 29L14 28L13 28L13 27L11 27L11 26ZM26 26L26 27L27 27L27 26ZM10 28L10 29L9 29L9 31L10 31L10 32L11 32L11 31L10 31L10 29L11 29L11 28ZM12 28L12 29L13 29L13 28ZM21 32L21 33L22 33L22 32ZM30 32L30 33L31 33L31 32ZM0 0L0 7L7 7L7 0ZM1 1L1 6L6 6L6 1ZM2 2L2 5L5 5L5 2ZM26 0L26 7L33 7L33 0ZM27 1L27 6L32 6L32 1ZM28 2L28 5L31 5L31 2ZM0 26L0 33L7 33L7 26ZM1 27L1 32L6 32L6 27ZM2 28L2 31L5 31L5 28Z" fill="#000000"/></g></g></svg>
