<?xml version="1.0" encoding="UTF-8"?>
<svg xmlns="http://www.w3.org/2000/svg" version="1.1" width="100" height="100" viewBox="0 0 100 100"><rect x="0" y="0" width="100" height="100" fill="#ffffff"/><g transform="scale(2.703)"><g transform="translate(0,0)"><path fill-rule="evenodd" d="M9 0L9 1L8 1L8 2L9 2L9 3L8 3L8 4L9 4L9 5L8 5L8 7L9 7L9 8L6 8L6 9L5 9L5 8L0 8L0 9L1 9L1 10L2 10L2 11L0 11L0 17L1 17L1 18L0 18L0 19L1 19L1 20L2 20L2 21L0 21L0 22L2 22L2 24L1 24L1 25L0 25L0 29L1 29L1 25L2 25L2 27L3 27L3 29L5 29L5 28L6 28L6 29L8 29L8 31L9 31L9 29L11 29L11 30L10 30L10 31L11 31L11 30L12 30L12 31L13 31L13 30L15 30L15 31L16 31L16 32L15 32L15 33L14 33L14 32L13 32L13 34L15 34L15 35L16 35L16 34L17 34L17 35L18 35L18 36L16 36L16 37L18 37L18 36L22 36L22 37L23 37L23 35L22 35L22 34L24 34L24 33L26 33L26 35L27 35L27 36L25 36L25 35L24 35L24 37L27 37L27 36L30 36L30 37L32 37L32 34L33 34L33 33L34 33L34 34L35 34L35 35L36 35L36 36L33 36L33 37L37 37L37 34L35 34L35 32L33 32L33 31L34 31L34 30L35 30L35 31L37 31L37 30L35 30L35 28L33 28L33 26L34 26L34 25L35 25L35 27L36 27L36 28L37 28L37 26L36 26L36 25L37 25L37 22L36 22L36 21L37 21L37 18L36 18L36 17L37 17L37 14L36 14L36 13L35 13L35 12L34 12L34 11L35 11L35 9L36 9L36 8L35 8L35 9L34 9L34 8L33 8L33 9L34 9L34 11L33 11L33 10L32 10L32 8L31 8L31 10L30 10L30 8L25 8L25 6L26 6L26 7L27 7L27 6L28 6L28 7L29 7L29 6L28 6L28 5L29 5L29 4L28 4L28 3L29 3L29 2L28 2L28 1L29 1L29 0L28 0L28 1L26 1L26 3L24 3L24 4L21 4L21 3L23 3L23 2L22 2L22 1L24 1L24 2L25 2L25 0L18 0L18 1L17 1L17 0L16 0L16 1L15 1L15 0L14 0L14 3L13 3L13 2L12 2L12 3L13 3L13 4L14 4L14 5L15 5L15 6L14 6L14 9L17 9L17 10L18 10L18 11L19 11L19 10L18 10L18 9L17 9L17 8L15 8L15 6L16 6L16 7L17 7L17 6L18 6L18 8L19 8L19 9L20 9L20 10L21 10L21 12L22 12L22 11L23 11L23 12L25 12L25 13L20 13L20 12L19 12L19 13L20 13L20 15L21 15L21 16L20 16L20 19L21 19L21 20L20 20L20 22L21 22L21 20L22 20L22 21L23 21L23 22L25 22L25 23L26 23L26 24L24 24L24 25L23 25L23 24L22 24L22 23L19 23L19 22L18 22L18 24L17 24L17 23L16 23L16 22L17 22L17 21L16 21L16 20L17 20L17 16L15 16L15 17L14 17L14 16L12 16L12 17L13 17L13 18L15 18L15 19L14 19L14 20L12 20L12 19L11 19L11 21L9 21L9 20L10 20L10 18L11 18L11 16L10 16L10 17L8 17L8 18L6 18L6 17L7 17L7 16L9 16L9 15L7 15L7 14L8 14L8 12L10 12L10 13L9 13L9 14L10 14L10 13L11 13L11 14L12 14L12 13L11 13L11 12L12 12L12 11L13 11L13 9L11 9L11 10L12 10L12 11L11 11L11 12L10 12L10 11L7 11L7 10L6 10L6 9L9 9L9 10L10 10L10 8L12 8L12 7L13 7L13 5L12 5L12 4L11 4L11 3L10 3L10 2L9 2L9 1L10 1L10 0ZM16 1L16 3L14 3L14 4L15 4L15 5L17 5L17 4L16 4L16 3L18 3L18 5L19 5L19 7L20 7L20 9L22 9L22 10L23 10L23 11L24 11L24 10L25 10L25 12L26 12L26 11L27 11L27 13L26 13L26 14L28 14L28 13L29 13L29 14L31 14L31 16L35 16L35 17L36 17L36 14L35 14L35 15L34 15L34 13L32 13L32 12L31 12L31 13L29 13L29 12L30 12L30 11L29 11L29 12L28 12L28 11L27 11L27 10L28 10L28 9L26 9L26 10L25 10L25 8L24 8L24 6L25 6L25 5L26 5L26 6L27 6L27 5L28 5L28 4L27 4L27 5L26 5L26 4L25 4L25 5L22 5L22 6L21 6L21 4L20 4L20 5L19 5L19 3L21 3L21 2L20 2L20 1L18 1L18 2L17 2L17 1ZM10 4L10 5L9 5L9 7L10 7L10 6L11 6L11 7L12 7L12 5L11 5L11 4ZM20 6L20 7L21 7L21 8L22 8L22 7L23 7L23 6L22 6L22 7L21 7L21 6ZM23 8L23 10L24 10L24 8ZM3 9L3 10L4 10L4 11L2 11L2 13L1 13L1 17L2 17L2 19L3 19L3 18L5 18L5 19L4 19L4 20L3 20L3 23L4 23L4 25L3 25L3 26L4 26L4 27L6 27L6 28L11 28L11 29L12 29L12 30L13 30L13 29L14 29L14 28L15 28L15 27L14 27L14 25L13 25L13 24L14 24L14 23L15 23L15 24L16 24L16 23L15 23L15 22L16 22L16 21L14 21L14 22L13 22L13 24L12 24L12 26L11 26L11 27L10 27L10 26L8 26L8 27L6 27L6 26L7 26L7 25L6 25L6 26L5 26L5 23L6 23L6 24L8 24L8 23L9 23L9 24L10 24L10 25L11 25L11 23L12 23L12 22L10 22L10 23L9 23L9 22L8 22L8 20L9 20L9 19L6 19L6 18L5 18L5 17L6 17L6 16L7 16L7 15L4 15L4 14L5 14L5 13L6 13L6 14L7 14L7 13L6 13L6 12L7 12L7 11L6 11L6 12L4 12L4 11L5 11L5 9ZM15 10L15 11L14 11L14 12L13 12L13 15L14 15L14 13L15 13L15 12L16 12L16 14L15 14L15 15L16 15L16 14L17 14L17 15L18 15L18 14L17 14L17 13L18 13L18 12L16 12L16 10ZM31 10L31 11L32 11L32 10ZM36 10L36 11L37 11L37 10ZM2 13L2 14L3 14L3 13ZM22 14L22 16L21 16L21 18L22 18L22 20L24 20L24 21L25 21L25 20L26 20L26 22L28 22L28 23L29 23L29 24L26 24L26 25L24 25L24 26L23 26L23 25L22 25L22 24L21 24L21 25L22 25L22 26L21 26L21 27L22 27L22 28L26 28L26 29L27 29L27 28L29 28L29 26L30 26L30 28L31 28L31 27L32 27L32 26L33 26L33 25L32 25L32 26L31 26L31 25L30 25L30 23L29 23L29 22L28 22L28 21L29 21L29 20L28 20L28 21L27 21L27 20L26 20L26 19L25 19L25 18L29 18L29 19L30 19L30 20L31 20L31 21L30 21L30 22L31 22L31 23L32 23L32 24L36 24L36 23L35 23L35 21L32 21L32 20L31 20L31 19L30 19L30 18L31 18L31 17L30 17L30 18L29 18L29 16L27 16L27 15L24 15L24 14ZM32 14L32 15L33 15L33 14ZM2 15L2 16L3 16L3 15ZM4 16L4 17L5 17L5 16ZM22 16L22 18L25 18L25 17L27 17L27 16L24 16L24 17L23 17L23 16ZM18 17L18 19L19 19L19 17ZM32 17L32 18L33 18L33 20L36 20L36 19L35 19L35 18L34 18L34 17ZM5 19L5 21L4 21L4 23L5 23L5 22L6 22L6 23L8 23L8 22L6 22L6 21L7 21L7 20L6 20L6 19ZM15 19L15 20L16 20L16 19ZM31 21L31 22L32 22L32 21ZM19 24L19 25L20 25L20 24ZM15 25L15 26L16 26L16 25ZM26 25L26 26L24 26L24 27L26 27L26 28L27 28L27 27L28 27L28 26L29 26L29 25L28 25L28 26L27 26L27 25ZM18 26L18 27L16 27L16 28L18 28L18 29L19 29L19 28L18 28L18 27L20 27L20 26ZM22 26L22 27L23 27L23 26ZM26 26L26 27L27 27L27 26ZM12 27L12 28L13 28L13 27ZM20 28L20 30L19 30L19 31L18 31L18 30L16 30L16 31L17 31L17 34L18 34L18 35L20 35L20 33L24 33L24 32L23 32L23 31L24 31L24 30L25 30L25 29L24 29L24 30L23 30L23 29L22 29L22 30L21 30L21 28ZM29 29L29 32L32 32L32 29ZM33 29L33 30L34 30L34 29ZM20 30L20 32L19 32L19 33L20 33L20 32L22 32L22 31L21 31L21 30ZM27 30L27 32L28 32L28 30ZM30 30L30 31L31 31L31 30ZM25 31L25 32L26 32L26 31ZM8 32L8 37L9 37L9 36L10 36L10 37L11 37L11 36L13 36L13 35L11 35L11 34L12 34L12 33L11 33L11 32ZM10 33L10 34L9 34L9 35L10 35L10 34L11 34L11 33ZM27 33L27 34L28 34L28 35L29 35L29 33ZM31 33L31 34L30 34L30 35L31 35L31 34L32 34L32 33ZM14 36L14 37L15 37L15 36ZM0 0L0 7L7 7L7 0ZM1 1L1 6L6 6L6 1ZM2 2L2 5L5 5L5 2ZM30 0L30 7L37 7L37 0ZM31 1L31 6L36 6L36 1ZM32 2L32 5L35 5L35 2ZM0 30L0 37L7 37L7 30ZM1 31L1 36L6 36L6 31ZM2 32L2 35L5 35L5 32Z" fill="#000000"/></g></g></svg>
