<?xml version="1.0" encoding="UTF-8"?>
<svg xmlns="http://www.w3.org/2000/svg" version="1.1" width="100" height="100" viewBox="0 0 100 100"><rect x="0" y="0" width="100" height="100" fill="#ffffff"/><g transform="scale(2.703)"><g transform="translate(0,0)"><path fill-rule="evenodd" d="M9 0L9 1L8 1L8 2L9 2L9 3L8 3L8 4L9 4L9 5L8 5L8 7L9 7L9 8L6 8L6 9L5 9L5 8L0 8L0 10L1 10L1 9L3 9L3 11L0 11L0 12L1 12L1 13L0 13L0 15L1 15L1 14L2 14L2 15L3 15L3 16L1 16L1 18L2 18L2 19L1 19L1 20L0 20L0 22L1 22L1 23L0 23L0 29L1 29L1 25L2 25L2 24L3 24L3 25L4 25L4 26L5 26L5 25L4 25L4 24L5 24L5 23L7 23L7 22L9 22L9 21L10 21L10 20L9 20L9 19L10 19L10 18L8 18L8 17L9 17L9 15L10 15L10 17L12 17L12 16L13 16L13 15L14 15L14 17L18 17L18 16L19 16L19 17L20 17L20 19L21 19L21 20L22 20L22 21L20 21L20 20L19 20L19 21L20 21L20 23L19 23L19 22L17 22L17 21L18 21L18 20L17 20L17 19L16 19L16 18L14 18L14 20L13 20L13 18L12 18L12 20L11 20L11 21L12 21L12 20L13 20L13 21L15 21L15 22L13 22L13 23L11 23L11 22L10 22L10 23L9 23L9 24L10 24L10 25L11 25L11 26L10 26L10 28L8 28L8 26L6 26L6 27L7 27L7 28L5 28L5 27L3 27L3 26L2 26L2 27L3 27L3 28L2 28L2 29L8 29L8 31L9 31L9 32L8 32L8 37L17 37L17 36L13 36L13 35L18 35L18 36L19 36L19 34L20 34L20 37L23 37L23 36L22 36L22 35L23 35L23 34L24 34L24 33L26 33L26 35L27 35L27 36L25 36L25 35L24 35L24 37L27 37L27 36L30 36L30 37L32 37L32 34L33 34L33 33L34 33L34 34L35 34L35 35L36 35L36 36L33 36L33 37L37 37L37 34L35 34L35 32L33 32L33 31L34 31L34 30L35 30L35 31L37 31L37 30L35 30L35 28L33 28L33 26L34 26L34 25L35 25L35 27L36 27L36 28L37 28L37 26L36 26L36 25L37 25L37 22L36 22L36 21L37 21L37 18L36 18L36 17L37 17L37 14L36 14L36 13L35 13L35 12L34 12L34 11L35 11L35 9L36 9L36 8L35 8L35 9L34 9L34 8L33 8L33 9L34 9L34 11L33 11L33 10L32 10L32 8L31 8L31 10L30 10L30 8L25 8L25 6L26 6L26 7L27 7L27 6L28 6L28 7L29 7L29 6L28 6L28 5L29 5L29 4L28 4L28 3L29 3L29 2L28 2L28 1L29 1L29 0L28 0L28 1L26 1L26 3L24 3L24 4L20 4L20 3L19 3L19 4L16 4L16 3L17 3L17 1L18 1L18 2L19 2L19 1L21 1L21 3L23 3L23 2L22 2L22 1L24 1L24 2L25 2L25 0L15 0L15 2L16 2L16 3L13 3L13 2L14 2L14 0L13 0L13 1L12 1L12 2L10 2L10 1L11 1L11 0ZM9 3L9 4L11 4L11 5L9 5L9 7L10 7L10 10L9 10L9 9L8 9L8 10L9 10L9 12L11 12L11 13L10 13L10 15L11 15L11 16L12 16L12 14L13 14L13 12L14 12L14 11L15 11L15 12L16 12L16 13L14 13L14 15L15 15L15 14L16 14L16 15L17 15L17 16L18 16L18 15L17 15L17 14L19 14L19 15L21 15L21 13L25 13L25 12L26 12L26 11L27 11L27 13L26 13L26 14L28 14L28 13L29 13L29 14L31 14L31 16L35 16L35 17L36 17L36 14L35 14L35 15L34 15L34 13L32 13L32 12L31 12L31 13L29 13L29 12L30 12L30 11L29 11L29 12L28 12L28 11L27 11L27 10L28 10L28 9L26 9L26 10L25 10L25 8L24 8L24 6L25 6L25 5L26 5L26 6L27 6L27 5L28 5L28 4L27 4L27 5L26 5L26 4L25 4L25 5L22 5L22 6L21 6L21 7L22 7L22 8L20 8L20 9L19 9L19 10L18 10L18 11L17 11L17 10L16 10L16 9L15 9L15 10L14 10L14 9L13 9L13 8L14 8L14 6L15 6L15 7L16 7L16 8L19 8L19 7L20 7L20 5L17 5L17 7L16 7L16 6L15 6L15 5L14 5L14 4L12 4L12 3ZM13 5L13 6L12 6L12 8L13 8L13 6L14 6L14 5ZM10 6L10 7L11 7L11 6ZM18 6L18 7L19 7L19 6ZM22 6L22 7L23 7L23 6ZM23 8L23 10L22 10L22 9L20 9L20 11L18 11L18 12L17 12L17 11L16 11L16 10L15 10L15 11L16 11L16 12L17 12L17 13L16 13L16 14L17 14L17 13L19 13L19 14L20 14L20 13L21 13L21 12L22 12L22 11L23 11L23 12L25 12L25 10L24 10L24 8ZM6 9L6 10L7 10L7 9ZM11 9L11 10L10 10L10 11L11 11L11 12L13 12L13 11L14 11L14 10L12 10L12 9ZM4 10L4 11L3 11L3 12L2 12L2 14L3 14L3 12L4 12L4 13L6 13L6 14L9 14L9 13L8 13L8 11L6 11L6 12L5 12L5 10ZM11 10L11 11L12 11L12 10ZM23 10L23 11L24 11L24 10ZM31 10L31 11L32 11L32 10ZM36 10L36 11L37 11L37 10ZM20 11L20 12L19 12L19 13L20 13L20 12L21 12L21 11ZM6 12L6 13L7 13L7 12ZM11 13L11 14L12 14L12 13ZM23 14L23 15L22 15L22 16L20 16L20 17L21 17L21 18L22 18L22 19L23 19L23 20L24 20L24 21L25 21L25 20L26 20L26 22L28 22L28 23L29 23L29 24L26 24L26 23L25 23L25 22L21 22L21 23L20 23L20 24L19 24L19 23L17 23L17 22L16 22L16 23L13 23L13 24L11 24L11 25L13 25L13 26L11 26L11 27L12 27L12 28L14 28L14 27L15 27L15 26L17 26L17 25L14 25L14 24L16 24L16 23L17 23L17 24L19 24L19 25L20 25L20 24L21 24L21 26L18 26L18 27L17 27L17 29L13 29L13 30L10 30L10 29L11 29L11 28L10 28L10 29L9 29L9 30L10 30L10 31L11 31L11 32L9 32L9 36L10 36L10 35L13 35L13 33L14 33L14 34L16 34L16 33L14 33L14 32L18 32L18 33L17 33L17 34L19 34L19 33L20 33L20 34L21 34L21 35L22 35L22 34L21 34L21 33L20 33L20 32L21 32L21 31L22 31L22 32L23 32L23 33L24 33L24 32L23 32L23 31L24 31L24 30L25 30L25 29L24 29L24 30L23 30L23 29L22 29L22 28L26 28L26 29L27 29L27 28L29 28L29 26L30 26L30 28L31 28L31 27L32 27L32 26L33 26L33 25L32 25L32 26L31 26L31 25L30 25L30 23L29 23L29 22L28 22L28 21L29 21L29 20L28 20L28 21L27 21L27 20L26 20L26 19L25 19L25 18L29 18L29 19L30 19L30 20L31 20L31 21L30 21L30 22L31 22L31 23L32 23L32 24L36 24L36 23L35 23L35 21L32 21L32 20L31 20L31 19L30 19L30 18L31 18L31 17L30 17L30 18L29 18L29 16L27 16L27 15L24 15L24 14ZM32 14L32 15L33 15L33 14ZM6 15L6 16L7 16L7 17L4 17L4 16L3 16L3 17L4 17L4 18L7 18L7 19L6 19L6 20L5 20L5 19L4 19L4 21L3 21L3 19L2 19L2 20L1 20L1 21L2 21L2 23L3 23L3 22L4 22L4 23L5 23L5 22L4 22L4 21L6 21L6 22L7 22L7 21L6 21L6 20L8 20L8 18L7 18L7 17L8 17L8 15ZM24 16L24 17L22 17L22 18L25 18L25 17L27 17L27 16ZM32 17L32 18L33 18L33 20L36 20L36 19L35 19L35 18L34 18L34 17ZM15 20L15 21L17 21L17 20ZM31 21L31 22L32 22L32 21ZM21 23L21 24L22 24L22 25L23 25L23 26L24 26L24 27L26 27L26 28L27 28L27 27L28 27L28 26L29 26L29 25L28 25L28 26L27 26L27 25L26 25L26 24L24 24L24 25L23 25L23 24L22 24L22 23ZM6 24L6 25L7 25L7 24ZM24 25L24 26L26 26L26 27L27 27L27 26L26 26L26 25ZM13 26L13 27L14 27L14 26ZM21 26L21 28L20 28L20 27L18 27L18 28L19 28L19 29L18 29L18 30L17 30L17 31L18 31L18 30L20 30L20 31L21 31L21 28L22 28L22 26ZM29 29L29 32L32 32L32 29ZM33 29L33 30L34 30L34 29ZM13 30L13 31L14 31L14 30ZM15 30L15 31L16 31L16 30ZM22 30L22 31L23 31L23 30ZM27 30L27 32L28 32L28 30ZM30 30L30 31L31 31L31 30ZM25 31L25 32L26 32L26 31ZM10 33L10 34L12 34L12 33ZM27 33L27 34L28 34L28 35L29 35L29 33ZM31 33L31 34L30 34L30 35L31 35L31 34L32 34L32 33ZM0 0L0 7L7 7L7 0ZM1 1L1 6L6 6L6 1ZM2 2L2 5L5 5L5 2ZM30 0L30 7L37 7L37 0ZM31 1L31 6L36 6L36 1ZM32 2L32 5L35 5L35 2ZM0 30L0 37L7 37L7 30ZM1 31L1 36L6 36L6 31ZM2 32L2 35L5 35L5 32Z" fill="#000000"/></g></g></svg>
