<?xml version="1.0" encoding="UTF-8"?>
<svg xmlns="http://www.w3.org/2000/svg" version="1.1" width="100" height="100" viewBox="0 0 100 100"><rect x="0" y="0" width="100" height="100" fill="#ffffff"/><g transform="scale(2.703)"><g transform="translate(0,0)"><path fill-rule="evenodd" d="M9 0L9 1L8 1L8 3L9 3L9 2L10 2L10 4L11 4L11 5L9 5L9 4L8 4L8 8L6 8L6 9L7 9L7 10L6 10L6 11L7 11L7 10L9 10L9 11L11 11L11 12L8 12L8 13L9 13L9 15L7 15L7 14L6 14L6 13L7 13L7 12L5 12L5 11L4 11L4 10L5 10L5 9L4 9L4 8L3 8L3 9L4 9L4 10L3 10L3 11L2 11L2 10L1 10L1 11L2 11L2 12L5 12L5 13L4 13L4 16L2 16L2 15L1 15L1 14L3 14L3 13L1 13L1 14L0 14L0 15L1 15L1 16L0 16L0 17L1 17L1 16L2 16L2 18L5 18L5 21L4 21L4 19L3 19L3 21L2 21L2 22L1 22L1 20L2 20L2 19L1 19L1 18L0 18L0 22L1 22L1 25L2 25L2 26L3 26L3 25L4 25L4 27L3 27L3 28L2 28L2 27L1 27L1 26L0 26L0 27L1 27L1 28L0 28L0 29L5 29L5 28L6 28L6 29L7 29L7 28L6 28L6 27L8 27L8 31L9 31L9 33L8 33L8 34L9 34L9 35L8 35L8 37L14 37L14 36L16 36L16 37L18 37L18 36L19 36L19 37L23 37L23 35L22 35L22 34L21 34L21 33L20 33L20 32L22 32L22 31L23 31L23 30L24 30L24 31L26 31L26 32L23 32L23 33L24 33L24 34L25 34L25 36L24 36L24 37L26 37L26 36L27 36L27 37L29 37L29 36L30 36L30 37L33 37L33 35L34 35L34 34L35 34L35 35L37 35L37 33L36 33L36 32L37 32L37 29L36 29L36 30L35 30L35 28L36 28L36 27L37 27L37 24L35 24L35 25L33 25L33 26L32 26L32 24L33 24L33 23L34 23L34 22L31 22L31 20L32 20L32 21L33 21L33 19L34 19L34 20L36 20L36 22L35 22L35 23L37 23L37 20L36 20L36 19L37 19L37 16L36 16L36 15L37 15L37 13L36 13L36 14L35 14L35 16L34 16L34 18L33 18L33 17L32 17L32 18L31 18L31 16L32 16L32 15L34 15L34 14L32 14L32 15L31 15L31 12L29 12L29 11L32 11L32 10L31 10L31 9L33 9L33 8L30 8L30 10L29 10L29 9L28 9L28 12L27 12L27 13L29 13L29 14L30 14L30 15L31 15L31 16L29 16L29 15L27 15L27 14L26 14L26 11L27 11L27 10L25 10L25 9L27 9L27 8L25 8L25 9L24 9L24 11L23 11L23 10L22 10L22 9L23 9L23 8L24 8L24 7L25 7L25 5L26 5L26 7L27 7L27 6L28 6L28 8L29 8L29 6L28 6L28 5L29 5L29 4L28 4L28 3L27 3L27 2L29 2L29 1L28 1L28 0L26 0L26 4L24 4L24 1L25 1L25 0L23 0L23 1L20 1L20 3L18 3L18 2L19 2L19 0L18 0L18 2L16 2L16 0L15 0L15 1L13 1L13 2L12 2L12 1L11 1L11 0ZM11 2L11 4L12 4L12 5L11 5L11 7L10 7L10 6L9 6L9 7L10 7L10 8L8 8L8 9L9 9L9 10L11 10L11 11L14 11L14 10L13 10L13 9L14 9L14 8L15 8L15 9L16 9L16 8L17 8L17 9L20 9L20 8L21 8L21 7L22 7L22 6L23 6L23 7L24 7L24 5L22 5L22 4L23 4L23 2L21 2L21 3L20 3L20 6L19 6L19 4L18 4L18 3L15 3L15 2L13 2L13 4L12 4L12 2ZM14 3L14 4L13 4L13 5L14 5L14 4L15 4L15 3ZM16 4L16 5L15 5L15 6L14 6L14 7L15 7L15 6L16 6L16 7L17 7L17 8L18 8L18 7L19 7L19 6L18 6L18 5L17 5L17 4ZM26 4L26 5L27 5L27 4ZM21 5L21 6L20 6L20 7L21 7L21 6L22 6L22 5ZM12 6L12 7L11 7L11 8L10 8L10 9L12 9L12 8L13 8L13 6ZM17 6L17 7L18 7L18 6ZM0 8L0 9L2 9L2 8ZM34 8L34 10L33 10L33 12L34 12L34 11L35 11L35 10L36 10L36 12L37 12L37 9L36 9L36 8ZM15 10L15 12L16 12L16 10ZM17 10L17 14L16 14L16 13L14 13L14 14L15 14L15 15L14 15L14 16L12 16L12 15L11 15L11 14L12 14L12 13L11 13L11 14L10 14L10 15L9 15L9 16L7 16L7 15L6 15L6 14L5 14L5 16L4 16L4 17L5 17L5 18L8 18L8 19L10 19L10 20L11 20L11 22L9 22L9 23L6 23L6 24L7 24L7 25L6 25L6 26L5 26L5 27L6 27L6 26L7 26L7 25L9 25L9 31L10 31L10 36L11 36L11 35L12 35L12 36L13 36L13 35L14 35L14 34L15 34L15 35L17 35L17 36L18 36L18 35L17 35L17 34L19 34L19 32L20 32L20 31L21 31L21 30L20 30L20 29L21 29L21 27L22 27L22 29L23 29L23 26L24 26L24 23L26 23L26 24L27 24L27 23L29 23L29 25L27 25L27 26L26 26L26 25L25 25L25 26L26 26L26 27L27 27L27 29L26 29L26 28L25 28L25 30L26 30L26 31L27 31L27 34L26 34L26 35L29 35L29 34L30 34L30 36L32 36L32 34L31 34L31 33L28 33L28 31L27 31L27 29L28 29L28 28L30 28L30 27L31 27L31 28L32 28L32 26L29 26L29 25L30 25L30 24L32 24L32 23L29 23L29 22L30 22L30 18L29 18L29 16L28 16L28 17L27 17L27 15L26 15L26 16L25 16L25 17L24 17L24 16L23 16L23 17L21 17L21 15L22 15L22 14L25 14L25 11L24 11L24 12L23 12L23 11L22 11L22 10L21 10L21 11L22 11L22 12L20 12L20 11L18 11L18 10ZM20 13L20 15L17 15L17 16L19 16L19 18L20 18L20 15L21 15L21 13ZM10 15L10 17L11 17L11 15ZM5 16L5 17L7 17L7 16ZM15 16L15 18L14 18L14 20L13 20L13 19L12 19L12 22L13 22L13 24L14 24L14 23L15 23L15 24L16 24L16 23L15 23L15 22L13 22L13 21L15 21L15 18L16 18L16 19L17 19L17 20L18 20L18 19L17 19L17 17L16 17L16 16ZM35 16L35 17L36 17L36 16ZM8 17L8 18L9 18L9 17ZM12 17L12 18L13 18L13 17ZM23 17L23 18L21 18L21 19L19 19L19 22L17 22L17 21L16 21L16 22L17 22L17 23L18 23L18 24L17 24L17 25L16 25L16 27L15 27L15 25L14 25L14 26L13 26L13 25L12 25L12 24L11 24L11 23L10 23L10 25L12 25L12 26L11 26L11 27L13 27L13 28L11 28L11 30L12 30L12 31L11 31L11 33L12 33L12 34L14 34L14 33L15 33L15 32L16 32L16 31L15 31L15 30L17 30L17 29L18 29L18 30L19 30L19 29L20 29L20 27L21 27L21 26L23 26L23 25L21 25L21 24L22 24L22 23L20 23L20 22L21 22L21 21L20 21L20 20L22 20L22 19L23 19L23 20L25 20L25 21L26 21L26 20L28 20L28 22L29 22L29 20L28 20L28 19L26 19L26 18L27 18L27 17L25 17L25 19L23 19L23 18L24 18L24 17ZM10 18L10 19L11 19L11 18ZM32 18L32 19L33 19L33 18ZM6 19L6 20L7 20L7 19ZM25 19L25 20L26 20L26 19ZM8 20L8 21L6 21L6 22L8 22L8 21L9 21L9 20ZM2 22L2 23L5 23L5 22ZM2 24L2 25L3 25L3 24ZM18 24L18 27L20 27L20 25L19 25L19 24ZM35 25L35 27L33 27L33 34L34 34L34 33L35 33L35 32L34 32L34 28L35 28L35 27L36 27L36 25ZM28 26L28 27L29 27L29 26ZM14 27L14 28L13 28L13 30L14 30L14 29L17 29L17 28L15 28L15 27ZM29 29L29 32L32 32L32 29ZM30 30L30 31L31 31L31 30ZM13 31L13 33L14 33L14 31ZM17 31L17 33L16 33L16 34L17 34L17 33L18 33L18 32L19 32L19 31ZM19 35L19 36L21 36L21 35ZM35 36L35 37L37 37L37 36ZM0 0L0 7L7 7L7 0ZM1 1L1 6L6 6L6 1ZM2 2L2 5L5 5L5 2ZM30 0L30 7L37 7L37 0ZM31 1L31 6L36 6L36 1ZM32 2L32 5L35 5L35 2ZM0 30L0 37L7 37L7 30ZM1 31L1 36L6 36L6 31ZM2 32L2 35L5 35L5 32Z" fill="#000000"/></g></g></svg>
