<?xml version="1.0" encoding="UTF-8"?>
<svg xmlns="http://www.w3.org/2000/svg" version="1.1" width="100" height="100" viewBox="0 0 100 100"><rect x="0" y="0" width="100" height="100" fill="#ffffff"/><g transform="scale(3.03)"><g transform="translate(0,0)"><path fill-rule="evenodd" d="M8 0L8 4L9 4L9 5L8 5L8 7L9 7L9 6L10 6L10 9L11 9L11 8L12 8L12 9L13 9L13 11L12 11L12 12L11 12L11 13L8 13L8 12L10 12L10 11L11 11L11 10L9 10L9 9L8 9L8 10L9 10L9 11L7 11L7 10L5 10L5 9L7 9L7 8L4 8L4 11L3 11L3 9L2 9L2 8L0 8L0 9L2 9L2 10L1 10L1 12L3 12L3 15L4 15L4 14L5 14L5 15L9 15L9 18L8 18L8 16L6 16L6 17L7 17L7 18L5 18L5 19L4 19L4 18L0 18L0 22L1 22L1 21L2 21L2 20L1 20L1 19L4 19L4 21L5 21L5 19L7 19L7 20L6 20L6 21L8 21L8 22L5 22L5 23L3 23L3 24L0 24L0 25L5 25L5 23L7 23L7 24L6 24L6 25L8 25L8 26L9 26L9 25L11 25L11 24L12 24L12 25L13 25L13 26L15 26L15 27L14 27L14 28L13 28L13 27L12 27L12 28L10 28L10 29L9 29L9 27L8 27L8 29L9 29L9 31L8 31L8 33L9 33L9 31L10 31L10 30L11 30L11 32L12 32L12 33L14 33L14 31L15 31L15 32L16 32L16 28L15 28L15 27L16 27L16 26L17 26L17 25L18 25L18 23L19 23L19 22L17 22L17 21L18 21L18 20L19 20L19 21L22 21L22 22L21 22L21 23L20 23L20 24L19 24L19 25L20 25L20 24L21 24L21 25L22 25L22 27L21 27L21 26L20 26L20 27L19 27L19 28L20 28L20 31L19 31L19 30L17 30L17 33L18 33L18 32L19 32L19 33L20 33L20 31L21 31L21 33L22 33L22 31L21 31L21 30L22 30L22 27L23 27L23 26L24 26L24 29L23 29L23 31L24 31L24 32L23 32L23 33L25 33L25 32L26 32L26 33L29 33L29 26L31 26L31 27L32 27L32 28L33 28L33 27L32 27L32 24L31 24L31 25L29 25L29 24L25 24L25 23L26 23L26 22L25 22L25 19L26 19L26 21L27 21L27 22L28 22L28 23L29 23L29 22L30 22L30 21L29 21L29 18L30 18L30 19L32 19L32 18L30 18L30 17L29 17L29 16L30 16L30 15L32 15L32 14L30 14L30 13L29 13L29 12L30 12L30 11L31 11L31 10L28 10L28 8L27 8L27 10L26 10L26 9L25 9L25 10L24 10L24 9L23 9L23 8L22 8L22 7L23 7L23 5L24 5L24 4L25 4L25 1L24 1L24 0L23 0L23 1L24 1L24 2L23 2L23 4L22 4L22 7L21 7L21 6L20 6L20 3L22 3L22 2L20 2L20 1L17 1L17 0L13 0L13 1L11 1L11 2L12 2L12 5L13 5L13 6L12 6L12 7L11 7L11 3L10 3L10 2L9 2L9 0ZM14 1L14 2L13 2L13 3L14 3L14 4L13 4L13 5L14 5L14 6L13 6L13 7L12 7L12 8L13 8L13 9L14 9L14 11L13 11L13 12L12 12L12 13L11 13L11 14L10 14L10 17L11 17L11 18L10 18L10 19L9 19L9 21L10 21L10 22L8 22L8 24L9 24L9 23L11 23L11 22L12 22L12 21L13 21L13 22L15 22L15 21L17 21L17 20L15 20L15 21L13 21L13 20L14 20L14 19L15 19L15 18L13 18L13 17L12 17L12 16L13 16L13 15L12 15L12 16L11 16L11 14L12 14L12 13L13 13L13 14L14 14L14 13L13 13L13 12L14 12L14 11L15 11L15 9L17 9L17 10L18 10L18 9L19 9L19 12L18 12L18 13L17 13L17 11L16 11L16 13L17 13L17 15L18 15L18 16L19 16L19 15L20 15L20 16L21 16L21 14L23 14L23 13L24 13L24 15L22 15L22 16L23 16L23 17L22 17L22 18L21 18L21 17L18 17L18 18L19 18L19 20L21 20L21 19L23 19L23 20L24 20L24 19L23 19L23 17L24 17L24 18L25 18L25 16L26 16L26 15L27 15L27 17L26 17L26 18L27 18L27 21L28 21L28 22L29 22L29 21L28 21L28 18L29 18L29 17L28 17L28 16L29 16L29 15L30 15L30 14L29 14L29 13L28 13L28 15L27 15L27 13L26 13L26 12L25 12L25 13L24 13L24 12L23 12L23 13L20 13L20 11L22 11L22 9L19 9L19 8L20 8L20 6L19 6L19 5L18 5L18 3L19 3L19 2L18 2L18 3L17 3L17 7L16 7L16 3L15 3L15 2L16 2L16 1ZM14 6L14 9L15 9L15 8L16 8L16 7L15 7L15 6ZM18 6L18 7L17 7L17 9L18 9L18 7L19 7L19 6ZM24 6L24 7L25 7L25 6ZM29 8L29 9L33 9L33 8ZM6 11L6 12L7 12L7 11ZM27 11L27 12L28 12L28 11ZM4 12L4 13L5 13L5 12ZM31 12L31 13L33 13L33 12ZM6 13L6 14L8 14L8 13ZM0 15L0 17L2 17L2 16L1 16L1 15ZM14 15L14 17L17 17L17 16L16 16L16 15ZM3 16L3 17L4 17L4 16ZM32 16L32 17L33 17L33 16ZM27 17L27 18L28 18L28 17ZM7 18L7 19L8 19L8 18ZM16 18L16 19L17 19L17 18ZM20 18L20 19L21 19L21 18ZM10 19L10 20L11 20L11 21L12 21L12 20L13 20L13 19L12 19L12 20L11 20L11 19ZM32 20L32 21L33 21L33 20ZM22 22L22 23L23 23L23 22ZM24 22L24 23L25 23L25 22ZM31 22L31 23L32 23L32 22ZM12 23L12 24L13 24L13 23ZM14 23L14 25L16 25L16 24L17 24L17 23L16 23L16 24L15 24L15 23ZM23 24L23 25L24 25L24 24ZM25 25L25 28L28 28L28 25ZM10 26L10 27L11 27L11 26ZM26 26L26 27L27 27L27 26ZM17 27L17 29L18 29L18 27ZM12 28L12 29L11 29L11 30L12 30L12 29L13 29L13 30L15 30L15 29L13 29L13 28ZM24 29L24 31L26 31L26 32L27 32L27 31L28 31L28 29L27 29L27 31L26 31L26 29ZM30 29L30 30L31 30L31 29ZM12 31L12 32L13 32L13 31ZM32 32L32 33L33 33L33 32ZM0 0L0 7L7 7L7 0ZM1 1L1 6L6 6L6 1ZM2 2L2 5L5 5L5 2ZM26 0L26 7L33 7L33 0ZM27 1L27 6L32 6L32 1ZM28 2L28 5L31 5L31 2ZM0 26L0 33L7 33L7 26ZM1 27L1 32L6 32L6 27ZM2 28L2 31L5 31L5 28Z" fill="#000000"/></g></g></svg>
