<?xml version="1.0" encoding="UTF-8"?>
<svg xmlns="http://www.w3.org/2000/svg" version="1.1" width="100" height="100" viewBox="0 0 100 100"><rect x="0" y="0" width="100" height="100" fill="#ffffff"/><g transform="scale(2.703)"><g transform="translate(0,0)"><path fill-rule="evenodd" d="M9 0L9 1L8 1L8 2L9 2L9 3L8 3L8 4L9 4L9 5L8 5L8 7L9 7L9 8L6 8L6 9L8 9L8 10L4 10L4 11L2 11L2 9L5 9L5 8L0 8L0 10L1 10L1 11L2 11L2 14L0 14L0 16L2 16L2 17L0 17L0 18L2 18L2 17L3 17L3 16L5 16L5 15L3 15L3 12L5 12L5 11L7 11L7 12L6 12L6 13L7 13L7 12L8 12L8 14L10 14L10 13L11 13L11 12L12 12L12 11L11 11L11 10L10 10L10 8L11 8L11 6L10 6L10 7L9 7L9 5L12 5L12 8L13 8L13 10L15 10L15 11L18 11L18 12L19 12L19 14L20 14L20 13L23 13L23 14L24 14L24 15L27 15L27 16L24 16L24 17L23 17L23 15L22 15L22 14L21 14L21 15L19 15L19 16L17 16L17 15L18 15L18 14L17 14L17 12L14 12L14 14L12 14L12 15L15 15L15 16L14 16L14 18L13 18L13 19L12 19L12 20L13 20L13 19L14 19L14 18L15 18L15 20L14 20L14 22L13 22L13 21L11 21L11 20L10 20L10 22L12 22L12 24L13 24L13 25L11 25L11 26L10 26L10 28L9 28L9 26L8 26L8 25L9 25L9 24L10 24L10 23L9 23L9 22L5 22L5 21L2 21L2 20L1 20L1 19L0 19L0 20L1 20L1 21L2 21L2 23L3 23L3 24L4 24L4 25L2 25L2 28L3 28L3 29L4 29L4 28L3 28L3 27L5 27L5 29L8 29L8 31L9 31L9 32L8 32L8 37L9 37L9 35L10 35L10 36L12 36L12 35L10 35L10 33L11 33L11 34L12 34L12 33L13 33L13 34L14 34L14 33L15 33L15 35L18 35L18 36L19 36L19 35L18 35L18 34L17 34L17 33L19 33L19 34L20 34L20 33L21 33L21 34L22 34L22 35L20 35L20 36L21 36L21 37L23 37L23 34L24 34L24 33L26 33L26 35L27 35L27 36L25 36L25 35L24 35L24 37L27 37L27 36L30 36L30 37L32 37L32 34L33 34L33 33L34 33L34 34L35 34L35 35L36 35L36 36L33 36L33 37L37 37L37 34L35 34L35 32L33 32L33 31L34 31L34 30L35 30L35 31L37 31L37 30L35 30L35 28L33 28L33 26L34 26L34 25L35 25L35 27L36 27L36 28L37 28L37 26L36 26L36 25L37 25L37 22L36 22L36 21L37 21L37 18L36 18L36 17L37 17L37 14L36 14L36 13L35 13L35 12L34 12L34 11L35 11L35 9L36 9L36 8L35 8L35 9L34 9L34 8L33 8L33 9L34 9L34 11L33 11L33 10L32 10L32 8L31 8L31 10L30 10L30 8L25 8L25 6L26 6L26 7L27 7L27 6L28 6L28 7L29 7L29 6L28 6L28 5L29 5L29 4L28 4L28 3L29 3L29 2L28 2L28 1L29 1L29 0L28 0L28 1L26 1L26 3L24 3L24 4L21 4L21 3L23 3L23 2L22 2L22 1L24 1L24 2L25 2L25 0L17 0L17 2L19 2L19 5L17 5L17 6L16 6L16 5L15 5L15 4L18 4L18 3L16 3L16 1L15 1L15 0L13 0L13 1L12 1L12 2L9 2L9 1L10 1L10 0ZM13 1L13 2L12 2L12 3L11 3L11 4L12 4L12 5L14 5L14 6L13 6L13 8L15 8L15 7L16 7L16 6L15 6L15 5L14 5L14 4L15 4L15 1ZM19 1L19 2L20 2L20 3L21 3L21 1ZM12 3L12 4L14 4L14 3ZM25 4L25 5L22 5L22 6L21 6L21 5L19 5L19 8L18 8L18 6L17 6L17 8L16 8L16 9L17 9L17 8L18 8L18 9L20 9L20 8L21 8L21 9L22 9L22 10L23 10L23 11L22 11L22 12L23 12L23 13L25 13L25 12L26 12L26 11L27 11L27 13L26 13L26 14L28 14L28 13L29 13L29 14L31 14L31 16L35 16L35 17L36 17L36 14L35 14L35 15L34 15L34 13L32 13L32 12L31 12L31 13L29 13L29 12L30 12L30 11L29 11L29 12L28 12L28 11L27 11L27 10L28 10L28 9L26 9L26 10L25 10L25 8L24 8L24 6L25 6L25 5L26 5L26 6L27 6L27 5L28 5L28 4L27 4L27 5L26 5L26 4ZM14 6L14 7L15 7L15 6ZM20 6L20 7L21 7L21 8L22 8L22 7L23 7L23 6L22 6L22 7L21 7L21 6ZM23 8L23 10L24 10L24 11L23 11L23 12L25 12L25 10L24 10L24 8ZM8 10L8 12L9 12L9 13L10 13L10 12L11 12L11 11L10 11L10 10ZM19 10L19 12L21 12L21 10ZM31 10L31 11L32 11L32 10ZM36 10L36 11L37 11L37 10ZM0 12L0 13L1 13L1 12ZM15 13L15 14L16 14L16 13ZM6 14L6 15L7 15L7 16L6 16L6 17L4 17L4 19L3 19L3 20L6 20L6 21L8 21L8 19L10 19L10 17L9 17L9 16L10 16L10 15L7 15L7 14ZM32 14L32 15L33 15L33 14ZM2 15L2 16L3 16L3 15ZM11 16L11 17L13 17L13 16ZM15 16L15 18L16 18L16 20L15 20L15 21L17 21L17 22L18 22L18 23L17 23L17 24L16 24L16 25L17 25L17 24L18 24L18 23L20 23L20 22L18 22L18 21L20 21L20 20L21 20L21 21L22 21L22 22L21 22L21 23L22 23L22 24L21 24L21 27L23 27L23 28L20 28L20 30L18 30L18 29L19 29L19 28L18 28L18 27L20 27L20 24L19 24L19 26L18 26L18 27L17 27L17 28L15 28L15 29L14 29L14 27L15 27L15 26L11 26L11 27L13 27L13 28L11 28L11 29L10 29L10 30L9 30L9 31L10 31L10 32L9 32L9 33L10 33L10 32L11 32L11 33L12 33L12 32L11 32L11 31L13 31L13 33L14 33L14 31L13 31L13 30L15 30L15 29L17 29L17 30L18 30L18 31L17 31L17 32L15 32L15 33L17 33L17 32L18 32L18 31L19 31L19 33L20 33L20 32L21 32L21 33L22 33L22 32L21 32L21 29L23 29L23 28L26 28L26 29L27 29L27 28L29 28L29 26L30 26L30 28L31 28L31 27L32 27L32 26L33 26L33 25L32 25L32 26L31 26L31 25L30 25L30 23L29 23L29 22L28 22L28 21L29 21L29 20L28 20L28 21L27 21L27 20L26 20L26 19L25 19L25 18L29 18L29 19L30 19L30 20L31 20L31 21L30 21L30 22L31 22L31 23L32 23L32 24L36 24L36 23L35 23L35 21L32 21L32 20L31 20L31 19L30 19L30 18L31 18L31 17L30 17L30 18L29 18L29 16L27 16L27 17L25 17L25 18L23 18L23 17L22 17L22 18L19 18L19 17L20 17L20 16L19 16L19 17L18 17L18 18L16 18L16 17L17 17L17 16ZM6 17L6 18L5 18L5 19L6 19L6 20L7 20L7 19L6 19L6 18L9 18L9 17ZM32 17L32 18L33 18L33 20L36 20L36 19L35 19L35 18L34 18L34 17ZM18 18L18 19L19 19L19 18ZM22 18L22 19L21 19L21 20L22 20L22 21L23 21L23 22L25 22L25 23L26 23L26 24L24 24L24 25L23 25L23 24L22 24L22 25L23 25L23 26L24 26L24 27L26 27L26 28L27 28L27 27L28 27L28 26L29 26L29 25L28 25L28 26L27 26L27 25L26 25L26 24L29 24L29 23L28 23L28 22L26 22L26 20L25 20L25 21L24 21L24 20L22 20L22 19L23 19L23 18ZM17 20L17 21L18 21L18 20ZM31 21L31 22L32 22L32 21ZM3 22L3 23L4 23L4 24L7 24L7 25L6 25L6 26L5 26L5 27L6 27L6 28L8 28L8 26L7 26L7 25L8 25L8 24L9 24L9 23L4 23L4 22ZM14 22L14 23L13 23L13 24L14 24L14 25L15 25L15 22ZM0 23L0 24L1 24L1 23ZM0 25L0 29L1 29L1 25ZM24 25L24 26L26 26L26 25ZM6 26L6 27L7 27L7 26ZM17 28L17 29L18 29L18 28ZM11 29L11 30L10 30L10 31L11 31L11 30L12 30L12 29ZM24 29L24 30L23 30L23 31L24 31L24 30L25 30L25 29ZM29 29L29 32L32 32L32 29ZM33 29L33 30L34 30L34 29ZM27 30L27 32L28 32L28 30ZM30 30L30 31L31 31L31 30ZM25 31L25 32L26 32L26 31ZM23 32L23 33L24 33L24 32ZM27 33L27 34L28 34L28 35L29 35L29 33ZM31 33L31 34L30 34L30 35L31 35L31 34L32 34L32 33ZM13 36L13 37L16 37L16 36ZM0 0L0 7L7 7L7 0ZM1 1L1 6L6 6L6 1ZM2 2L2 5L5 5L5 2ZM30 0L30 7L37 7L37 0ZM31 1L31 6L36 6L36 1ZM32 2L32 5L35 5L35 2ZM0 30L0 37L7 37L7 30ZM1 31L1 36L6 36L6 31ZM2 32L2 35L5 35L5 32Z" fill="#000000"/></g></g></svg>
