<?xml version="1.0" encoding="UTF-8"?>
<svg xmlns="http://www.w3.org/2000/svg" version="1.1" width="100" height="100" viewBox="0 0 100 100"><rect x="0" y="0" width="100" height="100" fill="#ffffff"/><g transform="scale(2.703)"><g transform="translate(0,0)"><path fill-rule="evenodd" d="M10 0L10 1L9 1L9 3L8 3L8 5L9 5L9 4L10 4L10 3L11 3L11 4L14 4L14 3L16 3L16 2L15 2L15 1L16 1L16 0L14 0L14 1L12 1L12 0ZM18 0L18 2L19 2L19 4L15 4L15 5L13 5L13 6L12 6L12 7L11 7L11 6L10 6L10 8L9 8L9 9L8 9L8 8L5 8L5 9L3 9L3 10L0 10L0 12L1 12L1 11L2 11L2 13L1 13L1 14L0 14L0 18L1 18L1 19L0 19L0 23L1 23L1 24L0 24L0 29L1 29L1 24L2 24L2 25L3 25L3 24L2 24L2 22L1 22L1 19L2 19L2 21L3 21L3 22L4 22L4 26L3 26L3 27L2 27L2 29L3 29L3 27L4 27L4 28L5 28L5 27L4 27L4 26L6 26L6 27L7 27L7 26L8 26L8 27L9 27L9 26L8 26L8 25L9 25L9 24L10 24L10 27L11 27L11 26L12 26L12 27L13 27L13 26L14 26L14 27L15 27L15 28L12 28L12 29L11 29L11 28L6 28L6 29L8 29L8 32L9 32L9 30L11 30L11 31L10 31L10 33L11 33L11 31L12 31L12 29L15 29L15 30L13 30L13 31L14 31L14 32L13 32L13 33L16 33L16 32L17 32L17 33L19 33L19 34L20 34L20 35L22 35L22 33L21 33L21 32L20 32L20 33L19 33L19 31L21 31L21 30L22 30L22 32L24 32L24 33L23 33L23 34L24 34L24 33L27 33L27 34L26 34L26 35L28 35L28 37L31 37L31 36L32 36L32 37L34 37L34 35L33 35L33 36L32 36L32 34L31 34L31 33L33 33L33 34L34 34L34 33L35 33L35 32L34 32L34 31L35 31L35 27L36 27L36 28L37 28L37 26L36 26L36 25L37 25L37 22L36 22L36 21L37 21L37 18L36 18L36 17L37 17L37 14L36 14L36 12L35 12L35 13L34 13L34 12L33 12L33 10L34 10L34 11L35 11L35 10L34 10L34 8L32 8L32 9L31 9L31 10L30 10L30 9L29 9L29 8L28 8L28 7L29 7L29 6L28 6L28 7L27 7L27 6L26 6L26 5L27 5L27 4L26 4L26 3L28 3L28 5L29 5L29 2L27 2L27 0L24 0L24 2L25 2L25 1L26 1L26 3L24 3L24 4L23 4L23 2L21 2L21 4L20 4L20 2L19 2L19 0ZM21 0L21 1L22 1L22 0ZM11 1L11 3L12 3L12 1ZM13 2L13 3L14 3L14 2ZM25 4L25 5L17 5L17 8L18 8L18 9L15 9L15 10L14 10L14 9L13 9L13 8L14 8L14 6L13 6L13 7L12 7L12 8L10 8L10 9L11 9L11 11L10 11L10 10L8 10L8 9L6 9L6 10L5 10L5 11L3 11L3 12L7 12L7 11L8 11L8 13L6 13L6 14L5 14L5 15L4 15L4 16L3 16L3 15L1 15L1 16L3 16L3 17L1 17L1 18L2 18L2 19L3 19L3 20L4 20L4 22L5 22L5 25L6 25L6 26L7 26L7 25L8 25L8 24L9 24L9 22L10 22L10 24L11 24L11 25L12 25L12 26L13 26L13 25L14 25L14 26L15 26L15 25L16 25L16 24L14 24L14 23L12 23L12 22L17 22L17 24L18 24L18 25L20 25L20 24L21 24L21 28L22 28L22 25L23 25L23 24L25 24L25 25L24 25L24 26L23 26L23 28L26 28L26 29L27 29L27 30L25 30L25 29L24 29L24 30L25 30L25 32L26 32L26 31L28 31L28 29L27 29L27 27L24 27L24 26L26 26L26 23L25 23L25 22L23 22L23 21L22 21L22 19L23 19L23 20L24 20L24 21L25 21L25 20L26 20L26 21L27 21L27 20L28 20L28 23L27 23L27 25L28 25L28 23L29 23L29 24L30 24L30 23L29 23L29 20L28 20L28 19L29 19L29 15L27 15L27 17L25 17L25 18L24 18L24 19L23 19L23 18L22 18L22 15L21 15L21 14L22 14L22 13L23 13L23 11L24 11L24 10L25 10L25 12L24 12L24 13L26 13L26 14L27 14L27 13L28 13L28 12L26 12L26 11L27 11L27 10L25 10L25 8L27 8L27 7L26 7L26 6L25 6L25 5L26 5L26 4ZM15 5L15 7L16 7L16 5ZM8 6L8 7L9 7L9 6ZM18 6L18 7L19 7L19 9L21 9L21 8L20 8L20 7L21 7L21 6L20 6L20 7L19 7L19 6ZM22 6L22 7L23 7L23 6ZM24 6L24 8L23 8L23 9L22 9L22 10L20 10L20 11L19 11L19 12L18 12L18 13L19 13L19 14L20 14L20 13L22 13L22 12L21 12L21 11L23 11L23 10L24 10L24 8L25 8L25 6ZM0 8L0 9L2 9L2 8ZM28 9L28 10L29 10L29 9ZM6 10L6 11L7 11L7 10ZM12 10L12 12L13 12L13 11L14 11L14 18L13 18L13 19L12 19L12 17L13 17L13 16L12 16L12 15L13 15L13 14L12 14L12 15L11 15L11 13L9 13L9 14L10 14L10 15L11 15L11 19L9 19L9 20L11 20L11 21L10 21L10 22L12 22L12 20L13 20L13 19L14 19L14 18L15 18L15 19L16 19L16 20L17 20L17 18L16 18L16 17L17 17L17 16L16 16L16 15L18 15L18 16L19 16L19 18L18 18L18 19L19 19L19 20L20 20L20 21L21 21L21 20L20 20L20 19L21 19L21 18L20 18L20 15L18 15L18 14L17 14L17 10L15 10L15 11L14 11L14 10ZM31 10L31 11L32 11L32 10ZM36 10L36 11L37 11L37 10ZM9 11L9 12L10 12L10 11ZM15 11L15 12L16 12L16 11ZM29 11L29 14L31 14L31 16L32 16L32 14L33 14L33 15L34 15L34 14L33 14L33 12L32 12L32 13L30 13L30 11ZM19 12L19 13L20 13L20 12ZM2 13L2 14L4 14L4 13ZM15 13L15 14L16 14L16 13ZM6 14L6 15L7 15L7 16L6 16L6 17L5 17L5 16L4 16L4 17L3 17L3 18L4 18L4 19L8 19L8 18L9 18L9 17L10 17L10 16L9 16L9 17L8 17L8 15L7 15L7 14ZM23 14L23 17L24 17L24 16L26 16L26 15L24 15L24 14ZM35 14L35 17L36 17L36 14ZM4 17L4 18L5 18L5 17ZM6 17L6 18L8 18L8 17ZM27 17L27 19L26 19L26 20L27 20L27 19L28 19L28 17ZM30 17L30 18L31 18L31 19L30 19L30 20L31 20L31 21L30 21L30 22L31 22L31 23L32 23L32 24L31 24L31 25L29 25L29 26L28 26L28 27L29 27L29 26L30 26L30 28L31 28L31 27L32 27L32 28L33 28L33 27L35 27L35 25L36 25L36 23L35 23L35 22L31 22L31 21L32 21L32 20L31 20L31 19L34 19L34 20L36 20L36 18L35 18L35 19L34 19L34 18L33 18L33 17L32 17L32 18L31 18L31 17ZM11 19L11 20L12 20L12 19ZM5 20L5 22L6 22L6 23L7 23L7 24L6 24L6 25L7 25L7 24L8 24L8 21L7 21L7 20ZM14 20L14 21L15 21L15 20ZM6 21L6 22L7 22L7 21ZM18 22L18 24L20 24L20 23L21 23L21 22L20 22L20 23L19 23L19 22ZM11 23L11 24L12 24L12 25L13 25L13 24L12 24L12 23ZM22 23L22 24L23 24L23 23ZM33 23L33 25L34 25L34 23ZM31 25L31 26L32 26L32 27L33 27L33 26L32 26L32 25ZM16 26L16 27L17 27L17 29L16 29L16 31L15 31L15 32L16 32L16 31L17 31L17 32L18 32L18 31L19 31L19 29L20 29L20 30L21 30L21 29L20 29L20 28L19 28L19 27L20 27L20 26L18 26L18 27L17 27L17 26ZM22 29L22 30L23 30L23 29ZM29 29L29 32L32 32L32 29ZM30 30L30 31L31 31L31 30ZM36 30L36 31L37 31L37 30ZM10 34L10 36L9 36L9 35L8 35L8 37L12 37L12 36L11 36L11 34ZM13 34L13 35L14 35L14 36L13 36L13 37L14 37L14 36L15 36L15 37L18 37L18 36L17 36L17 35L18 35L18 34L15 34L15 35L14 35L14 34ZM28 34L28 35L29 35L29 34ZM30 34L30 35L31 35L31 34ZM35 34L35 35L36 35L36 37L37 37L37 34ZM15 35L15 36L16 36L16 35ZM24 35L24 36L23 36L23 37L25 37L25 35ZM20 36L20 37L22 37L22 36ZM0 0L0 7L7 7L7 0ZM1 1L1 6L6 6L6 1ZM2 2L2 5L5 5L5 2ZM30 0L30 7L37 7L37 0ZM31 1L31 6L36 6L36 1ZM32 2L32 5L35 5L35 2ZM0 30L0 37L7 37L7 30ZM1 31L1 36L6 36L6 31ZM2 32L2 35L5 35L5 32Z" fill="#000000"/></g></g></svg>
