<?xml version="1.0" encoding="UTF-8"?>
<svg xmlns="http://www.w3.org/2000/svg" version="1.1" width="100" height="100" viewBox="0 0 100 100"><rect x="0" y="0" width="100" height="100" fill="#ffffff"/><g transform="scale(2.703)"><g transform="translate(0,0)"><path fill-rule="evenodd" d="M9 0L9 1L8 1L8 2L9 2L9 3L8 3L8 4L11 4L11 5L12 5L12 3L13 3L13 4L15 4L15 6L14 6L14 8L12 8L12 7L13 7L13 6L12 6L12 7L11 7L11 6L10 6L10 7L9 7L9 5L8 5L8 7L9 7L9 8L6 8L6 9L5 9L5 8L0 8L0 9L1 9L1 10L0 10L0 11L1 11L1 13L0 13L0 14L1 14L1 15L2 15L2 17L3 17L3 18L2 18L2 20L1 20L1 16L0 16L0 21L1 21L1 22L0 22L0 24L2 24L2 26L3 26L3 27L2 27L2 28L3 28L3 27L4 27L4 29L5 29L5 26L6 26L6 27L7 27L7 28L6 28L6 29L7 29L7 28L8 28L8 31L9 31L9 29L10 29L10 30L12 30L12 32L13 32L13 31L14 31L14 29L16 29L16 30L15 30L15 32L14 32L14 33L11 33L11 34L14 34L14 35L16 35L16 36L17 36L17 37L19 37L19 33L20 33L20 34L21 34L21 33L20 33L20 32L19 32L19 31L18 31L18 32L17 32L17 33L16 33L16 31L17 31L17 30L21 30L21 32L22 32L22 33L23 33L23 34L22 34L22 35L21 35L21 36L20 36L20 37L21 37L21 36L23 36L23 34L24 34L24 33L26 33L26 35L27 35L27 36L25 36L25 35L24 35L24 37L27 37L27 36L30 36L30 37L32 37L32 34L33 34L33 33L34 33L34 34L35 34L35 35L36 35L36 36L33 36L33 37L37 37L37 34L35 34L35 32L33 32L33 31L34 31L34 30L35 30L35 31L37 31L37 30L35 30L35 28L33 28L33 26L34 26L34 25L35 25L35 27L36 27L36 28L37 28L37 26L36 26L36 25L37 25L37 22L36 22L36 21L37 21L37 18L36 18L36 17L37 17L37 14L36 14L36 13L35 13L35 12L34 12L34 11L35 11L35 9L36 9L36 8L35 8L35 9L34 9L34 8L33 8L33 9L34 9L34 11L33 11L33 10L32 10L32 8L31 8L31 10L30 10L30 8L25 8L25 6L26 6L26 7L27 7L27 6L28 6L28 7L29 7L29 6L28 6L28 5L29 5L29 4L28 4L28 3L29 3L29 2L28 2L28 1L29 1L29 0L28 0L28 1L26 1L26 3L24 3L24 4L19 4L19 5L18 5L18 4L17 4L17 2L18 2L18 3L23 3L23 2L22 2L22 1L24 1L24 2L25 2L25 0L21 0L21 2L18 2L18 1L20 1L20 0L16 0L16 1L15 1L15 0L14 0L14 3L13 3L13 1L12 1L12 3L10 3L10 2L9 2L9 1L10 1L10 0ZM16 1L16 2L15 2L15 3L16 3L16 2L17 2L17 1ZM25 4L25 5L22 5L22 6L21 6L21 7L22 7L22 8L21 8L21 9L20 9L20 5L19 5L19 9L20 9L20 10L18 10L18 11L17 11L17 12L18 12L18 13L19 13L19 14L18 14L18 15L17 15L17 17L19 17L19 15L20 15L20 12L19 12L19 11L20 11L20 10L21 10L21 9L22 9L22 10L23 10L23 11L22 11L22 12L21 12L21 14L22 14L22 15L23 15L23 17L24 17L24 16L27 16L27 17L25 17L25 18L22 18L22 16L20 16L20 17L21 17L21 18L19 18L19 21L17 21L17 22L16 22L16 24L15 24L15 25L14 25L14 22L15 22L15 21L14 21L14 22L13 22L13 21L12 21L12 20L18 20L18 19L17 19L17 18L16 18L16 19L15 19L15 18L11 18L11 19L12 19L12 20L11 20L11 21L12 21L12 22L11 22L11 23L12 23L12 24L11 24L11 25L6 25L6 26L7 26L7 27L8 27L8 28L10 28L10 29L11 29L11 28L10 28L10 27L12 27L12 26L11 26L11 25L13 25L13 26L14 26L14 27L13 27L13 28L12 28L12 30L13 30L13 29L14 29L14 28L16 28L16 29L17 29L17 28L18 28L18 29L22 29L22 31L24 31L24 30L25 30L25 29L24 29L24 30L23 30L23 29L22 29L22 28L19 28L19 27L20 27L20 26L19 26L19 25L20 25L20 24L18 24L18 22L19 22L19 23L20 23L20 22L21 22L21 23L22 23L22 24L23 24L23 25L24 25L24 26L22 26L22 25L21 25L21 26L22 26L22 27L23 27L23 28L26 28L26 29L27 29L27 28L29 28L29 26L30 26L30 28L31 28L31 27L32 27L32 26L33 26L33 25L32 25L32 26L31 26L31 25L30 25L30 23L29 23L29 22L28 22L28 21L29 21L29 20L28 20L28 21L27 21L27 20L26 20L26 19L25 19L25 18L29 18L29 19L30 19L30 20L31 20L31 21L30 21L30 22L31 22L31 23L32 23L32 24L36 24L36 23L35 23L35 21L32 21L32 20L31 20L31 19L30 19L30 18L31 18L31 17L30 17L30 18L29 18L29 16L27 16L27 15L24 15L24 14L22 14L22 13L25 13L25 12L26 12L26 11L27 11L27 13L26 13L26 14L28 14L28 13L29 13L29 14L31 14L31 16L35 16L35 17L36 17L36 14L35 14L35 15L34 15L34 13L32 13L32 12L31 12L31 13L29 13L29 12L30 12L30 11L29 11L29 12L28 12L28 11L27 11L27 10L28 10L28 9L26 9L26 10L25 10L25 8L24 8L24 6L25 6L25 5L26 5L26 6L27 6L27 5L28 5L28 4L27 4L27 5L26 5L26 4ZM15 6L15 7L16 7L16 9L15 9L15 8L14 8L14 9L15 9L15 10L11 10L11 8L10 8L10 9L8 9L8 11L6 11L6 10L7 10L7 9L6 9L6 10L5 10L5 12L4 12L4 13L1 13L1 14L3 14L3 16L4 16L4 17L5 17L5 15L6 15L6 16L7 16L7 15L8 15L8 14L10 14L10 15L9 15L9 19L10 19L10 15L12 15L12 16L11 16L11 17L14 17L14 15L15 15L15 16L16 16L16 15L15 15L15 14L17 14L17 13L14 13L14 15L12 15L12 14L11 14L11 12L12 12L12 13L13 13L13 12L14 12L14 11L15 11L15 12L16 12L16 11L15 11L15 10L16 10L16 9L17 9L17 8L18 8L18 6L17 6L17 7L16 7L16 6ZM22 6L22 7L23 7L23 6ZM23 8L23 10L24 10L24 11L23 11L23 12L25 12L25 10L24 10L24 8ZM3 9L3 10L1 10L1 11L3 11L3 10L4 10L4 9ZM9 10L9 11L8 11L8 12L5 12L5 13L4 13L4 15L5 15L5 13L9 13L9 11L10 11L10 10ZM31 10L31 11L32 11L32 10ZM36 10L36 11L37 11L37 10ZM12 11L12 12L13 12L13 11ZM6 14L6 15L7 15L7 14ZM32 14L32 15L33 15L33 14ZM6 17L6 18L5 18L5 19L4 19L4 18L3 18L3 19L4 19L4 20L3 20L3 21L4 21L4 22L3 22L3 23L2 23L2 22L1 22L1 23L2 23L2 24L4 24L4 25L5 25L5 24L4 24L4 23L6 23L6 24L7 24L7 23L6 23L6 22L7 22L7 21L8 21L8 23L9 23L9 24L10 24L10 23L9 23L9 20L8 20L8 17ZM32 17L32 18L33 18L33 20L36 20L36 19L35 19L35 18L34 18L34 17ZM6 18L6 19L5 19L5 20L4 20L4 21L5 21L5 22L6 22L6 21L7 21L7 20L6 20L6 19L7 19L7 18ZM20 19L20 21L19 21L19 22L20 22L20 21L21 21L21 20L22 20L22 21L23 21L23 22L22 22L22 23L23 23L23 22L25 22L25 23L26 23L26 24L24 24L24 25L26 25L26 26L24 26L24 27L26 27L26 28L27 28L27 27L28 27L28 26L29 26L29 25L28 25L28 26L27 26L27 25L26 25L26 24L29 24L29 23L28 23L28 22L26 22L26 20L25 20L25 21L24 21L24 20L22 20L22 19ZM31 21L31 22L32 22L32 21ZM12 22L12 23L13 23L13 22ZM16 24L16 26L15 26L15 27L17 27L17 25L18 25L18 24ZM0 25L0 29L1 29L1 25ZM8 26L8 27L9 27L9 26ZM29 29L29 32L32 32L32 29ZM33 29L33 30L34 30L34 29ZM27 30L27 32L28 32L28 30ZM30 30L30 31L31 31L31 30ZM25 31L25 32L26 32L26 31ZM8 32L8 37L10 37L10 36L9 36L9 35L10 35L10 32ZM18 32L18 33L19 33L19 32ZM23 32L23 33L24 33L24 32ZM14 33L14 34L16 34L16 35L17 35L17 36L18 36L18 35L17 35L17 34L16 34L16 33ZM27 33L27 34L28 34L28 35L29 35L29 33ZM31 33L31 34L30 34L30 35L31 35L31 34L32 34L32 33ZM12 35L12 36L11 36L11 37L15 37L15 36L13 36L13 35ZM0 0L0 7L7 7L7 0ZM1 1L1 6L6 6L6 1ZM2 2L2 5L5 5L5 2ZM30 0L30 7L37 7L37 0ZM31 1L31 6L36 6L36 1ZM32 2L32 5L35 5L35 2ZM0 30L0 37L7 37L7 30ZM1 31L1 36L6 36L6 31ZM2 32L2 35L5 35L5 32Z" fill="#000000"/></g></g></svg>
