<?xml version="1.0" encoding="UTF-8"?>
<svg xmlns="http://www.w3.org/2000/svg" version="1.1" width="100" height="100" viewBox="0 0 100 100"><rect x="0" y="0" width="100" height="100" fill="#ffffff"/><g transform="scale(3.03)"><g transform="translate(0,0)"><path fill-rule="evenodd" d="M8 0L8 1L9 1L9 2L8 2L8 5L9 5L9 4L11 4L11 5L10 5L10 10L9 10L9 8L8 8L8 11L9 11L9 15L10 15L10 16L12 16L12 17L13 17L13 16L12 16L12 14L13 14L13 15L14 15L14 18L13 18L13 21L15 21L15 20L16 20L16 24L15 24L15 22L14 22L14 23L11 23L11 21L9 21L9 20L12 20L12 19L10 19L10 18L9 18L9 17L7 17L7 16L8 16L8 14L6 14L6 13L8 13L8 12L6 12L6 11L7 11L7 10L6 10L6 11L5 11L5 10L4 10L4 8L0 8L0 10L1 10L1 11L0 11L0 12L1 12L1 13L0 13L0 15L1 15L1 14L2 14L2 15L3 15L3 16L0 16L0 18L1 18L1 20L0 20L0 22L1 22L1 21L2 21L2 22L3 22L3 21L4 21L4 23L5 23L5 21L4 21L4 20L5 20L5 19L7 19L7 20L6 20L6 21L7 21L7 22L6 22L6 23L7 23L7 24L5 24L5 25L8 25L8 26L9 26L9 27L11 27L11 26L12 26L12 28L11 28L11 29L10 29L10 28L9 28L9 29L8 29L8 33L9 33L9 29L10 29L10 30L11 30L11 31L10 31L10 32L11 32L11 33L14 33L14 32L13 32L13 30L14 30L14 29L12 29L12 28L14 28L14 27L15 27L15 28L16 28L16 29L15 29L15 33L18 33L18 32L20 32L20 31L22 31L22 32L21 32L21 33L24 33L24 32L27 32L27 33L28 33L28 32L27 32L27 30L26 30L26 31L25 31L25 29L32 29L32 30L33 30L33 29L32 29L32 27L30 27L30 26L29 26L29 24L30 24L30 23L29 23L29 24L28 24L28 22L27 22L27 21L24 21L24 20L25 20L25 19L27 19L27 20L28 20L28 19L27 19L27 18L29 18L29 19L30 19L30 18L31 18L31 19L32 19L32 20L33 20L33 19L32 19L32 18L33 18L33 16L31 16L31 14L32 14L32 13L30 13L30 14L29 14L29 15L28 15L28 17L27 17L27 15L26 15L26 12L28 12L28 13L27 13L27 14L28 14L28 13L29 13L29 11L31 11L31 12L32 12L32 11L33 11L33 8L32 8L32 9L31 9L31 8L28 8L28 9L31 9L31 10L29 10L29 11L26 11L26 10L27 10L27 9L26 9L26 8L24 8L24 9L22 9L22 8L23 8L23 6L22 6L22 8L21 8L21 9L20 9L20 10L21 10L21 11L19 11L19 12L17 12L17 13L16 13L16 12L14 12L14 14L13 14L13 12L12 12L12 13L11 13L11 11L14 11L14 8L15 8L15 10L16 10L16 11L17 11L17 9L19 9L19 8L20 8L20 7L21 7L21 5L20 5L20 4L21 4L21 3L20 3L20 4L19 4L19 5L18 5L18 3L17 3L17 4L16 4L16 3L15 3L15 2L13 2L13 1L15 1L15 0L12 0L12 1L11 1L11 0L10 0L10 1L9 1L9 0ZM18 0L18 1L17 1L17 2L19 2L19 1L20 1L20 2L21 2L21 1L22 1L22 0ZM23 0L23 2L24 2L24 3L25 3L25 2L24 2L24 0ZM11 2L11 4L12 4L12 3L13 3L13 2ZM14 3L14 4L13 4L13 5L12 5L12 6L11 6L11 8L12 8L12 6L13 6L13 8L14 8L14 6L13 6L13 5L15 5L15 8L17 8L17 7L18 7L18 5L15 5L15 3ZM22 3L22 5L23 5L23 3ZM24 4L24 7L25 7L25 4ZM8 6L8 7L9 7L9 6ZM16 6L16 7L17 7L17 6ZM19 6L19 7L20 7L20 6ZM6 8L6 9L7 9L7 8ZM1 9L1 10L2 10L2 11L3 11L3 12L2 12L2 14L3 14L3 12L5 12L5 13L4 13L4 14L5 14L5 15L4 15L4 17L3 17L3 18L4 18L4 17L5 17L5 15L6 15L6 16L7 16L7 15L6 15L6 14L5 14L5 13L6 13L6 12L5 12L5 11L3 11L3 10L2 10L2 9ZM11 9L11 10L12 10L12 9ZM24 9L24 10L26 10L26 9ZM22 10L22 11L21 11L21 12L19 12L19 13L20 13L20 15L18 15L18 13L17 13L17 16L16 16L16 20L17 20L17 19L18 19L18 20L19 20L19 19L21 19L21 20L20 20L20 21L21 21L21 20L22 20L22 21L23 21L23 20L24 20L24 19L25 19L25 18L23 18L23 19L22 19L22 18L20 18L20 17L19 17L19 18L18 18L18 16L20 16L20 15L22 15L22 14L23 14L23 15L25 15L25 17L26 17L26 15L25 15L25 14L24 14L24 11L23 11L23 10ZM31 10L31 11L32 11L32 10ZM22 11L22 13L23 13L23 11ZM25 11L25 12L26 12L26 11ZM10 13L10 14L11 14L11 13ZM14 14L14 15L16 15L16 14ZM29 15L29 16L30 16L30 15ZM6 17L6 18L7 18L7 19L8 19L8 18L7 18L7 17ZM31 17L31 18L32 18L32 17ZM2 19L2 20L4 20L4 19ZM7 20L7 21L8 21L8 25L10 25L10 24L11 24L11 23L10 23L10 22L9 22L9 21L8 21L8 20ZM30 20L30 21L29 21L29 22L30 22L30 21L31 21L31 24L32 24L32 25L33 25L33 24L32 24L32 23L33 23L33 21L31 21L31 20ZM17 21L17 24L16 24L16 25L17 25L17 24L18 24L18 25L20 25L20 27L18 27L18 26L17 26L17 29L16 29L16 30L17 30L17 31L20 31L20 29L21 29L21 30L22 30L22 31L23 31L23 32L24 32L24 30L23 30L23 28L22 28L22 29L21 29L21 28L20 28L20 27L21 27L21 26L22 26L22 22L19 22L19 21ZM24 22L24 23L23 23L23 26L24 26L24 23L25 23L25 22ZM1 23L1 24L0 24L0 25L1 25L1 24L2 24L2 25L3 25L3 24L2 24L2 23ZM19 23L19 24L20 24L20 23ZM26 23L26 24L27 24L27 23ZM12 24L12 26L13 26L13 27L14 27L14 26L15 26L15 27L16 27L16 26L15 26L15 24ZM13 25L13 26L14 26L14 25ZM25 25L25 28L28 28L28 25ZM26 26L26 27L27 27L27 26ZM18 28L18 29L19 29L19 28ZM11 29L11 30L12 30L12 29ZM29 30L29 31L31 31L31 30ZM11 31L11 32L12 32L12 31ZM32 31L32 32L33 32L33 31ZM30 32L30 33L31 33L31 32ZM0 0L0 7L7 7L7 0ZM1 1L1 6L6 6L6 1ZM2 2L2 5L5 5L5 2ZM26 0L26 7L33 7L33 0ZM27 1L27 6L32 6L32 1ZM28 2L28 5L31 5L31 2ZM0 26L0 33L7 33L7 26ZM1 27L1 32L6 32L6 27ZM2 28L2 31L5 31L5 28Z" fill="#000000"/></g></g></svg>
