<?xml version="1.0" encoding="UTF-8"?>
<svg xmlns="http://www.w3.org/2000/svg" version="1.1" width="100" height="100" viewBox="0 0 100 100"><rect x="0" y="0" width="100" height="100" fill="#ffffff"/><g transform="scale(2.703)"><g transform="translate(0,0)"><path fill-rule="evenodd" d="M9 0L9 1L8 1L8 2L9 2L9 3L8 3L8 4L9 4L9 5L8 5L8 7L9 7L9 8L6 8L6 9L7 9L7 10L5 10L5 8L0 8L0 18L1 18L1 20L0 20L0 21L2 21L2 18L3 18L3 20L4 20L4 19L5 19L5 20L6 20L6 21L7 21L7 22L5 22L5 21L3 21L3 23L4 23L4 24L6 24L6 25L7 25L7 26L6 26L6 27L5 27L5 28L4 28L4 26L5 26L5 25L4 25L4 26L3 26L3 25L2 25L2 24L1 24L1 23L2 23L2 22L1 22L1 23L0 23L0 29L1 29L1 25L2 25L2 29L8 29L8 31L9 31L9 30L10 30L10 32L11 32L11 34L12 34L12 35L11 35L11 36L10 36L10 37L11 37L11 36L13 36L13 37L14 37L14 36L16 36L16 34L17 34L17 35L18 35L18 36L19 36L19 37L20 37L20 36L22 36L22 35L23 35L23 34L24 34L24 33L26 33L26 35L27 35L27 36L25 36L25 35L24 35L24 37L27 37L27 36L30 36L30 37L32 37L32 34L33 34L33 33L34 33L34 34L35 34L35 35L36 35L36 36L33 36L33 37L37 37L37 34L35 34L35 32L33 32L33 31L34 31L34 30L35 30L35 31L37 31L37 30L35 30L35 28L33 28L33 26L34 26L34 25L35 25L35 27L36 27L36 28L37 28L37 26L36 26L36 25L37 25L37 22L36 22L36 21L37 21L37 18L36 18L36 17L37 17L37 14L36 14L36 13L35 13L35 12L34 12L34 11L35 11L35 9L36 9L36 8L35 8L35 9L34 9L34 8L33 8L33 9L34 9L34 11L33 11L33 10L32 10L32 8L31 8L31 10L30 10L30 8L25 8L25 6L26 6L26 7L27 7L27 6L28 6L28 7L29 7L29 6L28 6L28 5L29 5L29 4L28 4L28 3L29 3L29 2L28 2L28 1L29 1L29 0L28 0L28 1L26 1L26 3L24 3L24 4L20 4L20 3L23 3L23 2L22 2L22 1L24 1L24 2L25 2L25 0L16 0L16 1L15 1L15 3L14 3L14 4L13 4L13 3L12 3L12 2L14 2L14 1L12 1L12 0ZM9 1L9 2L10 2L10 3L9 3L9 4L11 4L11 2L12 2L12 1ZM16 1L16 2L17 2L17 3L16 3L16 4L17 4L17 5L16 5L16 6L15 6L15 4L14 4L14 6L13 6L13 7L12 7L12 5L13 5L13 4L12 4L12 5L9 5L9 7L10 7L10 10L11 10L11 11L10 11L10 12L11 12L11 13L12 13L12 14L11 14L11 16L10 16L10 13L9 13L9 9L8 9L8 10L7 10L7 11L6 11L6 12L8 12L8 13L6 13L6 14L5 14L5 11L3 11L3 10L4 10L4 9L2 9L2 11L3 11L3 12L2 12L2 13L1 13L1 14L2 14L2 13L3 13L3 12L4 12L4 14L3 14L3 15L2 15L2 17L1 17L1 18L2 18L2 17L3 17L3 18L5 18L5 17L6 17L6 18L7 18L7 19L6 19L6 20L7 20L7 21L10 21L10 20L7 20L7 19L10 19L10 18L11 18L11 21L12 21L12 22L11 22L11 23L12 23L12 22L13 22L13 24L15 24L15 26L13 26L13 25L12 25L12 24L10 24L10 23L9 23L9 22L7 22L7 23L6 23L6 24L7 24L7 25L8 25L8 26L7 26L7 27L6 27L6 28L8 28L8 27L9 27L9 29L10 29L10 30L11 30L11 31L12 31L12 30L13 30L13 29L14 29L14 27L15 27L15 26L16 26L16 27L17 27L17 28L16 28L16 29L17 29L17 28L18 28L18 29L19 29L19 32L18 32L18 31L15 31L15 30L14 30L14 31L13 31L13 32L12 32L12 34L13 34L13 36L14 36L14 35L15 35L15 34L14 34L14 33L15 33L15 32L16 32L16 33L17 33L17 32L18 32L18 33L19 33L19 34L18 34L18 35L21 35L21 34L23 34L23 33L24 33L24 32L23 32L23 33L21 33L21 34L20 34L20 32L21 32L21 31L22 31L22 30L23 30L23 31L24 31L24 30L25 30L25 29L24 29L24 30L23 30L23 29L22 29L22 30L20 30L20 27L21 27L21 25L20 25L20 24L18 24L18 23L16 23L16 24L15 24L15 22L13 22L13 20L14 20L14 21L15 21L15 20L14 20L14 19L15 19L15 18L16 18L16 19L17 19L17 20L16 20L16 21L17 21L17 22L18 22L18 21L19 21L19 23L22 23L22 24L23 24L23 25L22 25L22 26L23 26L23 27L22 27L22 28L26 28L26 29L27 29L27 28L29 28L29 26L30 26L30 28L31 28L31 27L32 27L32 26L33 26L33 25L32 25L32 26L31 26L31 25L30 25L30 23L29 23L29 22L28 22L28 21L29 21L29 20L28 20L28 21L27 21L27 20L26 20L26 19L25 19L25 18L29 18L29 19L30 19L30 20L31 20L31 21L30 21L30 22L31 22L31 23L32 23L32 24L36 24L36 23L35 23L35 21L32 21L32 20L31 20L31 19L30 19L30 18L31 18L31 17L30 17L30 18L29 18L29 16L27 16L27 15L24 15L24 14L21 14L21 15L23 15L23 16L21 16L21 17L24 17L24 16L27 16L27 17L25 17L25 18L23 18L23 19L22 19L22 18L18 18L18 17L20 17L20 16L19 16L19 15L20 15L20 14L18 14L18 15L16 15L16 16L15 16L15 17L13 17L13 16L14 16L14 13L13 13L13 12L14 12L14 11L13 11L13 9L14 9L14 10L16 10L16 12L15 12L15 13L16 13L16 12L19 12L19 13L22 13L22 12L23 12L23 13L25 13L25 12L26 12L26 11L27 11L27 13L26 13L26 14L28 14L28 13L29 13L29 14L31 14L31 16L35 16L35 17L36 17L36 14L35 14L35 15L34 15L34 13L32 13L32 12L31 12L31 13L29 13L29 12L30 12L30 11L29 11L29 12L28 12L28 11L27 11L27 10L28 10L28 9L26 9L26 10L25 10L25 8L24 8L24 6L25 6L25 5L26 5L26 6L27 6L27 5L28 5L28 4L27 4L27 5L26 5L26 4L25 4L25 5L22 5L22 6L21 6L21 7L22 7L22 8L20 8L20 9L19 9L19 8L18 8L18 6L17 6L17 5L19 5L19 7L20 7L20 4L19 4L19 2L20 2L20 1L19 1L19 2L17 2L17 1ZM17 3L17 4L18 4L18 3ZM10 6L10 7L11 7L11 8L12 8L12 7L11 7L11 6ZM14 6L14 9L15 9L15 6ZM16 6L16 8L17 8L17 9L16 9L16 10L17 10L17 11L18 11L18 10L19 10L19 9L18 9L18 8L17 8L17 6ZM22 6L22 7L23 7L23 6ZM23 8L23 10L22 10L22 9L20 9L20 11L21 11L21 12L22 12L22 11L23 11L23 12L25 12L25 10L24 10L24 8ZM11 9L11 10L12 10L12 9ZM23 10L23 11L24 11L24 10ZM31 10L31 11L32 11L32 10ZM36 10L36 11L37 11L37 10ZM8 13L8 14L9 14L9 13ZM4 14L4 17L5 17L5 14ZM6 14L6 15L7 15L7 14ZM32 14L32 15L33 15L33 14ZM12 15L12 16L11 16L11 17L12 17L12 16L13 16L13 15ZM6 16L6 17L9 17L9 16ZM16 16L16 17L17 17L17 16ZM32 17L32 18L33 18L33 20L36 20L36 19L35 19L35 18L34 18L34 17ZM12 18L12 20L13 20L13 18ZM17 18L17 19L18 19L18 18ZM21 19L21 21L20 21L20 20L19 20L19 21L20 21L20 22L22 22L22 21L23 21L23 22L25 22L25 23L26 23L26 24L24 24L24 25L23 25L23 26L24 26L24 27L26 27L26 28L27 28L27 27L28 27L28 26L29 26L29 25L28 25L28 26L27 26L27 25L26 25L26 24L29 24L29 23L28 23L28 22L26 22L26 20L25 20L25 21L24 21L24 20L22 20L22 19ZM31 21L31 22L32 22L32 21ZM4 22L4 23L5 23L5 22ZM7 23L7 24L8 24L8 25L10 25L10 24L8 24L8 23ZM16 24L16 25L17 25L17 27L18 27L18 26L20 26L20 25L17 25L17 24ZM24 25L24 26L26 26L26 25ZM9 26L9 27L10 27L10 26ZM12 26L12 27L11 27L11 28L10 28L10 29L11 29L11 28L12 28L12 29L13 29L13 26ZM29 29L29 32L32 32L32 29ZM33 29L33 30L34 30L34 29ZM27 30L27 32L28 32L28 30ZM30 30L30 31L31 31L31 30ZM25 31L25 32L26 32L26 31ZM8 32L8 37L9 37L9 32ZM13 32L13 33L14 33L14 32ZM27 33L27 34L28 34L28 35L29 35L29 33ZM31 33L31 34L30 34L30 35L31 35L31 34L32 34L32 33ZM0 0L0 7L7 7L7 0ZM1 1L1 6L6 6L6 1ZM2 2L2 5L5 5L5 2ZM30 0L30 7L37 7L37 0ZM31 1L31 6L36 6L36 1ZM32 2L32 5L35 5L35 2ZM0 30L0 37L7 37L7 30ZM1 31L1 36L6 36L6 31ZM2 32L2 35L5 35L5 32Z" fill="#000000"/></g></g></svg>
