<?xml version="1.0" encoding="UTF-8"?>
<svg xmlns="http://www.w3.org/2000/svg" version="1.1" width="100" height="100" viewBox="0 0 100 100"><rect x="0" y="0" width="100" height="100" fill="#ffffff"/><g transform="scale(2.703)"><g transform="translate(0,0)"><path fill-rule="evenodd" d="M13 0L13 1L12 1L12 2L13 2L13 1L15 1L15 2L17 2L17 1L15 1L15 0ZM20 0L20 1L21 1L21 2L20 2L20 3L19 3L19 2L18 2L18 3L14 3L14 4L13 4L13 5L12 5L12 7L11 7L11 5L10 5L10 7L9 7L9 5L8 5L8 7L9 7L9 8L6 8L6 9L10 9L10 7L11 7L11 9L15 9L15 8L16 8L16 7L17 7L17 6L18 6L18 8L20 8L20 9L19 9L19 10L20 10L20 11L18 11L18 12L20 12L20 11L21 11L21 12L22 12L22 13L23 13L23 14L24 14L24 15L27 15L27 16L24 16L24 17L23 17L23 16L22 16L22 14L21 14L21 13L20 13L20 14L21 14L21 16L19 16L19 13L16 13L16 14L15 14L15 11L17 11L17 9L16 9L16 10L15 10L15 11L14 11L14 10L13 10L13 11L12 11L12 13L14 13L14 14L15 14L15 16L13 16L13 15L10 15L10 14L11 14L11 13L10 13L10 14L9 14L9 12L10 12L10 10L8 10L8 11L7 11L7 10L4 10L4 9L5 9L5 8L0 8L0 10L1 10L1 11L0 11L0 13L1 13L1 14L0 14L0 15L2 15L2 16L3 16L3 17L5 17L5 16L6 16L6 17L7 17L7 18L3 18L3 21L2 21L2 22L0 22L0 24L2 24L2 25L4 25L4 26L5 26L5 28L2 28L2 29L5 29L5 28L6 28L6 29L7 29L7 28L8 28L8 31L9 31L9 27L10 27L10 28L11 28L11 27L10 27L10 26L11 26L11 25L13 25L13 24L11 24L11 23L10 23L10 21L9 21L9 20L11 20L11 22L12 22L12 23L13 23L13 22L12 22L12 20L13 20L13 19L12 19L12 20L11 20L11 18L15 18L15 19L14 19L14 22L15 22L15 23L16 23L16 22L17 22L17 23L18 23L18 24L14 24L14 26L13 26L13 27L14 27L14 26L15 26L15 27L16 27L16 26L15 26L15 25L18 25L18 24L20 24L20 23L18 23L18 22L21 22L21 24L22 24L22 22L21 22L21 21L23 21L23 22L25 22L25 23L26 23L26 24L24 24L24 25L23 25L23 26L22 26L22 27L21 27L21 25L20 25L20 27L19 27L19 28L20 28L20 27L21 27L21 29L19 29L19 30L18 30L18 28L15 28L15 29L14 29L14 28L13 28L13 29L14 29L14 30L15 30L15 32L14 32L14 33L13 33L13 32L12 32L12 33L11 33L11 32L10 32L10 36L9 36L9 32L8 32L8 37L10 37L10 36L11 36L11 34L12 34L12 33L13 33L13 34L14 34L14 33L15 33L15 35L16 35L16 36L17 36L17 35L16 35L16 34L17 34L17 33L18 33L18 32L17 32L17 31L16 31L16 30L18 30L18 31L19 31L19 33L20 33L20 34L21 34L21 33L20 33L20 32L22 32L22 31L23 31L23 32L24 32L24 33L23 33L23 34L22 34L22 35L21 35L21 36L19 36L19 34L18 34L18 36L19 36L19 37L23 37L23 34L24 34L24 33L26 33L26 35L27 35L27 36L25 36L25 35L24 35L24 37L27 37L27 36L30 36L30 37L32 37L32 34L33 34L33 33L34 33L34 34L35 34L35 35L36 35L36 36L33 36L33 37L37 37L37 34L35 34L35 32L33 32L33 31L34 31L34 30L35 30L35 31L37 31L37 30L35 30L35 28L33 28L33 26L34 26L34 25L35 25L35 27L36 27L36 28L37 28L37 26L36 26L36 25L37 25L37 22L36 22L36 21L37 21L37 18L36 18L36 17L37 17L37 14L36 14L36 13L35 13L35 12L34 12L34 11L35 11L35 9L36 9L36 8L35 8L35 9L34 9L34 8L33 8L33 9L34 9L34 11L33 11L33 10L32 10L32 8L31 8L31 10L30 10L30 8L25 8L25 6L26 6L26 7L27 7L27 6L28 6L28 7L29 7L29 6L28 6L28 5L29 5L29 4L28 4L28 3L29 3L29 2L28 2L28 1L29 1L29 0L28 0L28 1L26 1L26 3L24 3L24 4L20 4L20 3L23 3L23 2L22 2L22 1L24 1L24 2L25 2L25 0ZM8 1L8 2L9 2L9 3L8 3L8 4L9 4L9 3L11 3L11 1ZM14 4L14 5L13 5L13 8L14 8L14 5L16 5L16 6L15 6L15 7L16 7L16 6L17 6L17 5L18 5L18 6L19 6L19 7L20 7L20 8L21 8L21 9L20 9L20 10L21 10L21 9L22 9L22 10L23 10L23 11L22 11L22 12L23 12L23 13L25 13L25 12L26 12L26 11L27 11L27 13L26 13L26 14L28 14L28 13L29 13L29 14L31 14L31 16L35 16L35 17L36 17L36 14L35 14L35 15L34 15L34 13L32 13L32 12L31 12L31 13L29 13L29 12L30 12L30 11L29 11L29 12L28 12L28 11L27 11L27 10L28 10L28 9L26 9L26 10L25 10L25 8L24 8L24 6L25 6L25 5L26 5L26 6L27 6L27 5L28 5L28 4L27 4L27 5L26 5L26 4L25 4L25 5L22 5L22 6L21 6L21 7L20 7L20 5L19 5L19 4ZM22 6L22 7L21 7L21 8L22 8L22 7L23 7L23 6ZM23 8L23 10L24 10L24 11L23 11L23 12L25 12L25 10L24 10L24 8ZM1 9L1 10L2 10L2 12L4 12L4 11L3 11L3 9ZM31 10L31 11L32 11L32 10ZM36 10L36 11L37 11L37 10ZM6 11L6 12L7 12L7 11ZM13 11L13 12L14 12L14 11ZM3 13L3 16L5 16L5 15L4 15L4 13ZM5 13L5 14L7 14L7 15L6 15L6 16L7 16L7 17L8 17L8 18L9 18L9 16L10 16L10 15L9 15L9 16L7 16L7 15L8 15L8 14L7 14L7 13ZM16 14L16 16L15 16L15 18L16 18L16 19L15 19L15 22L16 22L16 21L17 21L17 20L18 20L18 18L19 18L19 19L20 19L20 20L19 20L19 21L20 21L20 20L21 20L21 19L23 19L23 20L24 20L24 21L25 21L25 20L26 20L26 22L28 22L28 23L29 23L29 24L26 24L26 25L24 25L24 26L23 26L23 27L22 27L22 28L26 28L26 29L27 29L27 28L29 28L29 26L30 26L30 28L31 28L31 27L32 27L32 26L33 26L33 25L32 25L32 26L31 26L31 25L30 25L30 23L29 23L29 22L28 22L28 21L29 21L29 20L28 20L28 21L27 21L27 20L26 20L26 19L25 19L25 18L29 18L29 19L30 19L30 20L31 20L31 21L30 21L30 22L31 22L31 23L32 23L32 24L36 24L36 23L35 23L35 21L32 21L32 20L31 20L31 19L30 19L30 18L31 18L31 17L30 17L30 18L29 18L29 16L27 16L27 17L25 17L25 18L20 18L20 17L19 17L19 16L18 16L18 14ZM32 14L32 15L33 15L33 14ZM0 16L0 18L1 18L1 19L0 19L0 21L1 21L1 19L2 19L2 18L1 18L1 16ZM11 16L11 17L10 17L10 18L11 18L11 17L13 17L13 16ZM16 16L16 17L17 17L17 18L18 18L18 16ZM32 17L32 18L33 18L33 20L36 20L36 19L35 19L35 18L34 18L34 17ZM6 19L6 20L7 20L7 21L4 21L4 22L2 22L2 24L3 24L3 23L4 23L4 22L7 22L7 23L6 23L6 24L8 24L8 23L9 23L9 24L10 24L10 25L11 25L11 24L10 24L10 23L9 23L9 22L7 22L7 21L8 21L8 20L9 20L9 19L8 19L8 20L7 20L7 19ZM16 19L16 20L17 20L17 19ZM31 21L31 22L32 22L32 21ZM0 25L0 29L1 29L1 25ZM5 25L5 26L7 26L7 27L6 27L6 28L7 28L7 27L8 27L8 26L9 26L9 25L8 25L8 26L7 26L7 25ZM26 25L26 26L24 26L24 27L26 27L26 28L27 28L27 27L28 27L28 26L29 26L29 25L28 25L28 26L27 26L27 25ZM2 26L2 27L3 27L3 26ZM26 26L26 27L27 27L27 26ZM11 29L11 30L12 30L12 29ZM21 29L21 30L19 30L19 31L21 31L21 30L23 30L23 31L24 31L24 30L25 30L25 29L24 29L24 30L23 30L23 29ZM29 29L29 32L32 32L32 29ZM33 29L33 30L34 30L34 29ZM27 30L27 32L28 32L28 30ZM30 30L30 31L31 31L31 30ZM25 31L25 32L26 32L26 31ZM27 33L27 34L28 34L28 35L29 35L29 33ZM31 33L31 34L30 34L30 35L31 35L31 34L32 34L32 33ZM12 35L12 36L13 36L13 37L15 37L15 36L13 36L13 35ZM0 0L0 7L7 7L7 0ZM1 1L1 6L6 6L6 1ZM2 2L2 5L5 5L5 2ZM30 0L30 7L37 7L37 0ZM31 1L31 6L36 6L36 1ZM32 2L32 5L35 5L35 2ZM0 30L0 37L7 37L7 30ZM1 31L1 36L6 36L6 31ZM2 32L2 35L5 35L5 32Z" fill="#000000"/></g></g></svg>
