<?xml version="1.0" encoding="UTF-8"?>
<svg xmlns="http://www.w3.org/2000/svg" version="1.1" width="100" height="100" viewBox="0 0 100 100"><rect x="0" y="0" width="100" height="100" fill="#ffffff"/><g transform="scale(2.703)"><g transform="translate(0,0)"><path fill-rule="evenodd" d="M10 0L10 1L8 1L8 3L9 3L9 2L10 2L10 5L9 5L9 4L8 4L8 8L6 8L6 9L7 9L7 10L6 10L6 11L7 11L7 12L5 12L5 9L4 9L4 8L3 8L3 9L4 9L4 10L2 10L2 8L0 8L0 9L1 9L1 10L0 10L0 11L1 11L1 12L0 12L0 13L3 13L3 14L1 14L1 15L0 15L0 19L1 19L1 20L0 20L0 21L1 21L1 20L3 20L3 19L2 19L2 18L1 18L1 15L2 15L2 16L4 16L4 17L3 17L3 18L4 18L4 19L5 19L5 20L4 20L4 22L2 22L2 23L1 23L1 22L0 22L0 25L1 25L1 26L0 26L0 27L1 27L1 28L0 28L0 29L3 29L3 28L4 28L4 29L5 29L5 28L6 28L6 29L8 29L8 31L9 31L9 32L10 32L10 33L8 33L8 34L9 34L9 35L8 35L8 37L9 37L9 36L11 36L11 37L13 37L13 36L14 36L14 35L15 35L15 36L17 36L17 37L20 37L20 36L22 36L22 35L21 35L21 33L22 33L22 34L23 34L23 33L24 33L24 34L25 34L25 36L24 36L24 37L26 37L26 36L27 36L27 37L29 37L29 36L30 36L30 37L33 37L33 35L34 35L34 34L35 34L35 35L37 35L37 33L36 33L36 32L37 32L37 29L36 29L36 30L35 30L35 28L36 28L36 27L37 27L37 24L35 24L35 25L33 25L33 26L32 26L32 24L33 24L33 23L34 23L34 22L31 22L31 20L32 20L32 21L33 21L33 19L34 19L34 20L36 20L36 22L35 22L35 23L37 23L37 20L36 20L36 19L37 19L37 16L36 16L36 15L37 15L37 13L36 13L36 14L35 14L35 16L34 16L34 18L33 18L33 17L32 17L32 18L31 18L31 16L32 16L32 15L34 15L34 14L32 14L32 15L31 15L31 12L29 12L29 11L32 11L32 10L31 10L31 9L33 9L33 8L30 8L30 10L29 10L29 9L28 9L28 12L27 12L27 13L29 13L29 14L30 14L30 15L31 15L31 16L29 16L29 15L27 15L27 14L26 14L26 11L27 11L27 10L25 10L25 9L27 9L27 8L25 8L25 9L24 9L24 11L23 11L23 10L22 10L22 9L23 9L23 8L24 8L24 7L25 7L25 5L26 5L26 7L27 7L27 6L28 6L28 8L29 8L29 6L28 6L28 5L29 5L29 4L28 4L28 3L27 3L27 2L29 2L29 1L28 1L28 0L26 0L26 4L24 4L24 1L25 1L25 0L23 0L23 1L20 1L20 0L18 0L18 1L20 1L20 2L23 2L23 4L22 4L22 5L20 5L20 4L21 4L21 3L18 3L18 2L17 2L17 1L15 1L15 2L17 2L17 3L14 3L14 8L13 8L13 5L12 5L12 8L10 8L10 7L11 7L11 6L10 6L10 5L11 5L11 2L12 2L12 3L13 3L13 2L14 2L14 1L13 1L13 2L12 2L12 0ZM10 1L10 2L11 2L11 1ZM17 3L17 5L16 5L16 6L15 6L15 7L16 7L16 6L17 6L17 7L18 7L18 9L21 9L21 8L20 8L20 6L19 6L19 7L18 7L18 6L17 6L17 5L19 5L19 4L18 4L18 3ZM26 4L26 5L27 5L27 4ZM22 5L22 6L21 6L21 7L22 7L22 6L23 6L23 7L24 7L24 5ZM9 6L9 7L10 7L10 6ZM8 8L8 9L9 9L9 10L8 10L8 13L5 13L5 12L4 12L4 13L5 13L5 14L8 14L8 13L9 13L9 14L10 14L10 15L9 15L9 16L7 16L7 15L5 15L5 17L6 17L6 18L5 18L5 19L6 19L6 20L8 20L8 21L5 21L5 22L4 22L4 25L3 25L3 24L2 24L2 25L3 25L3 26L1 26L1 27L2 27L2 28L3 28L3 26L4 26L4 27L6 27L6 28L7 28L7 27L8 27L8 25L6 25L6 24L7 24L7 23L8 23L8 24L9 24L9 25L10 25L10 27L9 27L9 28L11 28L11 29L9 29L9 31L12 31L12 32L11 32L11 33L10 33L10 35L11 35L11 36L13 36L13 35L12 35L12 34L11 34L11 33L12 33L12 32L14 32L14 33L13 33L13 34L14 34L14 33L15 33L15 35L16 35L16 33L18 33L18 32L19 32L19 31L20 31L20 33L21 33L21 31L22 31L22 32L26 32L26 31L27 31L27 34L26 34L26 35L29 35L29 34L30 34L30 36L32 36L32 34L31 34L31 33L28 33L28 31L27 31L27 29L28 29L28 28L30 28L30 27L31 27L31 28L32 28L32 26L29 26L29 25L30 25L30 24L32 24L32 23L29 23L29 22L30 22L30 18L29 18L29 16L28 16L28 17L27 17L27 15L26 15L26 16L25 16L25 17L24 17L24 16L23 16L23 17L22 17L22 18L21 18L21 17L19 17L19 16L20 16L20 14L19 14L19 13L20 13L20 12L21 12L21 11L22 11L22 13L23 13L23 14L25 14L25 11L24 11L24 12L23 12L23 11L22 11L22 10L21 10L21 11L20 11L20 12L19 12L19 11L17 11L17 10L16 10L16 9L13 9L13 8L12 8L12 9L10 9L10 8ZM34 8L34 10L33 10L33 12L34 12L34 11L35 11L35 10L36 10L36 12L37 12L37 9L36 9L36 8ZM9 10L9 11L10 11L10 12L9 12L9 13L10 13L10 12L12 12L12 14L11 14L11 17L10 17L10 16L9 16L9 17L8 17L8 18L6 18L6 19L8 19L8 18L10 18L10 19L9 19L9 20L10 20L10 21L8 21L8 23L9 23L9 24L10 24L10 25L11 25L11 24L13 24L13 26L11 26L11 28L12 28L12 27L13 27L13 28L14 28L14 27L15 27L15 26L14 26L14 24L17 24L17 25L19 25L19 26L20 26L20 28L18 28L18 27L17 27L17 26L16 26L16 27L17 27L17 28L16 28L16 29L18 29L18 30L20 30L20 29L21 29L21 28L22 28L22 31L23 31L23 30L24 30L24 31L26 31L26 30L25 30L25 28L26 28L26 29L27 29L27 27L26 27L26 26L27 26L27 25L29 25L29 23L27 23L27 24L26 24L26 23L24 23L24 26L23 26L23 25L21 25L21 24L22 24L22 23L23 23L23 22L22 22L22 21L21 21L21 20L22 20L22 19L23 19L23 20L25 20L25 21L26 21L26 20L28 20L28 22L29 22L29 20L28 20L28 19L26 19L26 18L27 18L27 17L25 17L25 19L23 19L23 18L24 18L24 17L23 17L23 18L22 18L22 19L21 19L21 20L20 20L20 19L19 19L19 17L18 17L18 16L19 16L19 14L18 14L18 15L17 15L17 14L16 14L16 15L15 15L15 14L14 14L14 13L13 13L13 12L16 12L16 13L17 13L17 11L13 11L13 10L12 10L12 11L10 11L10 10ZM2 11L2 12L3 12L3 11ZM12 11L12 12L13 12L13 11ZM12 15L12 18L11 18L11 19L10 19L10 20L11 20L11 19L12 19L12 18L13 18L13 17L14 17L14 18L15 18L15 19L13 19L13 20L12 20L12 21L13 21L13 20L14 20L14 21L15 21L15 20L16 20L16 18L15 18L15 17L16 17L16 16L13 16L13 15ZM6 16L6 17L7 17L7 16ZM35 16L35 17L36 17L36 16ZM17 17L17 18L18 18L18 17ZM32 18L32 19L33 19L33 18ZM25 19L25 20L26 20L26 19ZM18 20L18 21L17 21L17 22L11 22L11 23L10 23L10 22L9 22L9 23L10 23L10 24L11 24L11 23L17 23L17 24L18 24L18 23L19 23L19 24L21 24L21 23L22 23L22 22L21 22L21 21L20 21L20 20ZM5 22L5 24L6 24L6 23L7 23L7 22ZM17 22L17 23L18 23L18 22ZM19 22L19 23L21 23L21 22ZM4 25L4 26L5 26L5 25ZM20 25L20 26L21 26L21 27L23 27L23 26L21 26L21 25ZM25 25L25 26L26 26L26 25ZM35 25L35 27L33 27L33 34L34 34L34 33L35 33L35 32L34 32L34 28L35 28L35 27L36 27L36 25ZM6 26L6 27L7 27L7 26ZM13 26L13 27L14 27L14 26ZM28 26L28 27L29 27L29 26ZM12 29L12 30L15 30L15 29ZM29 29L29 32L32 32L32 29ZM16 30L16 31L15 31L15 32L16 32L16 31L17 31L17 32L18 32L18 31L17 31L17 30ZM30 30L30 31L31 31L31 30ZM17 34L17 36L19 36L19 35L18 35L18 34ZM35 36L35 37L37 37L37 36ZM0 0L0 7L7 7L7 0ZM1 1L1 6L6 6L6 1ZM2 2L2 5L5 5L5 2ZM30 0L30 7L37 7L37 0ZM31 1L31 6L36 6L36 1ZM32 2L32 5L35 5L35 2ZM0 30L0 37L7 37L7 30ZM1 31L1 36L6 36L6 31ZM2 32L2 35L5 35L5 32Z" fill="#000000"/></g></g></svg>
