<?xml version="1.0" encoding="UTF-8"?>
<svg xmlns="http://www.w3.org/2000/svg" version="1.1" width="100" height="100" viewBox="0 0 100 100"><rect x="0" y="0" width="100" height="100" fill="#ffffff"/><g transform="scale(2.703)"><g transform="translate(0,0)"><path fill-rule="evenodd" d="M9 0L9 1L8 1L8 2L9 2L9 3L8 3L8 4L10 4L10 7L11 7L11 8L6 8L6 9L5 9L5 8L0 8L0 9L1 9L1 10L0 10L0 11L3 11L3 13L2 13L2 12L0 12L0 13L1 13L1 14L0 14L0 18L1 18L1 19L2 19L2 21L3 21L3 23L4 23L4 25L2 25L2 24L1 24L1 23L0 23L0 29L1 29L1 25L2 25L2 26L3 26L3 27L2 27L2 29L3 29L3 28L4 28L4 29L8 29L8 31L9 31L9 32L8 32L8 37L9 37L9 36L10 36L10 37L11 37L11 36L10 36L10 35L9 35L9 34L10 34L10 33L9 33L9 32L11 32L11 34L12 34L12 35L14 35L14 37L15 37L15 36L16 36L16 37L19 37L19 36L20 36L20 37L21 37L21 36L23 36L23 35L21 35L21 34L26 34L26 35L27 35L27 36L24 36L24 37L27 37L27 36L29 36L29 35L30 35L30 37L32 37L32 34L33 34L33 33L34 33L34 34L35 34L35 35L36 35L36 36L33 36L33 37L37 37L37 34L35 34L35 33L37 33L37 32L36 32L36 31L37 31L37 30L35 30L35 28L33 28L33 26L34 26L34 25L35 25L35 27L36 27L36 28L37 28L37 26L36 26L36 25L37 25L37 22L36 22L36 21L37 21L37 18L36 18L36 17L37 17L37 14L36 14L36 13L35 13L35 12L34 12L34 11L35 11L35 9L36 9L36 8L35 8L35 9L34 9L34 8L33 8L33 9L34 9L34 11L33 11L33 10L32 10L32 8L31 8L31 10L30 10L30 8L29 8L29 9L28 9L28 7L29 7L29 4L28 4L28 5L27 5L27 3L28 3L28 2L29 2L29 0L28 0L28 1L26 1L26 0L25 0L25 1L24 1L24 0L23 0L23 1L24 1L24 2L25 2L25 1L26 1L26 2L27 2L27 3L24 3L24 4L23 4L23 2L21 2L21 1L20 1L20 0L19 0L19 1L17 1L17 0L16 0L16 1L15 1L15 0L13 0L13 1L11 1L11 2L10 2L10 0ZM13 1L13 2L12 2L12 3L13 3L13 7L12 7L12 4L11 4L11 3L10 3L10 4L11 4L11 7L12 7L12 8L14 8L14 5L16 5L16 4L14 4L14 3L15 3L15 1ZM16 1L16 3L19 3L19 2L20 2L20 1L19 1L19 2L17 2L17 1ZM20 3L20 5L19 5L19 4L17 4L17 5L19 5L19 7L18 7L18 6L17 6L17 7L16 7L16 6L15 6L15 7L16 7L16 8L17 8L17 9L14 9L14 11L13 11L13 10L11 10L11 9L10 9L10 10L11 10L11 11L9 11L9 12L7 12L7 11L5 11L5 12L7 12L7 13L4 13L4 14L2 14L2 16L3 16L3 17L4 17L4 18L2 18L2 17L1 17L1 18L2 18L2 19L3 19L3 21L4 21L4 22L5 22L5 23L6 23L6 24L7 24L7 25L6 25L6 26L4 26L4 28L5 28L5 27L6 27L6 28L7 28L7 27L6 27L6 26L8 26L8 24L9 24L9 29L10 29L10 28L11 28L11 29L12 29L12 30L9 30L9 31L11 31L11 32L14 32L14 33L12 33L12 34L14 34L14 35L15 35L15 34L14 34L14 33L15 33L15 32L16 32L16 33L17 33L17 35L16 35L16 36L19 36L19 35L20 35L20 36L21 36L21 35L20 35L20 33L21 33L21 31L23 31L23 32L24 32L24 33L25 33L25 32L28 32L28 29L25 29L25 30L23 30L23 29L24 29L24 28L26 28L26 27L27 27L27 28L29 28L29 27L27 27L27 26L30 26L30 28L31 28L31 27L32 27L32 26L33 26L33 25L32 25L32 26L31 26L31 25L30 25L30 23L29 23L29 24L27 24L27 23L26 23L26 21L25 21L25 20L26 20L26 19L25 19L25 18L21 18L21 19L20 19L20 18L19 18L19 15L20 15L20 12L21 12L21 11L22 11L22 12L23 12L23 13L25 13L25 14L26 14L26 15L24 15L24 14L23 14L23 16L20 16L20 17L24 17L24 16L26 16L26 17L27 17L27 18L28 18L28 19L30 19L30 20L31 20L31 21L30 21L30 22L31 22L31 23L32 23L32 24L36 24L36 23L35 23L35 21L32 21L32 20L31 20L31 19L30 19L30 18L31 18L31 17L30 17L30 18L28 18L28 17L29 17L29 16L28 16L28 17L27 17L27 16L26 16L26 15L27 15L27 14L28 14L28 13L27 13L27 12L26 12L26 11L25 11L25 10L23 10L23 9L25 9L25 8L26 8L26 10L28 10L28 11L29 11L29 12L30 12L30 11L29 11L29 10L28 10L28 9L27 9L27 8L26 8L26 6L27 6L27 7L28 7L28 6L27 6L27 5L26 5L26 4L25 4L25 5L26 5L26 6L25 6L25 8L24 8L24 5L23 5L23 9L21 9L21 7L22 7L22 6L21 6L21 7L20 7L20 5L21 5L21 4L22 4L22 3ZM8 5L8 7L9 7L9 5ZM19 7L19 9L18 9L18 10L15 10L15 12L16 12L16 11L18 11L18 12L19 12L19 11L18 11L18 10L19 10L19 9L20 9L20 10L21 10L21 9L20 9L20 7ZM2 9L2 10L4 10L4 9ZM6 9L6 10L9 10L9 9ZM31 10L31 11L32 11L32 10ZM36 10L36 11L37 11L37 10ZM12 11L12 12L11 12L11 13L8 13L8 16L5 16L5 18L6 18L6 19L7 19L7 18L9 18L9 19L10 19L10 18L12 18L12 19L11 19L11 20L12 20L12 21L9 21L9 20L8 20L8 21L7 21L7 20L5 20L5 19L4 19L4 21L7 21L7 22L6 22L6 23L9 23L9 24L10 24L10 25L11 25L11 26L10 26L10 27L11 27L11 28L12 28L12 27L15 27L15 28L13 28L13 30L12 30L12 31L16 31L16 32L17 32L17 31L16 31L16 30L14 30L14 29L17 29L17 28L16 28L16 26L17 26L17 27L19 27L19 28L20 28L20 27L19 27L19 26L20 26L20 25L21 25L21 26L22 26L22 27L21 27L21 28L22 28L22 29L23 29L23 28L22 28L22 27L23 27L23 26L24 26L24 27L25 27L25 25L27 25L27 24L25 24L25 22L24 22L24 20L25 20L25 19L24 19L24 20L22 20L22 19L21 19L21 20L22 20L22 21L23 21L23 22L24 22L24 23L21 23L21 21L20 21L20 19L19 19L19 18L18 18L18 17L17 17L17 16L16 16L16 15L18 15L18 14L19 14L19 13L14 13L14 12L13 12L13 11ZM24 11L24 12L25 12L25 13L26 13L26 14L27 14L27 13L26 13L26 12L25 12L25 11ZM12 12L12 14L11 14L11 15L10 15L10 14L9 14L9 15L10 15L10 16L8 16L8 17L9 17L9 18L10 18L10 16L11 16L11 17L12 17L12 18L13 18L13 19L12 19L12 20L15 20L15 21L12 21L12 22L11 22L11 23L10 23L10 24L12 24L12 25L13 25L13 26L15 26L15 25L13 25L13 24L15 24L15 21L17 21L17 22L16 22L16 24L17 24L17 26L19 26L19 25L20 25L20 21L17 21L17 20L18 20L18 18L16 18L16 19L17 19L17 20L15 20L15 18L13 18L13 17L14 17L14 16L15 16L15 15L13 15L13 16L11 16L11 15L12 15L12 14L14 14L14 13L13 13L13 12ZM31 12L31 13L29 13L29 14L31 14L31 16L35 16L35 17L36 17L36 14L35 14L35 15L34 15L34 13L32 13L32 12ZM4 14L4 15L5 15L5 14ZM6 14L6 15L7 15L7 14ZM32 14L32 15L33 15L33 14ZM6 17L6 18L7 18L7 17ZM32 17L32 18L33 18L33 20L36 20L36 19L35 19L35 18L34 18L34 17ZM0 20L0 21L1 21L1 20ZM28 20L28 21L27 21L27 22L28 22L28 21L29 21L29 20ZM8 21L8 22L9 22L9 21ZM31 21L31 22L32 22L32 21ZM12 22L12 24L13 24L13 23L14 23L14 22ZM17 22L17 23L19 23L19 22ZM21 24L21 25L22 25L22 24ZM23 24L23 25L25 25L25 24ZM11 26L11 27L12 27L12 26ZM18 29L18 30L19 30L19 29ZM20 29L20 30L21 30L21 29ZM29 29L29 32L32 32L32 29ZM33 29L33 30L34 30L34 31L33 31L33 32L35 32L35 30L34 30L34 29ZM25 30L25 31L26 31L26 30ZM30 30L30 31L31 31L31 30ZM19 31L19 33L20 33L20 31ZM26 33L26 34L27 34L27 35L28 35L28 33ZM31 33L31 34L30 34L30 35L31 35L31 34L32 34L32 33ZM18 34L18 35L19 35L19 34ZM12 36L12 37L13 37L13 36ZM0 0L0 7L7 7L7 0ZM1 1L1 6L6 6L6 1ZM2 2L2 5L5 5L5 2ZM30 0L30 7L37 7L37 0ZM31 1L31 6L36 6L36 1ZM32 2L32 5L35 5L35 2ZM0 30L0 37L7 37L7 30ZM1 31L1 36L6 36L6 31ZM2 32L2 35L5 35L5 32Z" fill="#000000"/></g></g></svg>
