<?xml version="1.0" encoding="UTF-8"?>
<svg xmlns="http://www.w3.org/2000/svg" version="1.1" width="100" height="100" viewBox="0 0 100 100"><rect x="0" y="0" width="100" height="100" fill="#ffffff"/><g transform="scale(3.03)"><g transform="translate(0,0)"><path fill-rule="evenodd" d="M12 0L12 1L13 1L13 2L14 2L14 1L15 1L15 4L14 4L14 3L13 3L13 4L11 4L11 3L12 3L12 2L11 2L11 1L10 1L10 2L11 2L11 3L8 3L8 4L9 4L9 5L8 5L8 7L9 7L9 8L6 8L6 9L5 9L5 8L0 8L0 9L1 9L1 10L0 10L0 11L1 11L1 12L0 12L0 15L1 15L1 17L2 17L2 16L3 16L3 15L4 15L4 18L3 18L3 21L4 21L4 22L3 22L3 23L2 23L2 25L3 25L3 24L4 24L4 25L5 25L5 21L7 21L7 22L6 22L6 23L7 23L7 24L6 24L6 25L7 25L7 24L8 24L8 27L11 27L11 28L10 28L10 29L9 29L9 28L8 28L8 33L10 33L10 32L11 32L11 31L10 31L10 32L9 32L9 30L10 30L10 29L11 29L11 30L12 30L12 29L14 29L14 31L15 31L15 32L13 32L13 31L12 31L12 33L16 33L16 31L17 31L17 29L18 29L18 28L20 28L20 29L19 29L19 30L20 30L20 32L22 32L22 33L26 33L26 31L27 31L27 32L28 32L28 33L29 33L29 32L31 32L31 33L32 33L32 32L31 32L31 31L32 31L32 30L31 30L31 29L30 29L30 30L29 30L29 28L32 28L32 29L33 29L33 27L32 27L32 26L33 26L33 24L32 24L32 26L31 26L31 25L29 25L29 24L31 24L31 23L32 23L32 22L33 22L33 21L32 21L32 20L31 20L31 19L32 19L32 18L33 18L33 17L32 17L32 16L31 16L31 15L32 15L32 14L33 14L33 13L31 13L31 15L30 15L30 13L29 13L29 12L28 12L28 13L29 13L29 14L27 14L27 13L26 13L26 12L27 12L27 11L28 11L28 10L27 10L27 9L28 9L28 8L27 8L27 9L26 9L26 8L25 8L25 9L26 9L26 10L25 10L25 11L24 11L24 13L23 13L23 12L22 12L22 11L21 11L21 12L20 12L20 11L19 11L19 10L24 10L24 9L23 9L23 5L24 5L24 7L25 7L25 5L24 5L24 4L25 4L25 3L24 3L24 4L23 4L23 1L24 1L24 0L23 0L23 1L22 1L22 0L19 0L19 1L22 1L22 2L18 2L18 3L19 3L19 5L20 5L20 7L21 7L21 8L22 8L22 9L18 9L18 8L17 8L17 6L18 6L18 7L19 7L19 6L18 6L18 4L16 4L16 3L17 3L17 0L16 0L16 1L15 1L15 0L14 0L14 1L13 1L13 0ZM8 1L8 2L9 2L9 1ZM20 3L20 4L21 4L21 7L22 7L22 5L23 5L23 4L22 4L22 3ZM10 4L10 6L9 6L9 7L10 7L10 6L11 6L11 8L10 8L10 9L6 9L6 10L4 10L4 11L3 11L3 10L2 10L2 13L1 13L1 15L3 15L3 14L4 14L4 15L5 15L5 17L6 17L6 18L7 18L7 17L6 17L6 16L9 16L9 17L10 17L10 19L6 19L6 20L7 20L7 21L8 21L8 20L11 20L11 21L10 21L10 23L11 23L11 24L9 24L9 26L11 26L11 27L12 27L12 26L16 26L16 27L13 27L13 28L16 28L16 29L15 29L15 30L16 30L16 29L17 29L17 28L18 28L18 27L20 27L20 28L21 28L21 29L22 29L22 28L21 28L21 27L22 27L22 25L24 25L24 24L28 24L28 23L29 23L29 21L30 21L30 22L31 22L31 20L29 20L29 17L30 17L30 19L31 19L31 16L30 16L30 15L29 15L29 17L27 17L27 16L28 16L28 15L27 15L27 14L25 14L25 13L24 13L24 14L23 14L23 13L22 13L22 12L21 12L21 14L22 14L22 15L25 15L25 17L24 17L24 16L23 16L23 17L22 17L22 16L21 16L21 17L22 17L22 18L23 18L23 19L24 19L24 20L26 20L26 21L27 21L27 22L26 22L26 23L24 23L24 22L19 22L19 21L22 21L22 20L21 20L21 19L20 19L20 18L19 18L19 17L20 17L20 14L18 14L18 13L20 13L20 12L19 12L19 11L18 11L18 10L16 10L16 9L17 9L17 8L16 8L16 9L15 9L15 10L16 10L16 11L14 11L14 9L13 9L13 8L14 8L14 5L11 5L11 4ZM15 4L15 5L16 5L16 6L15 6L15 7L16 7L16 6L17 6L17 5L16 5L16 4ZM12 6L12 7L13 7L13 6ZM11 8L11 9L10 9L10 11L11 11L11 10L12 10L12 11L13 11L13 9L12 9L12 8ZM29 8L29 9L30 9L30 8ZM31 8L31 10L33 10L33 9L32 9L32 8ZM6 10L6 11L4 11L4 12L3 12L3 13L2 13L2 14L3 14L3 13L4 13L4 14L5 14L5 13L7 13L7 14L6 14L6 15L7 15L7 14L9 14L9 15L10 15L10 17L14 17L14 20L12 20L12 21L11 21L11 22L12 22L12 23L13 23L13 22L12 22L12 21L16 21L16 22L14 22L14 24L11 24L11 26L12 26L12 25L14 25L14 24L17 24L17 25L16 25L16 26L17 26L17 27L18 27L18 26L20 26L20 27L21 27L21 24L23 24L23 23L20 23L20 25L19 25L19 24L17 24L17 23L19 23L19 22L17 22L17 21L19 21L19 20L17 20L17 18L18 18L18 17L19 17L19 15L18 15L18 16L17 16L17 13L18 13L18 12L12 12L12 13L11 13L11 12L9 12L9 10L8 10L8 11L7 11L7 10ZM6 11L6 12L7 12L7 11ZM30 11L30 12L31 12L31 11ZM4 12L4 13L5 13L5 12ZM8 12L8 13L9 13L9 14L11 14L11 16L12 16L12 15L13 15L13 16L15 16L15 17L17 17L17 16L16 16L16 15L15 15L15 14L16 14L16 13L15 13L15 14L14 14L14 13L12 13L12 14L11 14L11 13L9 13L9 12ZM13 14L13 15L14 15L14 14ZM26 15L26 16L27 16L27 15ZM23 17L23 18L24 18L24 17ZM26 17L26 18L25 18L25 19L26 19L26 20L27 20L27 21L29 21L29 20L27 20L27 17ZM4 18L4 19L5 19L5 18ZM4 20L4 21L5 21L5 20ZM16 20L16 21L17 21L17 20ZM0 21L0 25L1 25L1 22L2 22L2 21ZM7 22L7 23L9 23L9 22ZM16 22L16 23L17 23L17 22ZM17 25L17 26L18 26L18 25ZM25 25L25 28L28 28L28 25ZM26 26L26 27L27 27L27 26ZM11 28L11 29L12 29L12 28ZM23 28L23 29L24 29L24 30L21 30L21 31L22 31L22 32L23 32L23 31L24 31L24 32L25 32L25 31L26 31L26 30L27 30L27 31L28 31L28 32L29 32L29 30L27 30L27 29L26 29L26 30L25 30L25 29L24 29L24 28ZM24 30L24 31L25 31L25 30ZM18 31L18 32L17 32L17 33L18 33L18 32L19 32L19 31ZM0 0L0 7L7 7L7 0ZM1 1L1 6L6 6L6 1ZM2 2L2 5L5 5L5 2ZM26 0L26 7L33 7L33 0ZM27 1L27 6L32 6L32 1ZM28 2L28 5L31 5L31 2ZM0 26L0 33L7 33L7 26ZM1 27L1 32L6 32L6 27ZM2 28L2 31L5 31L5 28Z" fill="#000000"/></g></g></svg>
