<?xml version="1.0" encoding="UTF-8"?>
<svg xmlns="http://www.w3.org/2000/svg" version="1.1" width="100" height="100" viewBox="0 0 100 100"><rect x="0" y="0" width="100" height="100" fill="#ffffff"/><g transform="scale(2.703)"><g transform="translate(0,0)"><path fill-rule="evenodd" d="M9 0L9 1L8 1L8 2L9 2L9 3L8 3L8 4L11 4L11 5L12 5L12 7L11 7L11 6L10 6L10 7L9 7L9 5L8 5L8 7L9 7L9 8L6 8L6 9L8 9L8 10L2 10L2 9L5 9L5 8L0 8L0 11L1 11L1 12L2 12L2 15L0 15L0 18L1 18L1 19L0 19L0 20L2 20L2 21L1 21L1 22L0 22L0 23L1 23L1 22L2 22L2 24L3 24L3 25L0 25L0 29L1 29L1 26L3 26L3 25L7 25L7 24L4 24L4 23L5 23L5 22L6 22L6 23L9 23L9 24L8 24L8 25L9 25L9 26L8 26L8 27L7 27L7 26L4 26L4 27L2 27L2 28L3 28L3 29L4 29L4 27L7 27L7 28L6 28L6 29L8 29L8 31L9 31L9 30L12 30L12 32L11 32L11 34L9 34L9 32L8 32L8 37L9 37L9 36L11 36L11 34L12 34L12 32L13 32L13 33L15 33L15 34L13 34L13 35L15 35L15 36L12 36L12 37L16 37L16 36L17 36L17 35L18 35L18 36L20 36L20 35L19 35L19 33L20 33L20 34L21 34L21 37L23 37L23 36L22 36L22 34L24 34L24 33L26 33L26 35L27 35L27 36L25 36L25 35L24 35L24 37L27 37L27 36L30 36L30 37L32 37L32 34L33 34L33 33L34 33L34 34L35 34L35 35L36 35L36 36L33 36L33 37L37 37L37 34L35 34L35 32L33 32L33 31L34 31L34 30L35 30L35 31L37 31L37 30L35 30L35 28L33 28L33 26L34 26L34 25L35 25L35 27L36 27L36 28L37 28L37 26L36 26L36 25L37 25L37 22L36 22L36 21L37 21L37 18L36 18L36 17L37 17L37 14L36 14L36 13L35 13L35 12L34 12L34 11L35 11L35 9L36 9L36 8L35 8L35 9L34 9L34 8L33 8L33 9L34 9L34 11L33 11L33 10L32 10L32 8L31 8L31 10L30 10L30 8L25 8L25 6L26 6L26 7L27 7L27 6L28 6L28 7L29 7L29 6L28 6L28 5L29 5L29 4L28 4L28 3L29 3L29 2L28 2L28 1L29 1L29 0L28 0L28 1L26 1L26 3L24 3L24 4L20 4L20 7L19 7L19 5L18 5L18 3L17 3L17 0L15 0L15 1L14 1L14 0L13 0L13 1L12 1L12 0ZM19 0L19 1L18 1L18 2L19 2L19 1L20 1L20 0ZM21 0L21 2L20 2L20 3L23 3L23 2L22 2L22 1L24 1L24 2L25 2L25 0ZM10 1L10 3L11 3L11 4L13 4L13 5L17 5L17 8L14 8L14 6L13 6L13 7L12 7L12 8L10 8L10 9L9 9L9 10L10 10L10 12L11 12L11 13L10 13L10 14L9 14L9 11L6 11L6 12L5 12L5 11L3 11L3 12L5 12L5 13L6 13L6 14L7 14L7 13L8 13L8 14L9 14L9 17L8 17L8 20L7 20L7 19L6 19L6 20L7 20L7 21L6 21L6 22L9 22L9 23L10 23L10 21L12 21L12 22L11 22L11 23L12 23L12 24L11 24L11 25L13 25L13 24L15 24L15 26L13 26L13 29L12 29L12 28L11 28L11 27L12 27L12 26L11 26L11 27L10 27L10 26L9 26L9 28L8 28L8 29L12 29L12 30L14 30L14 31L13 31L13 32L14 32L14 31L15 31L15 33L17 33L17 34L16 34L16 35L17 35L17 34L18 34L18 33L19 33L19 32L20 32L20 33L21 33L21 34L22 34L22 32L23 32L23 33L24 33L24 32L23 32L23 31L24 31L24 30L25 30L25 29L24 29L24 30L21 30L21 29L20 29L20 28L19 28L19 27L21 27L21 26L18 26L18 25L19 25L19 24L18 24L18 22L19 22L19 23L20 23L20 25L21 25L21 23L22 23L22 24L23 24L23 25L24 25L24 26L23 26L23 27L22 27L22 28L26 28L26 29L27 29L27 28L29 28L29 26L30 26L30 28L31 28L31 27L32 27L32 26L33 26L33 25L32 25L32 26L31 26L31 25L30 25L30 23L29 23L29 22L28 22L28 21L29 21L29 20L28 20L28 21L27 21L27 20L26 20L26 19L25 19L25 18L29 18L29 19L30 19L30 20L31 20L31 21L30 21L30 22L31 22L31 23L32 23L32 24L36 24L36 23L35 23L35 21L32 21L32 20L31 20L31 19L30 19L30 18L31 18L31 17L30 17L30 18L29 18L29 16L27 16L27 15L24 15L24 14L23 14L23 13L25 13L25 12L26 12L26 11L27 11L27 13L26 13L26 14L28 14L28 13L29 13L29 14L31 14L31 16L35 16L35 17L36 17L36 14L35 14L35 15L34 15L34 13L32 13L32 12L31 12L31 13L29 13L29 12L30 12L30 11L29 11L29 12L28 12L28 11L27 11L27 10L28 10L28 9L26 9L26 10L25 10L25 8L24 8L24 6L25 6L25 5L26 5L26 6L27 6L27 5L28 5L28 4L27 4L27 5L26 5L26 4L25 4L25 5L22 5L22 6L21 6L21 7L22 7L22 8L20 8L20 9L19 9L19 8L18 8L18 5L17 5L17 4L14 4L14 3L16 3L16 2L12 2L12 1ZM15 6L15 7L16 7L16 6ZM22 6L22 7L23 7L23 6ZM12 8L12 9L13 9L13 11L16 11L16 12L17 12L17 11L18 11L18 12L22 12L22 13L23 13L23 12L25 12L25 10L24 10L24 8L23 8L23 10L22 10L22 9L20 9L20 10L21 10L21 11L19 11L19 9L18 9L18 8L17 8L17 9L16 9L16 10L14 10L14 8ZM17 9L17 10L16 10L16 11L17 11L17 10L18 10L18 9ZM1 10L1 11L2 11L2 10ZM23 10L23 11L22 11L22 12L23 12L23 11L24 11L24 10ZM31 10L31 11L32 11L32 10ZM36 10L36 11L37 11L37 10ZM6 12L6 13L7 13L7 12ZM13 12L13 14L15 14L15 16L16 16L16 14L18 14L18 15L19 15L19 16L21 16L21 17L19 17L19 18L18 18L18 17L14 17L14 16L12 16L12 15L11 15L11 14L10 14L10 17L9 17L9 19L11 19L11 17L14 17L14 18L12 18L12 19L15 19L15 20L16 20L16 21L19 21L19 22L20 22L20 23L21 23L21 20L22 20L22 19L21 19L21 20L20 20L20 19L19 19L19 18L21 18L21 17L22 17L22 18L25 18L25 17L27 17L27 16L24 16L24 17L23 17L23 14L22 14L22 15L21 15L21 13L19 13L19 14L18 14L18 13L16 13L16 14L15 14L15 13L14 13L14 12ZM0 13L0 14L1 14L1 13ZM3 13L3 14L4 14L4 15L5 15L5 16L3 16L3 15L2 15L2 16L1 16L1 18L3 18L3 19L2 19L2 20L3 20L3 19L4 19L4 18L5 18L5 16L8 16L8 15L5 15L5 14L4 14L4 13ZM19 14L19 15L20 15L20 14ZM32 14L32 15L33 15L33 14ZM2 16L2 17L3 17L3 16ZM6 17L6 18L7 18L7 17ZM32 17L32 18L33 18L33 20L36 20L36 19L35 19L35 18L34 18L34 17ZM16 18L16 20L18 20L18 18ZM9 20L9 21L10 21L10 20ZM13 20L13 22L12 22L12 23L16 23L16 24L17 24L17 25L16 25L16 26L15 26L15 28L14 28L14 29L15 29L15 28L16 28L16 30L15 30L15 31L18 31L18 32L19 32L19 31L18 31L18 30L20 30L20 29L17 29L17 28L16 28L16 27L17 27L17 25L18 25L18 24L17 24L17 22L14 22L14 20ZM23 20L23 22L22 22L22 23L23 23L23 22L25 22L25 23L26 23L26 24L24 24L24 25L26 25L26 26L24 26L24 27L26 27L26 28L27 28L27 27L28 27L28 26L29 26L29 25L28 25L28 26L27 26L27 25L26 25L26 24L29 24L29 23L28 23L28 22L26 22L26 20L25 20L25 21L24 21L24 20ZM2 21L2 22L3 22L3 21ZM31 21L31 22L32 22L32 21ZM26 26L26 27L27 27L27 26ZM29 29L29 32L32 32L32 29ZM33 29L33 30L34 30L34 29ZM27 30L27 32L28 32L28 30ZM30 30L30 31L31 31L31 30ZM20 31L20 32L22 32L22 31ZM25 31L25 32L26 32L26 31ZM27 33L27 34L28 34L28 35L29 35L29 33ZM31 33L31 34L30 34L30 35L31 35L31 34L32 34L32 33ZM0 0L0 7L7 7L7 0ZM1 1L1 6L6 6L6 1ZM2 2L2 5L5 5L5 2ZM30 0L30 7L37 7L37 0ZM31 1L31 6L36 6L36 1ZM32 2L32 5L35 5L35 2ZM0 30L0 37L7 37L7 30ZM1 31L1 36L6 36L6 31ZM2 32L2 35L5 35L5 32Z" fill="#000000"/></g></g></svg>
