<?xml version="1.0" encoding="UTF-8"?>
<svg xmlns="http://www.w3.org/2000/svg" version="1.1" width="100" height="100" viewBox="0 0 100 100"><rect x="0" y="0" width="100" height="100" fill="#ffffff"/><g transform="scale(2.703)"><g transform="translate(0,0)"><path fill-rule="evenodd" d="M8 0L8 1L11 1L11 3L10 3L10 2L9 2L9 3L10 3L10 5L9 5L9 6L8 6L8 8L9 8L9 9L8 9L8 13L7 13L7 12L6 12L6 11L7 11L7 10L6 10L6 9L7 9L7 8L6 8L6 9L5 9L5 8L3 8L3 9L4 9L4 10L2 10L2 8L0 8L0 10L2 10L2 12L1 12L1 11L0 11L0 12L1 12L1 13L2 13L2 12L3 12L3 11L5 11L5 12L4 12L4 13L3 13L3 15L7 15L7 14L8 14L8 13L9 13L9 15L8 15L8 16L9 16L9 17L8 17L8 18L6 18L6 17L7 17L7 16L6 16L6 17L4 17L4 18L2 18L2 17L3 17L3 16L2 16L2 17L1 17L1 15L2 15L2 14L1 14L1 15L0 15L0 20L2 20L2 21L3 21L3 19L5 19L5 20L4 20L4 21L5 21L5 22L4 22L4 23L3 23L3 24L1 24L1 23L2 23L2 22L0 22L0 24L1 24L1 25L0 25L0 29L1 29L1 27L2 27L2 26L1 26L1 25L3 25L3 27L5 27L5 28L4 28L4 29L5 29L5 28L6 28L6 29L7 29L7 28L6 28L6 27L7 27L7 26L6 26L6 25L9 25L9 26L12 26L12 25L13 25L13 26L14 26L14 24L13 24L13 23L14 23L14 22L15 22L15 28L17 28L17 29L18 29L18 28L17 28L17 27L19 27L19 28L20 28L20 29L19 29L19 30L17 30L17 31L16 31L16 30L15 30L15 29L14 29L14 30L13 30L13 29L12 29L12 28L13 28L13 27L11 27L11 29L10 29L10 30L9 30L9 28L10 28L10 27L8 27L8 30L9 30L9 32L8 32L8 34L9 34L9 35L8 35L8 37L9 37L9 35L10 35L10 36L11 36L11 37L12 37L12 36L13 36L13 35L15 35L15 36L16 36L16 37L18 37L18 34L17 34L17 35L16 35L16 34L15 34L15 33L16 33L16 32L17 32L17 31L18 31L18 32L19 32L19 31L20 31L20 32L21 32L21 31L22 31L22 30L21 30L21 28L20 28L20 26L17 26L17 27L16 27L16 22L18 22L18 23L17 23L17 24L18 24L18 25L21 25L21 23L22 23L22 24L23 24L23 25L22 25L22 26L21 26L21 27L23 27L23 26L24 26L24 27L26 27L26 26L27 26L27 30L26 30L26 31L25 31L25 32L26 32L26 33L24 33L24 32L22 32L22 33L23 33L23 37L25 37L25 36L24 36L24 34L28 34L28 35L29 35L29 36L28 36L28 37L31 37L31 36L32 36L32 37L34 37L34 36L36 36L36 37L37 37L37 34L36 34L36 35L33 35L33 34L34 34L34 31L35 31L35 33L37 33L37 32L36 32L36 31L37 31L37 30L36 30L36 28L37 28L37 26L36 26L36 25L37 25L37 22L36 22L36 21L37 21L37 18L36 18L36 20L35 20L35 21L34 21L34 19L35 19L35 18L34 18L34 17L37 17L37 14L36 14L36 11L37 11L37 10L34 10L34 9L31 9L31 8L30 8L30 9L29 9L29 8L27 8L27 9L23 9L23 8L22 8L22 9L23 9L23 10L21 10L21 11L22 11L22 12L23 12L23 13L21 13L21 12L18 12L18 11L19 11L19 10L20 10L20 9L21 9L21 5L22 5L22 7L23 7L23 6L24 6L24 8L26 8L26 7L27 7L27 6L26 6L26 5L25 5L25 4L26 4L26 1L27 1L27 0L26 0L26 1L24 1L24 2L25 2L25 3L24 3L24 5L23 5L23 0L22 0L22 2L21 2L21 1L20 1L20 0L17 0L17 1L19 1L19 2L18 2L18 3L15 3L15 0L14 0L14 2L13 2L13 1L12 1L12 0ZM28 1L28 2L27 2L27 4L28 4L28 5L29 5L29 1ZM12 2L12 3L13 3L13 2ZM19 2L19 3L18 3L18 4L19 4L19 7L18 7L18 6L17 6L17 4L15 4L15 3L14 3L14 4L13 4L13 5L12 5L12 6L11 6L11 5L10 5L10 6L9 6L9 7L10 7L10 9L11 9L11 8L13 8L13 9L12 9L12 11L13 11L13 13L12 13L12 12L10 12L10 11L11 11L11 10L10 10L10 11L9 11L9 13L12 13L12 14L11 14L11 18L12 18L12 19L11 19L11 20L12 20L12 19L13 19L13 18L14 18L14 19L15 19L15 18L14 18L14 17L16 17L16 15L15 15L15 14L16 14L16 12L17 12L17 13L18 13L18 12L17 12L17 10L19 10L19 9L20 9L20 8L19 8L19 7L20 7L20 5L21 5L21 4L20 4L20 3L21 3L21 2ZM14 4L14 5L13 5L13 6L12 6L12 7L13 7L13 8L14 8L14 9L13 9L13 11L14 11L14 10L15 10L15 11L16 11L16 10L15 10L15 9L18 9L18 8L15 8L15 4ZM10 6L10 7L11 7L11 6ZM13 6L13 7L14 7L14 6ZM16 6L16 7L17 7L17 6ZM25 6L25 7L26 7L26 6ZM28 6L28 7L29 7L29 6ZM36 8L36 9L37 9L37 8ZM28 9L28 11L27 11L27 10L26 10L26 11L25 11L25 10L24 10L24 11L25 11L25 12L24 12L24 13L26 13L26 14L25 14L25 15L24 15L24 14L23 14L23 16L28 16L28 18L31 18L31 19L30 19L30 20L33 20L33 19L34 19L34 18L33 18L33 16L32 16L32 15L31 15L31 16L32 16L32 18L31 18L31 17L30 17L30 16L29 16L29 14L31 14L31 13L30 13L30 12L29 12L29 11L30 11L30 10L31 10L31 11L33 11L33 12L32 12L32 13L33 13L33 12L34 12L34 13L35 13L35 12L34 12L34 10L31 10L31 9L30 9L30 10L29 10L29 9ZM5 10L5 11L6 11L6 10ZM26 11L26 13L27 13L27 15L28 15L28 14L29 14L29 13L28 13L28 12L27 12L27 11ZM6 13L6 14L7 14L7 13ZM14 13L14 14L12 14L12 15L14 15L14 14L15 14L15 13ZM19 13L19 14L18 14L18 15L17 15L17 17L18 17L18 18L17 18L17 20L16 20L16 21L17 21L17 20L18 20L18 21L19 21L19 20L22 20L22 21L21 21L21 22L23 22L23 20L24 20L24 22L25 22L25 24L24 24L24 23L23 23L23 24L24 24L24 25L28 25L28 27L29 27L29 26L30 26L30 28L31 28L31 26L32 26L32 25L33 25L33 27L32 27L32 28L33 28L33 27L34 27L34 26L35 26L35 25L36 25L36 24L34 24L34 25L33 25L33 23L36 23L36 22L33 22L33 23L32 23L32 22L31 22L31 21L30 21L30 22L29 22L29 21L28 21L28 22L29 22L29 23L27 23L27 21L26 21L26 20L28 20L28 19L27 19L27 18L24 18L24 17L23 17L23 18L22 18L22 19L19 19L19 20L18 20L18 18L19 18L19 17L20 17L20 16L22 16L22 15L19 15L19 14L21 14L21 13ZM33 14L33 15L35 15L35 16L36 16L36 14ZM9 15L9 16L10 16L10 15ZM18 15L18 16L19 16L19 15ZM12 16L12 17L13 17L13 16ZM5 18L5 19L6 19L6 20L5 20L5 21L6 21L6 22L7 22L7 23L6 23L6 24L4 24L4 25L6 25L6 24L7 24L7 23L8 23L8 24L9 24L9 25L10 25L10 24L9 24L9 22L10 22L10 23L11 23L11 21L9 21L9 18L8 18L8 21L9 21L9 22L7 22L7 21L6 21L6 20L7 20L7 19L6 19L6 18ZM23 18L23 19L24 19L24 20L26 20L26 19L24 19L24 18ZM13 20L13 21L12 21L12 23L13 23L13 22L14 22L14 20ZM19 22L19 23L20 23L20 22ZM30 22L30 23L29 23L29 24L28 24L28 25L31 25L31 24L32 24L32 23L31 23L31 22ZM5 26L5 27L6 27L6 26ZM35 27L35 28L36 28L36 27ZM2 28L2 29L3 29L3 28ZM22 28L22 29L24 29L24 30L23 30L23 31L24 31L24 30L25 30L25 29L26 29L26 28ZM11 29L11 30L10 30L10 33L9 33L9 34L13 34L13 33L14 33L14 32L15 32L15 31L14 31L14 32L12 32L12 31L13 31L13 30L12 30L12 29ZM29 29L29 32L32 32L32 29ZM34 29L34 30L35 30L35 31L36 31L36 30L35 30L35 29ZM11 30L11 31L12 31L12 30ZM20 30L20 31L21 31L21 30ZM27 30L27 31L28 31L28 30ZM30 30L30 31L31 31L31 30ZM11 32L11 33L12 33L12 32ZM28 33L28 34L29 34L29 35L31 35L31 34L33 34L33 33L31 33L31 34L29 34L29 33ZM20 34L20 36L19 36L19 37L20 37L20 36L21 36L21 37L22 37L22 36L21 36L21 35L22 35L22 34ZM11 35L11 36L12 36L12 35ZM32 35L32 36L33 36L33 35ZM0 0L0 7L7 7L7 0ZM1 1L1 6L6 6L6 1ZM2 2L2 5L5 5L5 2ZM30 0L30 7L37 7L37 0ZM31 1L31 6L36 6L36 1ZM32 2L32 5L35 5L35 2ZM0 30L0 37L7 37L7 30ZM1 31L1 36L6 36L6 31ZM2 32L2 35L5 35L5 32Z" fill="#000000"/></g></g></svg>
