<?xml version="1.0" encoding="UTF-8"?>
<svg xmlns="http://www.w3.org/2000/svg" version="1.1" width="100" height="100" viewBox="0 0 100 100"><rect x="0" y="0" width="100" height="100" fill="#ffffff"/><g transform="scale(2.703)"><g transform="translate(0,0)"><path fill-rule="evenodd" d="M9 0L9 1L8 1L8 2L9 2L9 3L8 3L8 4L10 4L10 7L11 7L11 4L12 4L12 5L13 5L13 3L12 3L12 2L13 2L13 1L14 1L14 2L16 2L16 1L17 1L17 0L16 0L16 1L14 1L14 0L13 0L13 1L11 1L11 2L10 2L10 0ZM20 0L20 1L22 1L22 2L21 2L21 4L20 4L20 2L18 2L18 3L17 3L17 4L16 4L16 3L14 3L14 7L15 7L15 6L16 6L16 7L17 7L17 4L19 4L19 5L21 5L21 6L20 6L20 9L19 9L19 10L18 10L18 12L15 12L15 13L14 13L14 12L13 12L13 11L17 11L17 8L14 8L14 9L13 9L13 8L6 8L6 9L7 9L7 10L6 10L6 11L5 11L5 12L3 12L3 11L4 11L4 10L5 10L5 8L0 8L0 9L4 9L4 10L3 10L3 11L2 11L2 12L1 12L1 10L0 10L0 13L1 13L1 15L0 15L0 17L1 17L1 18L0 18L0 19L2 19L2 21L1 21L1 22L2 22L2 24L1 24L1 23L0 23L0 24L1 24L1 25L0 25L0 29L1 29L1 26L2 26L2 28L3 28L3 25L4 25L4 27L5 27L5 29L7 29L7 28L9 28L9 26L10 26L10 29L8 29L8 31L9 31L9 32L8 32L8 37L10 37L10 36L11 36L11 37L14 37L14 36L15 36L15 35L16 35L16 34L17 34L17 35L19 35L19 37L20 37L20 35L19 35L19 34L20 34L20 33L21 33L21 34L22 34L22 35L21 35L21 37L23 37L23 34L26 34L26 35L27 35L27 36L24 36L24 37L27 37L27 36L29 36L29 35L30 35L30 37L32 37L32 34L33 34L33 33L34 33L34 34L35 34L35 35L36 35L36 36L33 36L33 37L37 37L37 34L35 34L35 33L37 33L37 32L36 32L36 31L37 31L37 30L35 30L35 28L33 28L33 26L34 26L34 25L35 25L35 27L36 27L36 28L37 28L37 26L36 26L36 25L37 25L37 22L36 22L36 21L37 21L37 18L36 18L36 17L37 17L37 14L36 14L36 13L35 13L35 12L34 12L34 11L35 11L35 9L36 9L36 8L35 8L35 9L34 9L34 8L33 8L33 9L34 9L34 11L33 11L33 10L32 10L32 8L31 8L31 10L30 10L30 8L29 8L29 9L28 9L28 7L29 7L29 4L28 4L28 5L27 5L27 3L28 3L28 2L29 2L29 0L28 0L28 1L26 1L26 0L25 0L25 1L24 1L24 0L23 0L23 1L22 1L22 0ZM23 1L23 2L22 2L22 3L23 3L23 4L21 4L21 5L23 5L23 9L22 9L22 10L21 10L21 9L20 9L20 10L19 10L19 12L18 12L18 13L17 13L17 15L16 15L16 16L20 16L20 17L18 17L18 18L17 18L17 17L15 17L15 16L14 16L14 15L15 15L15 14L14 14L14 13L11 13L11 15L8 15L8 16L7 16L7 15L6 15L6 14L7 14L7 13L8 13L8 12L9 12L9 13L10 13L10 12L9 12L9 11L11 11L11 12L12 12L12 11L13 11L13 9L12 9L12 10L11 10L11 9L8 9L8 10L7 10L7 11L6 11L6 12L5 12L5 13L4 13L4 14L3 14L3 13L2 13L2 15L3 15L3 16L4 16L4 17L2 17L2 16L1 16L1 17L2 17L2 19L3 19L3 21L5 21L5 22L3 22L3 23L4 23L4 24L5 24L5 23L6 23L6 24L7 24L7 25L5 25L5 27L6 27L6 28L7 28L7 27L8 27L8 26L9 26L9 25L8 25L8 24L9 24L9 23L8 23L8 22L9 22L9 21L8 21L8 22L7 22L7 21L5 21L5 18L4 18L4 17L6 17L6 18L7 18L7 19L6 19L6 20L9 20L9 19L12 19L12 20L15 20L15 22L16 22L16 23L17 23L17 24L19 24L19 25L17 25L17 28L16 28L16 27L13 27L13 26L14 26L14 24L15 24L15 23L13 23L13 22L14 22L14 21L12 21L12 22L11 22L11 23L10 23L10 24L11 24L11 25L10 25L10 26L11 26L11 29L12 29L12 30L9 30L9 31L11 31L11 32L9 32L9 33L10 33L10 34L9 34L9 35L10 35L10 34L11 34L11 35L12 35L12 36L14 36L14 35L13 35L13 34L15 34L15 33L19 33L19 32L21 32L21 33L23 33L23 32L24 32L24 33L25 33L25 32L28 32L28 29L25 29L25 30L21 30L21 31L20 31L20 30L19 30L19 29L17 29L17 28L18 28L18 27L19 27L19 28L20 28L20 29L24 29L24 28L26 28L26 27L27 27L27 28L29 28L29 27L27 27L27 26L30 26L30 28L31 28L31 27L32 27L32 26L33 26L33 25L32 25L32 26L31 26L31 25L30 25L30 23L29 23L29 24L27 24L27 23L26 23L26 21L25 21L25 20L26 20L26 19L25 19L25 18L23 18L23 17L24 17L24 16L26 16L26 17L27 17L27 18L28 18L28 19L30 19L30 20L31 20L31 21L30 21L30 22L31 22L31 23L32 23L32 24L36 24L36 23L35 23L35 21L32 21L32 20L31 20L31 19L30 19L30 18L31 18L31 17L30 17L30 18L28 18L28 17L29 17L29 16L28 16L28 17L27 17L27 16L26 16L26 15L27 15L27 14L28 14L28 13L27 13L27 12L26 12L26 11L25 11L25 10L23 10L23 9L25 9L25 8L26 8L26 10L28 10L28 11L29 11L29 12L30 12L30 11L29 11L29 10L28 10L28 9L27 9L27 8L26 8L26 6L27 6L27 7L28 7L28 6L27 6L27 5L26 5L26 4L25 4L25 5L26 5L26 6L25 6L25 8L24 8L24 5L23 5L23 4L24 4L24 3L27 3L27 2L26 2L26 1L25 1L25 2L24 2L24 1ZM10 3L10 4L11 4L11 3ZM8 5L8 7L9 7L9 5ZM12 6L12 7L13 7L13 6ZM18 6L18 7L19 7L19 6ZM21 6L21 7L22 7L22 6ZM14 9L14 10L15 10L15 9ZM20 10L20 11L21 11L21 12L19 12L19 13L18 13L18 14L20 14L20 16L22 16L22 17L20 17L20 18L22 18L22 17L23 17L23 16L22 16L22 15L23 15L23 14L24 14L24 15L26 15L26 14L27 14L27 13L26 13L26 12L25 12L25 11L24 11L24 12L25 12L25 13L21 13L21 12L22 12L22 11L23 11L23 10L22 10L22 11L21 11L21 10ZM31 10L31 11L32 11L32 10ZM36 10L36 11L37 11L37 10ZM7 11L7 12L6 12L6 13L7 13L7 12L8 12L8 11ZM31 12L31 13L29 13L29 14L31 14L31 16L35 16L35 17L36 17L36 14L35 14L35 15L34 15L34 13L32 13L32 12ZM25 13L25 14L26 14L26 13ZM4 14L4 15L5 15L5 14ZM12 14L12 16L10 16L10 18L12 18L12 19L13 19L13 18L15 18L15 20L16 20L16 21L17 21L17 22L18 22L18 23L19 23L19 22L21 22L21 23L20 23L20 24L22 24L22 25L19 25L19 26L20 26L20 27L21 27L21 28L22 28L22 27L21 27L21 26L22 26L22 25L23 25L23 26L24 26L24 27L25 27L25 25L27 25L27 24L25 24L25 22L24 22L24 20L25 20L25 19L24 19L24 20L23 20L23 19L19 19L19 18L18 18L18 19L19 19L19 22L18 22L18 20L16 20L16 19L17 19L17 18L15 18L15 17L14 17L14 16L13 16L13 15L14 15L14 14ZM32 14L32 15L33 15L33 14ZM6 16L6 17L7 17L7 16ZM12 16L12 17L13 17L13 16ZM8 17L8 18L9 18L9 17ZM32 17L32 18L33 18L33 20L36 20L36 19L35 19L35 18L34 18L34 17ZM3 18L3 19L4 19L4 18ZM10 20L10 21L11 21L11 20ZM20 20L20 21L23 21L23 20ZM28 20L28 21L27 21L27 22L28 22L28 21L29 21L29 20ZM31 21L31 22L32 22L32 21ZM6 22L6 23L7 23L7 24L8 24L8 23L7 23L7 22ZM22 22L22 24L23 24L23 25L25 25L25 24L23 24L23 23L24 23L24 22ZM11 23L11 24L13 24L13 23ZM2 24L2 25L3 25L3 24ZM7 25L7 26L6 26L6 27L7 27L7 26L8 26L8 25ZM11 25L11 26L12 26L12 25ZM15 25L15 26L16 26L16 25ZM12 28L12 29L13 29L13 30L15 30L15 32L13 32L13 31L12 31L12 32L11 32L11 34L12 34L12 32L13 32L13 33L15 33L15 32L17 32L17 31L18 31L18 32L19 32L19 30L17 30L17 29L16 29L16 28ZM15 29L15 30L16 30L16 29ZM29 29L29 32L32 32L32 29ZM33 29L33 30L34 30L34 31L33 31L33 32L35 32L35 30L34 30L34 29ZM25 30L25 31L26 31L26 30ZM30 30L30 31L31 31L31 30ZM21 31L21 32L22 32L22 31ZM26 33L26 34L27 34L27 35L28 35L28 33ZM31 33L31 34L30 34L30 35L31 35L31 34L32 34L32 33ZM0 0L0 7L7 7L7 0ZM1 1L1 6L6 6L6 1ZM2 2L2 5L5 5L5 2ZM30 0L30 7L37 7L37 0ZM31 1L31 6L36 6L36 1ZM32 2L32 5L35 5L35 2ZM0 30L0 37L7 37L7 30ZM1 31L1 36L6 36L6 31ZM2 32L2 35L5 35L5 32Z" fill="#000000"/></g></g></svg>
