<?xml version="1.0" encoding="UTF-8"?>
<svg xmlns="http://www.w3.org/2000/svg" version="1.1" width="100" height="100" viewBox="0 0 100 100"><rect x="0" y="0" width="100" height="100" fill="#ffffff"/><g transform="scale(2.703)"><g transform="translate(0,0)"><path fill-rule="evenodd" d="M9 0L9 1L8 1L8 2L9 2L9 3L8 3L8 4L10 4L10 7L11 7L11 8L6 8L6 9L5 9L5 8L0 8L0 11L1 11L1 10L3 10L3 9L4 9L4 10L5 10L5 11L2 11L2 12L1 12L1 13L2 13L2 14L3 14L3 13L4 13L4 16L1 16L1 14L0 14L0 16L1 16L1 17L0 17L0 24L1 24L1 25L0 25L0 29L1 29L1 25L2 25L2 24L1 24L1 23L2 23L2 21L3 21L3 22L4 22L4 23L3 23L3 26L2 26L2 29L4 29L4 28L3 28L3 26L4 26L4 27L7 27L7 26L9 26L9 27L10 27L10 28L12 28L12 29L10 29L10 30L9 30L9 28L5 28L5 29L8 29L8 31L9 31L9 32L8 32L8 37L12 37L12 36L13 36L13 37L16 37L16 36L17 36L17 35L18 35L18 36L20 36L20 35L19 35L19 34L26 34L26 35L27 35L27 36L24 36L24 37L27 37L27 36L29 36L29 35L30 35L30 37L32 37L32 34L33 34L33 33L34 33L34 34L35 34L35 35L36 35L36 36L33 36L33 37L37 37L37 34L35 34L35 33L37 33L37 32L36 32L36 31L37 31L37 30L35 30L35 28L33 28L33 26L34 26L34 25L35 25L35 27L36 27L36 28L37 28L37 26L36 26L36 25L37 25L37 22L36 22L36 21L37 21L37 18L36 18L36 17L37 17L37 14L36 14L36 13L35 13L35 12L34 12L34 11L35 11L35 9L36 9L36 8L35 8L35 9L34 9L34 8L33 8L33 9L34 9L34 11L33 11L33 10L32 10L32 8L31 8L31 10L30 10L30 8L29 8L29 9L28 9L28 7L29 7L29 4L28 4L28 5L27 5L27 3L28 3L28 2L29 2L29 0L28 0L28 1L26 1L26 0L25 0L25 1L24 1L24 0L21 0L21 4L19 4L19 5L18 5L18 4L14 4L14 3L12 3L12 2L16 2L16 3L17 3L17 2L18 2L18 1L17 1L17 0L15 0L15 1L14 1L14 0L13 0L13 1L11 1L11 2L10 2L10 0ZM19 0L19 1L20 1L20 0ZM23 1L23 4L21 4L21 5L19 5L19 7L18 7L18 5L17 5L17 8L15 8L15 9L14 9L14 11L13 11L13 10L11 10L11 9L13 9L13 8L14 8L14 6L13 6L13 8L11 8L11 9L10 9L10 10L9 10L9 9L6 9L6 10L8 10L8 11L6 11L6 12L4 12L4 13L6 13L6 14L7 14L7 15L5 15L5 16L4 16L4 17L3 17L3 18L2 18L2 17L1 17L1 20L3 20L3 21L4 21L4 22L8 22L8 21L6 21L6 20L9 20L9 21L10 21L10 22L11 22L11 24L10 24L10 27L12 27L12 28L15 28L15 29L17 29L17 28L18 28L18 26L19 26L19 27L22 27L22 28L20 28L20 29L18 29L18 30L16 30L16 32L15 32L15 33L17 33L17 32L18 32L18 33L19 33L19 32L20 32L20 33L22 33L22 32L24 32L24 33L25 33L25 32L28 32L28 29L25 29L25 30L23 30L23 29L24 29L24 28L26 28L26 27L27 27L27 28L29 28L29 27L27 27L27 26L30 26L30 28L31 28L31 27L32 27L32 26L33 26L33 25L32 25L32 26L31 26L31 25L30 25L30 23L29 23L29 24L27 24L27 23L26 23L26 21L25 21L25 20L26 20L26 19L25 19L25 18L23 18L23 17L24 17L24 16L26 16L26 17L27 17L27 18L28 18L28 19L30 19L30 20L31 20L31 21L30 21L30 22L31 22L31 23L32 23L32 24L36 24L36 23L35 23L35 21L32 21L32 20L31 20L31 19L30 19L30 18L31 18L31 17L30 17L30 18L28 18L28 17L29 17L29 16L28 16L28 17L27 17L27 16L26 16L26 15L27 15L27 14L28 14L28 13L27 13L27 12L26 12L26 11L25 11L25 10L23 10L23 9L25 9L25 8L26 8L26 10L28 10L28 11L29 11L29 12L30 12L30 11L29 11L29 10L28 10L28 9L27 9L27 8L26 8L26 6L27 6L27 7L28 7L28 6L27 6L27 5L26 5L26 4L25 4L25 5L26 5L26 6L25 6L25 8L24 8L24 5L23 5L23 4L24 4L24 3L27 3L27 2L26 2L26 1L25 1L25 2L24 2L24 1ZM19 2L19 3L20 3L20 2ZM10 3L10 4L11 4L11 7L12 7L12 4L11 4L11 3ZM13 4L13 5L14 5L14 4ZM8 5L8 7L9 7L9 5ZM21 5L21 6L20 6L20 7L19 7L19 9L18 9L18 10L17 10L17 9L16 9L16 10L15 10L15 11L14 11L14 16L12 16L12 17L11 17L11 16L10 16L10 17L9 17L9 15L8 15L8 16L6 16L6 17L7 17L7 18L5 18L5 19L4 19L4 18L3 18L3 19L4 19L4 20L6 20L6 19L8 19L8 17L9 17L9 20L11 20L11 22L12 22L12 24L13 24L13 25L11 25L11 26L12 26L12 27L15 27L15 28L16 28L16 26L18 26L18 25L16 25L16 24L15 24L15 23L16 23L16 22L18 22L18 24L19 24L19 26L21 26L21 25L22 25L22 26L24 26L24 27L25 27L25 25L27 25L27 24L25 24L25 22L24 22L24 20L25 20L25 19L24 19L24 20L23 20L23 19L22 19L22 18L21 18L21 17L20 17L20 16L22 16L22 17L23 17L23 14L24 14L24 15L26 15L26 14L27 14L27 13L26 13L26 12L25 12L25 11L24 11L24 12L25 12L25 13L23 13L23 11L22 11L22 9L23 9L23 5ZM15 6L15 7L16 7L16 6ZM21 6L21 7L20 7L20 8L21 8L21 9L22 9L22 8L21 8L21 7L22 7L22 6ZM18 10L18 11L17 11L17 12L16 12L16 11L15 11L15 13L17 13L17 12L19 12L19 11L20 11L20 10ZM31 10L31 11L32 11L32 10ZM36 10L36 11L37 11L37 10ZM8 11L8 12L6 12L6 13L7 13L7 14L9 14L9 13L10 13L10 14L11 14L11 12L9 12L9 11ZM8 12L8 13L9 13L9 12ZM20 12L20 13L19 13L19 14L18 14L18 15L15 15L15 16L16 16L16 17L14 17L14 18L16 18L16 19L13 19L13 20L12 20L12 18L13 18L13 17L12 17L12 18L11 18L11 17L10 17L10 19L11 19L11 20L12 20L12 21L13 21L13 20L14 20L14 22L15 22L15 21L17 21L17 20L18 20L18 21L19 21L19 24L20 24L20 25L21 25L21 23L22 23L22 24L23 24L23 25L25 25L25 24L23 24L23 23L24 23L24 22L20 22L20 21L21 21L21 20L18 20L18 18L16 18L16 17L17 17L17 16L18 16L18 17L19 17L19 16L20 16L20 13L21 13L21 12ZM31 12L31 13L29 13L29 14L31 14L31 16L35 16L35 17L36 17L36 14L35 14L35 15L34 15L34 13L32 13L32 12ZM22 13L22 14L21 14L21 15L22 15L22 14L23 14L23 13ZM25 13L25 14L26 14L26 13ZM32 14L32 15L33 15L33 14ZM18 15L18 16L19 16L19 15ZM32 17L32 18L33 18L33 20L36 20L36 19L35 19L35 18L34 18L34 17ZM19 18L19 19L21 19L21 18ZM16 19L16 20L17 20L17 19ZM28 20L28 21L27 21L27 22L28 22L28 21L29 21L29 20ZM31 21L31 22L32 22L32 21ZM6 23L6 24L5 24L5 25L4 25L4 26L5 26L5 25L6 25L6 26L7 26L7 25L9 25L9 24L7 24L7 23ZM13 23L13 24L14 24L14 26L16 26L16 25L15 25L15 24L14 24L14 23ZM6 24L6 25L7 25L7 24ZM22 28L22 29L20 29L20 30L21 30L21 31L20 31L20 32L22 32L22 31L23 31L23 30L22 30L22 29L23 29L23 28ZM12 29L12 30L11 30L11 31L12 31L12 30L14 30L14 31L13 31L13 32L14 32L14 31L15 31L15 30L14 30L14 29ZM29 29L29 32L32 32L32 29ZM33 29L33 30L34 30L34 31L33 31L33 32L35 32L35 30L34 30L34 29ZM18 30L18 32L19 32L19 30ZM25 30L25 31L26 31L26 30ZM30 30L30 31L31 31L31 30ZM9 32L9 33L10 33L10 32ZM11 32L11 34L9 34L9 35L10 35L10 36L12 36L12 34L13 34L13 36L15 36L15 34L14 34L14 33L12 33L12 32ZM26 33L26 34L27 34L27 35L28 35L28 33ZM31 33L31 34L30 34L30 35L31 35L31 34L32 34L32 33ZM16 34L16 35L17 35L17 34ZM21 35L21 36L22 36L22 37L23 37L23 35ZM0 0L0 7L7 7L7 0ZM1 1L1 6L6 6L6 1ZM2 2L2 5L5 5L5 2ZM30 0L30 7L37 7L37 0ZM31 1L31 6L36 6L36 1ZM32 2L32 5L35 5L35 2ZM0 30L0 37L7 37L7 30ZM1 31L1 36L6 36L6 31ZM2 32L2 35L5 35L5 32Z" fill="#000000"/></g></g></svg>
