<?xml version="1.0" encoding="UTF-8"?>
<svg xmlns="http://www.w3.org/2000/svg" version="1.1" width="100" height="100" viewBox="0 0 100 100"><rect x="0" y="0" width="100" height="100" fill="#ffffff"/><g transform="scale(2.703)"><g transform="translate(0,0)"><path fill-rule="evenodd" d="M9 0L9 1L8 1L8 2L9 2L9 3L8 3L8 4L9 4L9 5L8 5L8 7L9 7L9 8L6 8L6 9L7 9L7 10L5 10L5 8L0 8L0 9L3 9L3 10L4 10L4 12L6 12L6 13L4 13L4 14L3 14L3 11L1 11L1 12L0 12L0 14L1 14L1 15L2 15L2 16L4 16L4 17L3 17L3 19L7 19L7 20L6 20L6 21L5 21L5 20L4 20L4 22L3 22L3 21L2 21L2 22L1 22L1 17L0 17L0 29L1 29L1 26L3 26L3 25L7 25L7 26L4 26L4 27L2 27L2 29L5 29L5 28L6 28L6 29L8 29L8 31L11 31L11 32L8 32L8 37L11 37L11 36L10 36L10 35L11 35L11 34L12 34L12 35L14 35L14 34L15 34L15 36L14 36L14 37L16 37L16 35L17 35L17 34L18 34L18 36L19 36L19 37L21 37L21 36L23 36L23 34L24 34L24 33L26 33L26 35L27 35L27 36L25 36L25 35L24 35L24 37L27 37L27 36L30 36L30 37L32 37L32 34L33 34L33 33L34 33L34 34L35 34L35 35L36 35L36 36L33 36L33 37L37 37L37 34L35 34L35 32L33 32L33 31L34 31L34 30L35 30L35 31L37 31L37 30L35 30L35 28L33 28L33 26L34 26L34 25L35 25L35 27L36 27L36 28L37 28L37 26L36 26L36 25L37 25L37 22L36 22L36 21L37 21L37 18L36 18L36 17L37 17L37 14L36 14L36 13L35 13L35 12L34 12L34 11L35 11L35 9L36 9L36 8L35 8L35 9L34 9L34 8L33 8L33 9L34 9L34 11L33 11L33 10L32 10L32 8L31 8L31 10L30 10L30 8L25 8L25 6L26 6L26 7L27 7L27 6L28 6L28 7L29 7L29 6L28 6L28 5L29 5L29 4L28 4L28 3L29 3L29 2L28 2L28 1L29 1L29 0L28 0L28 1L26 1L26 3L24 3L24 4L18 4L18 5L21 5L21 6L20 6L20 7L19 7L19 6L18 6L18 8L20 8L20 7L21 7L21 8L22 8L22 7L23 7L23 6L22 6L22 5L25 5L25 6L24 6L24 8L23 8L23 10L22 10L22 9L19 9L19 10L17 10L17 4L16 4L16 3L17 3L17 2L16 2L16 1L18 1L18 2L19 2L19 3L20 3L20 2L21 2L21 3L23 3L23 2L22 2L22 1L24 1L24 2L25 2L25 0L16 0L16 1L14 1L14 0L13 0L13 2L9 2L9 1L11 1L11 0ZM19 1L19 2L20 2L20 1ZM13 2L13 3L11 3L11 4L10 4L10 5L9 5L9 7L10 7L10 5L11 5L11 8L10 8L10 9L8 9L8 10L7 10L7 11L6 11L6 12L7 12L7 13L6 13L6 14L7 14L7 15L5 15L5 14L4 14L4 15L5 15L5 17L4 17L4 18L5 18L5 17L6 17L6 18L7 18L7 19L10 19L10 20L12 20L12 21L11 21L11 23L10 23L10 24L9 24L9 25L8 25L8 23L9 23L9 22L10 22L10 21L9 21L9 20L7 20L7 21L6 21L6 22L8 22L8 23L4 23L4 24L7 24L7 25L8 25L8 27L6 27L6 28L8 28L8 27L9 27L9 28L12 28L12 29L11 29L11 31L12 31L12 30L13 30L13 32L12 32L12 34L14 34L14 33L13 33L13 32L14 32L14 29L13 29L13 28L15 28L15 27L14 27L14 26L15 26L15 25L14 25L14 26L13 26L13 25L11 25L11 27L10 27L10 26L9 26L9 25L10 25L10 24L16 24L16 25L17 25L17 24L20 24L20 25L21 25L21 23L20 23L20 21L21 21L21 20L20 20L20 19L22 19L22 20L24 20L24 21L25 21L25 20L26 20L26 22L28 22L28 23L29 23L29 24L26 24L26 23L25 23L25 22L23 22L23 21L22 21L22 23L23 23L23 25L22 25L22 26L23 26L23 27L22 27L22 28L20 28L20 26L18 26L18 27L17 27L17 28L18 28L18 30L17 30L17 29L15 29L15 30L17 30L17 31L15 31L15 33L18 33L18 34L19 34L19 36L21 36L21 34L20 34L20 33L22 33L22 34L23 34L23 33L24 33L24 32L23 32L23 33L22 33L22 32L20 32L20 33L19 33L19 32L18 32L18 30L19 30L19 31L20 31L20 29L21 29L21 31L22 31L22 30L23 30L23 31L24 31L24 30L25 30L25 29L24 29L24 30L23 30L23 28L26 28L26 29L27 29L27 28L29 28L29 26L30 26L30 28L31 28L31 27L32 27L32 26L33 26L33 25L32 25L32 26L31 26L31 25L30 25L30 23L29 23L29 22L28 22L28 21L29 21L29 20L28 20L28 21L27 21L27 20L26 20L26 19L25 19L25 18L29 18L29 19L30 19L30 20L31 20L31 21L30 21L30 22L31 22L31 23L32 23L32 24L36 24L36 23L35 23L35 21L32 21L32 20L31 20L31 19L30 19L30 18L31 18L31 17L30 17L30 18L29 18L29 16L27 16L27 15L24 15L24 14L23 14L23 13L25 13L25 12L26 12L26 11L27 11L27 13L26 13L26 14L28 14L28 13L29 13L29 14L31 14L31 16L35 16L35 17L36 17L36 14L35 14L35 15L34 15L34 13L32 13L32 12L31 12L31 13L29 13L29 12L30 12L30 11L29 11L29 12L28 12L28 11L27 11L27 10L28 10L28 9L26 9L26 10L25 10L25 8L24 8L24 10L23 10L23 11L22 11L22 12L21 12L21 11L20 11L20 10L19 10L19 11L17 11L17 10L16 10L16 11L17 11L17 12L16 12L16 13L15 13L15 14L16 14L16 13L17 13L17 15L16 15L16 16L19 16L19 17L21 17L21 18L18 18L18 19L17 19L17 18L16 18L16 20L14 20L14 16L15 16L15 15L13 15L13 14L14 14L14 12L15 12L15 9L14 9L14 8L15 8L15 7L16 7L16 6L15 6L15 5L16 5L16 4L15 4L15 5L14 5L14 6L13 6L13 3L14 3L14 2ZM11 4L11 5L12 5L12 4ZM25 4L25 5L26 5L26 6L27 6L27 5L28 5L28 4L27 4L27 5L26 5L26 4ZM12 6L12 7L13 7L13 6ZM14 6L14 7L15 7L15 6ZM21 6L21 7L22 7L22 6ZM11 9L11 10L12 10L12 11L10 11L10 10L9 10L9 11L7 11L7 12L9 12L9 14L11 14L11 12L12 12L12 11L13 11L13 10L14 10L14 9L13 9L13 10L12 10L12 9ZM24 10L24 11L23 11L23 12L22 12L22 13L23 13L23 12L25 12L25 10ZM31 10L31 11L32 11L32 10ZM36 10L36 11L37 11L37 10ZM17 12L17 13L18 13L18 15L19 15L19 13L18 13L18 12ZM20 13L20 15L21 15L21 16L22 16L22 17L23 17L23 18L22 18L22 19L23 19L23 18L25 18L25 17L27 17L27 16L24 16L24 17L23 17L23 15L22 15L22 14L21 14L21 13ZM2 14L2 15L3 15L3 14ZM32 14L32 15L33 15L33 14ZM8 15L8 17L7 17L7 16L6 16L6 17L7 17L7 18L8 18L8 17L9 17L9 15ZM10 15L10 16L12 16L12 17L10 17L10 19L11 19L11 18L12 18L12 17L13 17L13 16L12 16L12 15ZM32 17L32 18L33 18L33 20L36 20L36 19L35 19L35 18L34 18L34 17ZM12 19L12 20L13 20L13 21L14 21L14 23L16 23L16 22L17 22L17 21L18 21L18 22L19 22L19 21L18 21L18 20L19 20L19 19L18 19L18 20L16 20L16 22L15 22L15 21L14 21L14 20L13 20L13 19ZM31 21L31 22L32 22L32 21ZM2 22L2 23L3 23L3 22ZM1 24L1 25L2 25L2 24ZM24 24L24 25L23 25L23 26L24 26L24 27L26 27L26 28L27 28L27 27L28 27L28 26L29 26L29 25L28 25L28 26L27 26L27 25L26 25L26 24ZM24 25L24 26L26 26L26 27L27 27L27 26L26 26L26 25ZM12 27L12 28L13 28L13 27ZM18 27L18 28L19 28L19 29L20 29L20 28L19 28L19 27ZM29 29L29 32L32 32L32 29ZM33 29L33 30L34 30L34 29ZM27 30L27 32L28 32L28 30ZM30 30L30 31L31 31L31 30ZM25 31L25 32L26 32L26 31ZM9 33L9 34L10 34L10 33ZM27 33L27 34L28 34L28 35L29 35L29 33ZM31 33L31 34L30 34L30 35L31 35L31 34L32 34L32 33ZM12 36L12 37L13 37L13 36ZM0 0L0 7L7 7L7 0ZM1 1L1 6L6 6L6 1ZM2 2L2 5L5 5L5 2ZM30 0L30 7L37 7L37 0ZM31 1L31 6L36 6L36 1ZM32 2L32 5L35 5L35 2ZM0 30L0 37L7 37L7 30ZM1 31L1 36L6 36L6 31ZM2 32L2 35L5 35L5 32Z" fill="#000000"/></g></g></svg>
