<?xml version="1.0" encoding="UTF-8"?>
<svg xmlns="http://www.w3.org/2000/svg" version="1.1" width="100" height="100" viewBox="0 0 100 100"><rect x="0" y="0" width="100" height="100" fill="#ffffff"/><g transform="scale(2.703)"><g transform="translate(0,0)"><path fill-rule="evenodd" d="M9 0L9 1L8 1L8 2L9 2L9 3L8 3L8 4L9 4L9 5L8 5L8 7L9 7L9 8L6 8L6 9L8 9L8 10L6 10L6 11L5 11L5 10L4 10L4 9L5 9L5 8L0 8L0 12L1 12L1 13L0 13L0 14L1 14L1 17L0 17L0 18L1 18L1 19L0 19L0 21L1 21L1 20L3 20L3 21L2 21L2 23L1 23L1 25L0 25L0 29L1 29L1 26L2 26L2 27L3 27L3 28L2 28L2 29L3 29L3 28L4 28L4 29L8 29L8 31L10 31L10 32L8 32L8 37L10 37L10 35L11 35L11 34L12 34L12 32L13 32L13 34L14 34L14 33L15 33L15 36L13 36L13 37L19 37L19 36L16 36L16 35L17 35L17 33L20 33L20 34L21 34L21 33L20 33L20 32L22 32L22 34L24 34L24 33L26 33L26 35L27 35L27 36L25 36L25 35L24 35L24 37L27 37L27 36L30 36L30 37L32 37L32 34L33 34L33 33L34 33L34 34L35 34L35 35L36 35L36 36L33 36L33 37L37 37L37 34L35 34L35 32L33 32L33 31L34 31L34 30L35 30L35 31L37 31L37 30L35 30L35 28L33 28L33 26L34 26L34 25L35 25L35 27L36 27L36 28L37 28L37 26L36 26L36 25L37 25L37 22L36 22L36 21L37 21L37 18L36 18L36 17L37 17L37 14L36 14L36 13L35 13L35 12L34 12L34 11L35 11L35 9L36 9L36 8L35 8L35 9L34 9L34 8L33 8L33 9L34 9L34 11L33 11L33 10L32 10L32 8L31 8L31 10L30 10L30 8L25 8L25 6L26 6L26 7L27 7L27 6L28 6L28 7L29 7L29 6L28 6L28 5L29 5L29 4L28 4L28 3L29 3L29 2L28 2L28 1L29 1L29 0L28 0L28 1L26 1L26 3L24 3L24 4L20 4L20 3L23 3L23 2L22 2L22 1L24 1L24 2L25 2L25 0L18 0L18 1L17 1L17 0L15 0L15 3L12 3L12 4L14 4L14 5L12 5L12 7L11 7L11 5L10 5L10 4L11 4L11 3L10 3L10 2L11 2L11 1L10 1L10 0ZM12 1L12 2L14 2L14 1ZM16 1L16 2L17 2L17 3L16 3L16 4L17 4L17 3L18 3L18 4L19 4L19 5L18 5L18 6L17 6L17 7L16 7L16 6L15 6L15 5L14 5L14 6L13 6L13 8L14 8L14 9L12 9L12 10L11 10L11 8L10 8L10 9L9 9L9 10L10 10L10 13L11 13L11 16L13 16L13 17L11 17L11 18L10 18L10 16L8 16L8 17L6 17L6 16L7 16L7 15L6 15L6 14L8 14L8 15L10 15L10 14L8 14L8 13L9 13L9 12L8 12L8 13L5 13L5 15L6 15L6 16L4 16L4 18L5 18L5 17L6 17L6 18L7 18L7 19L5 19L5 20L7 20L7 21L5 21L5 23L6 23L6 24L4 24L4 23L3 23L3 24L2 24L2 25L3 25L3 26L5 26L5 27L4 27L4 28L5 28L5 27L6 27L6 28L7 28L7 27L12 27L12 28L11 28L11 29L10 29L10 28L9 28L9 29L10 29L10 30L11 30L11 32L10 32L10 33L11 33L11 32L12 32L12 31L13 31L13 32L15 32L15 33L17 33L17 32L19 32L19 31L22 31L22 32L23 32L23 33L24 33L24 32L23 32L23 31L24 31L24 30L25 30L25 29L24 29L24 30L23 30L23 31L22 31L22 30L19 30L19 29L17 29L17 28L21 28L21 29L22 29L22 28L26 28L26 29L27 29L27 28L29 28L29 26L30 26L30 28L31 28L31 27L32 27L32 26L33 26L33 25L32 25L32 26L31 26L31 25L30 25L30 23L29 23L29 22L28 22L28 21L29 21L29 20L28 20L28 21L27 21L27 20L26 20L26 19L25 19L25 18L29 18L29 19L30 19L30 20L31 20L31 21L30 21L30 22L31 22L31 23L32 23L32 24L36 24L36 23L35 23L35 21L32 21L32 20L31 20L31 19L30 19L30 18L31 18L31 17L30 17L30 18L29 18L29 16L27 16L27 15L24 15L24 14L23 14L23 13L25 13L25 12L26 12L26 11L27 11L27 13L26 13L26 14L28 14L28 13L29 13L29 14L31 14L31 16L35 16L35 17L36 17L36 14L35 14L35 15L34 15L34 13L32 13L32 12L31 12L31 13L29 13L29 12L30 12L30 11L29 11L29 12L28 12L28 11L27 11L27 10L28 10L28 9L26 9L26 10L25 10L25 8L24 8L24 6L25 6L25 5L26 5L26 6L27 6L27 5L28 5L28 4L27 4L27 5L26 5L26 4L25 4L25 5L22 5L22 6L21 6L21 5L20 5L20 4L19 4L19 3L18 3L18 2L17 2L17 1ZM19 1L19 2L20 2L20 1ZM9 5L9 7L10 7L10 5ZM14 6L14 7L15 7L15 9L14 9L14 10L13 10L13 11L11 11L11 13L13 13L13 14L12 14L12 15L16 15L16 16L17 16L17 15L16 15L16 14L17 14L17 13L16 13L16 12L17 12L17 11L19 11L19 12L20 12L20 13L19 13L19 14L21 14L21 15L19 15L19 17L17 17L17 19L18 19L18 20L15 20L15 19L16 19L16 18L15 18L15 16L14 16L14 18L12 18L12 20L13 20L13 19L14 19L14 21L10 21L10 20L9 20L9 21L8 21L8 22L15 22L15 23L16 23L16 24L17 24L17 25L18 25L18 26L19 26L19 25L18 25L18 24L17 24L17 23L16 23L16 22L15 22L15 21L18 21L18 20L19 20L19 21L20 21L20 23L21 23L21 24L20 24L20 26L21 26L21 28L22 28L22 27L23 27L23 26L24 26L24 27L26 27L26 28L27 28L27 27L28 27L28 26L29 26L29 25L28 25L28 26L27 26L27 25L26 25L26 24L29 24L29 23L28 23L28 22L26 22L26 20L25 20L25 21L24 21L24 20L22 20L22 19L23 19L23 18L25 18L25 17L27 17L27 16L24 16L24 17L23 17L23 18L22 18L22 19L21 19L21 17L20 17L20 16L22 16L22 15L23 15L23 14L21 14L21 13L23 13L23 12L25 12L25 10L24 10L24 8L23 8L23 10L22 10L22 9L20 9L20 8L22 8L22 7L23 7L23 6L22 6L22 7L21 7L21 6L20 6L20 7L19 7L19 6L18 6L18 8L16 8L16 7L15 7L15 6ZM18 8L18 9L17 9L17 10L18 10L18 9L19 9L19 8ZM1 9L1 11L2 11L2 12L3 12L3 10L2 10L2 9ZM15 9L15 10L16 10L16 9ZM19 10L19 11L20 11L20 10ZM23 10L23 11L22 11L22 12L23 12L23 11L24 11L24 10ZM31 10L31 11L32 11L32 10ZM36 10L36 11L37 11L37 10ZM4 11L4 12L5 12L5 11ZM6 11L6 12L7 12L7 11ZM13 11L13 13L14 13L14 14L16 14L16 13L14 13L14 11ZM15 11L15 12L16 12L16 11ZM2 13L2 14L3 14L3 13ZM32 14L32 15L33 15L33 14ZM2 15L2 18L3 18L3 15ZM8 17L8 18L9 18L9 19L10 19L10 18L9 18L9 17ZM32 17L32 18L33 18L33 20L36 20L36 19L35 19L35 18L34 18L34 17ZM14 18L14 19L15 19L15 18ZM19 18L19 20L20 20L20 21L22 21L22 20L21 20L21 19L20 19L20 18ZM3 19L3 20L4 20L4 19ZM3 21L3 22L4 22L4 21ZM31 21L31 22L32 22L32 21ZM6 22L6 23L7 23L7 22ZM23 22L23 23L22 23L22 24L21 24L21 26L23 26L23 25L24 25L24 26L26 26L26 27L27 27L27 26L26 26L26 25L24 25L24 24L26 24L26 23L25 23L25 22ZM8 23L8 24L9 24L9 25L8 25L8 26L10 26L10 25L13 25L13 26L12 26L12 27L14 27L14 29L13 29L13 30L14 30L14 29L15 29L15 32L17 32L17 31L16 31L16 30L17 30L17 29L15 29L15 27L16 27L16 26L14 26L14 25L15 25L15 24L11 24L11 23L10 23L10 24L9 24L9 23ZM6 24L6 25L5 25L5 26L6 26L6 27L7 27L7 26L6 26L6 25L7 25L7 24ZM22 24L22 25L23 25L23 24ZM29 29L29 32L32 32L32 29ZM33 29L33 30L34 30L34 29ZM18 30L18 31L19 31L19 30ZM27 30L27 32L28 32L28 30ZM30 30L30 31L31 31L31 30ZM25 31L25 32L26 32L26 31ZM27 33L27 34L28 34L28 35L29 35L29 33ZM31 33L31 34L30 34L30 35L31 35L31 34L32 34L32 33ZM18 34L18 35L19 35L19 34ZM20 35L20 37L21 37L21 36L22 36L22 37L23 37L23 36L22 36L22 35ZM0 0L0 7L7 7L7 0ZM1 1L1 6L6 6L6 1ZM2 2L2 5L5 5L5 2ZM30 0L30 7L37 7L37 0ZM31 1L31 6L36 6L36 1ZM32 2L32 5L35 5L35 2ZM0 30L0 37L7 37L7 30ZM1 31L1 36L6 36L6 31ZM2 32L2 35L5 35L5 32Z" fill="#000000"/></g></g></svg>
