<?xml version="1.0" standalone="no"?>
<!DOCTYPE svg PUBLIC "-//W3C//DTD SVG 20010904//EN"
 "http://www.w3.org/TR/2001/REC-SVG-20010904/DTD/svg10.dtd">
<svg version="1.0" xmlns="http://www.w3.org/2000/svg"
 width="500.000000pt" height="200.000000pt" viewBox="0 0 500.000000 200.000000"
 preserveAspectRatio="xMidYMid meet">

<g transform="translate(0.000000,200.000000) scale(0.100000,-0.100000)"
fill="#000000" stroke="none">
<path d="M4288 1546 c-189 -51 -329 -250 -328 -470 1 -208 94 -373 253 -451
40 -19 84 -37 99 -41 l27 -6 -29 54 c-43 80 -61 180 -67 378 -8 261 15 426 72
512 14 21 24 38 23 37 -2 0 -24 -6 -50 -13z"/>
<path d="M4473 1538 c51 -70 76 -195 84 -409 9 -249 -24 -466 -80 -526 -20
-22 -20 -23 -1 -23 11 0 52 16 93 35 131 63 231 190 262 335 15 71 7 232 -16
295 -52 147 -190 277 -329 309 -29 7 -29 7 -13 -16z"/>
<path d="M2363 1536 c-134 -43 -248 -160 -300 -309 -33 -93 -34 -230 -3 -329
44 -143 161 -266 291 -308 95 -31 218 -25 300 14 46 22 188 135 154 124 -5 -2
-32 -14 -59 -27 -40 -19 -61 -23 -111 -19 -33 3 -76 13 -94 23 -57 29 -130
111 -161 178 -50 110 -63 179 -57 307 5 132 27 213 81 303 38 63 35 66 -41 43z"/>
<path d="M434 1522 c-119 -41 -214 -128 -270 -246 -69 -144 -67 -325 3 -465
41 -82 129 -171 209 -212 65 -33 72 -34 179 -34 104 0 114 2 176 32 67 33 159
106 159 125 0 7 -7 5 -17 -3 -39 -32 -78 -44 -147 -44 -59 0 -79 5 -117 27
-117 69 -197 217 -214 398 -11 124 29 300 91 392 37 55 31 59 -52 30z"/>
<path d="M3225 1516 c-53 -24 -125 -82 -157 -126 -25 -34 -33 -55 -35 -99 -6
-85 30 -133 112 -151 100 -23 200 84 167 180 -6 16 -25 48 -43 70 -34 42 -42
97 -18 126 14 17 12 17 -26 0z"/>
<path d="M704 1498 c28 -40 24 -52 -46 -157 -24 -36 -23 -108 2 -149 27 -45
96 -75 147 -66 50 9 109 68 118 117 15 80 -53 181 -166 246 -64 37 -75 38 -55
9z"/>
<path d="M1283 1493 c-171 -92 -230 -242 -129 -331 46 -40 95 -48 149 -24 52
23 72 46 85 95 13 47 2 88 -37 143 -40 55 -47 88 -27 119 9 14 15 25 14 25 -2
0 -26 -12 -55 -27z"/>
<path d="M2633 1490 c12 -32 -1 -68 -44 -121 -29 -37 -36 -107 -14 -152 24
-51 70 -77 134 -77 46 0 56 4 92 38 69 64 65 149 -13 237 -38 43 -129 105
-155 105 -8 0 -8 -7 0 -30z"/>
<path d="M3740 1369 c-1 -60 -62 -112 -195 -163 l-70 -28 3 -296 c1 -163 6
-300 11 -305 10 -10 312 31 326 44 5 6 5 9 -3 9 -6 0 -19 15 -29 33 -16 28
-19 71 -23 379 -3 190 -8 350 -12 354 -5 4 -8 -8 -8 -27z"/>
<path d="M1820 1357 c0 -54 -85 -120 -220 -171 l-45 -17 0 -142 c2 -404 4
-455 21 -461 14 -5 301 32 313 40 2 2 -7 18 -20 36 -24 33 -24 35 -29 380 -3
190 -8 350 -12 354 -5 4 -8 -5 -8 -19z"/>
<path d="M3288 1111 c-69 -26 -146 -60 -170 -74 -91 -54 -148 -139 -148 -223
0 -100 42 -168 130 -212 75 -37 199 -39 275 -4 l49 23 -50 23 c-28 13 -61 38
-74 56 -49 69 -63 182 -34 279 15 52 74 124 134 163 14 10 23 17 20 17 -3 0
-62 -22 -132 -48z"/>
<path d="M1368 1101 c-143 -54 -200 -85 -247 -133 -122 -124 -95 -297 59 -379
65 -34 203 -34 275 0 l50 23 -40 14 c-48 18 -80 47 -108 99 -32 58 -32 222 0
280 20 39 86 105 129 132 31 19 15 14 -118 -36z"/>
</g>
</svg>
